{
copyright = "Copyright 2014-2022 Indian Type Foundry. All rights reserved.";
designer = "Satya Rajpurohit, Jyotish Sonowal, Shiva Nalleperumal";
designerURL = "https://www.indiantypefoundry.com/designers";
familyName = Rajdhani;
customParameters = (
{
name = glyphOrder;
value = (
.notdef,
NULL,
CR,
space,
indianrupee,
apostrophemod,
zerowidthspace,
circledotted,
ITF,
exclam,
quotedbl,
numbersign,
dollar,
percent,
ampersand,
quotesingle,
parenleft,
parenright,
asterisk,
plus,
comma,
hyphen,
period,
slash,
zero,
one,
two,
three,
four,
five,
six,
seven,
eight,
nine,
colon,
semicolon,
less,
equal,
greater,
question,
at,
A,
B,
C,
D,
E,
F,
G,
H,
I,
J,
K,
L,
M,
N,
O,
P,
Q,
R,
S,
T,
U,
V,
W,
X,
Y,
Z,
bracketleft,
backslash,
bracketright,
asciicircum,
underscore,
grave,
a,
b,
c,
d,
e,
f,
g,
h,
i,
j,
k,
l,
m,
n,
o,
p,
q,
r,
s,
t,
u,
v,
w,
x,
y,
z,
braceleft,
bar,
braceright,
asciitilde,
nbspace,
exclamdown,
cent,
sterling,
yen,
brokenbar,
section,
dieresis,
copyright,
guillemotleft,
softhyphen,
registered,
macron,
degree,
plusminus,
acute,
micro,
paragraph,
periodcentered,
cedilla,
guillemotright,
questiondown,
Agrave,
Aacute,
Acircumflex,
Atilde,
Adieresis,
Aring,
AE,
Ccedilla,
Egrave,
Eacute,
Ecircumflex,
Edieresis,
Igrave,
Iacute,
Icircumflex,
Idieresis,
Eth,
Ntilde,
Ograve,
Oacute,
Ocircumflex,
Otilde,
Odieresis,
multiply,
Oslash,
Ugrave,
Uacute,
Ucircumflex,
Udieresis,
Yacute,
Thorn,
germandbls,
agrave,
aacute,
acircumflex,
atilde,
adieresis,
aring,
ae,
ccedilla,
egrave,
eacute,
ecircumflex,
edieresis,
igrave,
iacute,
icircumflex,
idieresis,
eth,
ntilde,
ograve,
oacute,
ocircumflex,
otilde,
odieresis,
divide,
oslash,
ugrave,
uacute,
ucircumflex,
udieresis,
yacute,
thorn,
ydieresis,
Amacron,
amacron,
Abreve,
abreve,
Aogonek,
aogonek,
Cacute,
cacute,
Ccaron,
ccaron,
Dcaron,
dcaron,
Dcroat,
dcroat,
Emacron,
emacron,
Edotaccent,
edotaccent,
Eogonek,
eogonek,
Ecaron,
ecaron,
Gbreve,
gbreve,
Gcommaaccent,
gcommaaccent,
Imacron,
imacron,
Iogonek,
iogonek,
Idotaccent,

glyphs = (
{
glyphname = .notdef;
layers = (
{
layerId = "B34F63BB-E885-4604-9CD3-F42791F97BAE";
paths = (
{
closed = 1;
nodes = (
"160 0 LINE",
"596 0 LINE",
"596 701 LINE",
"160 701 LINE"
);
},
{
closed = 1;
nodes = (
"241 625 LINE",
"516 625 LINE",
"516 76 LINE",
"241 76 LINE"
);
}
);
width = 756;
},
{
layerId = "C14C6A9E-9E56-4950-A507-E7357A5C19D0";
paths = (
{
closed = 1;
nodes = (
"180 0 LINE",
"570 0 LINE",
"570 701 LINE",
"180 701 LINE"
);
},
{
closed = 1;
nodes = (
"234 651 LINE",
"516 651 LINE",
"516 50 LINE",
"234 50 LINE"
);
}
);
width = 750;
}
);
},
{
glyphname = indianrupee;
layers = (
{
layerId = "B34F63BB-E885-4604-9CD3-F42791F97BAE";
paths = (
{
closed = 1;
nodes = (
"340 519 LINE",
"451 519 LINE SMOOTH",
"469 519 OFFCURVE",
"475 526 OFFCURVE",
"475 543 CURVE SMOOTH",
"475 600 LINE SMOOTH",
"475 616 OFFCURVE",
"469 623 OFFCURVE",
"451 623 CURVE SMOOTH",
"71 623 LINE SMOOTH",
"55 623 OFFCURVE",
"47 617 OFFCURVE",
"47 601 CURVE SMOOTH",
"47 543 LINE SMOOTH",
"47 526 OFFCURVE",
"55 519 OFFCURVE",
"71 519 CURVE SMOOTH",
"193 519 LINE SMOOTH",
"226 519 OFFCURVE",
"242 507 OFFCURVE",
"242 480 CURVE SMOOTH",
"242 469 LINE",
"71 469 LINE SMOOTH",
"55 469 OFFCURVE",
"47 463 OFFCURVE",
"47 447 CURVE SMOOTH",
"47 389 LINE SMOOTH",
"47 372 OFFCURVE",
"55 365 OFFCURVE",
"71 365 CURVE SMOOTH",
"242 365 LINE",
"242 360 LINE SMOOTH",
"242 320 OFFCURVE",
"218 301 OFFCURVE",
"169 301 CURVE SMOOTH",
"77 301 LINE SMOOTH",
"59 301 OFFCURVE",
"47 289 OFFCURVE",
"47 272 CURVE SMOOTH",
"47 200 LINE",
"81 166 LINE",
"209 13 LINE SMOOTH",
"213 9 OFFCURVE",
"219 0 OFFCURVE",
"230 0 CURVE SMOOTH",
"312 0 LINE SMOOTH",
"325 0 OFFCURVE",
"333 10 OFFCURVE",
"333 22 CURVE SMOOTH",
"333 31 OFFCURVE",
"328 38 OFFCURVE",
"324 43 CURVE SMOOTH",
"181 199 LINE",
"188 199 LINE SMOOTH",
"293 199 OFFCURVE",
"361 261 OFFCURVE",
"361 361 CURVE SMOOTH",
"361 365 LINE",
"451 365 LINE SMOOTH",
"469 365 OFFCURVE",
"475 372 OFFCURVE",
"475 389 CURVE SMOOTH",
"475 446 LINE SMOOTH",
"475 462 OFFCURVE",
"469 469 OFFCURVE",
"451 469 CURVE SMOOTH",
"361 469 LINE",
"361 475 LINE SMOOTH",
"361 487 OFFCURVE",
"357 506 OFFCURVE",
"340 515 CURVE"
);
}
);
width = 522;
},
{
layerId = "C14C6A9E-9E56-4950-A507-E7357A5C19D0";
paths = (
{
closed = 1;
nodes = (
"208 598 LINE",
"348 598 LINE SMOOTH",
"355 598 OFFCURVE",
"357 601 OFFCURVE",
"357 606 CURVE SMOOTH",
"357 615 LINE SMOOTH",
"357 620 OFFCURVE",
"355 623 OFFCURVE",
"348 623 CURVE SMOOTH",
"44 623 LINE SMOOTH",
"37 623 OFFCURVE",
"35 620 OFFCURVE",
"35 615 CURVE SMOOTH",
"35 606 LINE SMOOTH",
"35 601 OFFCURVE",
"37 598 OFFCURVE",
"44 598 CURVE SMOOTH",
"139 598 LINE SMOOTH",
"195 598 OFFCURVE",
"218 558 OFFCURVE",
"218 510 CURVE SMOOTH",
"218 480 LINE",
"44 480 LINE SMOOTH",
"37 480 OFFCURVE",
"35 477 OFFCURVE",
"35 472 CURVE SMOOTH",
"35 463 LINE SMOOTH",
"35 458 OFFCURVE",
"37 455 OFFCURVE",
"44 455 CURVE",
"218 455 LINE",
"218 428 LINE SMOOTH",
"218 348 OFFCURVE",
"176 325 OFFCURVE",
"125 325 CURVE SMOOTH",
"44 325 LINE SMOOTH",
"37 325 OFFCURVE",
"35 322 OFFCURVE",
"35 317 CURVE SMOOTH",
"35 296 LINE",
"52 275 LINE",
"242 9 LINE",
"246 3 OFFCURVE",
"249 0 OFFCURVE",
"256 0 CURVE SMOOTH",
"268 0 LINE SMOOTH",
"273 0 OFFCURVE",
"276 3 OFFCURVE",
"276 7 CURVE",
"276 9 OFFCURVE",
"275 11 OFFCURVE",
"274 13 CURVE",
"73 297 LINE",
"124 297 LINE SMOOTH",
"196 297 OFFCURVE",
"248 334 OFFCURVE",
"248 428 CURVE SMOOTH",
"248 455 LINE",
"348 455 LINE SMOOTH",
"355 455 OFFCURVE",
"357 458 OFFCURVE",
"357 463 CURVE SMOOTH",
"357 472 LINE SMOOTH",
"357 477 OFFCURVE",
"355 480 OFFCURVE",
"348 480 CURVE SMOOTH",
"248 480 LINE",
"248 510 LINE SMOOTH",
"248 558 OFFCURVE",
"230 582 OFFCURVE",
"208 594 CURVE"
);
}
);
width = 385;
}
);
unicode = 20B9;
},
{
glyphname = apostrophemod;
layers = (
{
layerId = "B34F63BB-E885-4604-9CD3-F42791F97BAE";
paths = (
{
closed = 1;
nodes = (
"149 624 LINE SMOOTH",
"149 638 OFFCURVE",
"142 643 OFFCURVE",
"129 643 CURVE SMOOTH",
"57 643 LINE SMOOTH",
"43 643 OFFCURVE",
"37 637 OFFCURVE",
"37 623 CURVE SMOOTH",
"37 424 LINE SMOOTH",
"37 409 OFFCURVE",
"45 404 OFFCURVE",
"54 404 CURVE SMOOTH",
"62 404 OFFCURVE",
"69 408 OFFCURVE",
"73 414 CURVE",
"126 515 LINE",
"138 540 OFFCURVE",
"149 560 OFFCURVE",
"149 594 CURVE SMOOTH"
);
}
);
width = 185;
},
{
layerId = "C14C6A9E-9E56-4950-A507-E7357A5C19D0";
paths = (
{
closed = 1;
nodes = (
"107 634 LINE SMOOTH",
"107 641 OFFCURVE",
"104 643 OFFCURVE",
"99 643 CURVE SMOOTH",
"78 643 LINE SMOOTH",
"73 643 OFFCURVE",
"70 641 OFFCURVE",
"70 634 CURVE SMOOTH",
"70 411 LINE SMOOTH",
"70 406 OFFCURVE",
"73 405 OFFCURVE",
"75 405 CURVE",
"78 405 OFFCURVE",
"80 407 OFFCURVE",
"81 411 CURVE",
"99 500 LINE SMOOTH",
"104 524 OFFCURVE",
"107 538 OFFCURVE",
"107 555 CURVE SMOOTH"
);
}
);
width = 177;
}
);
unicode = 02BC;
},
{
glyphname = circledotted;
layers = (
{
layerId = "B34F63BB-E885-4604-9CD3-F42791F97BAE";
paths = (
{
closed = 1;
nodes = (
"139 491 OFFCURVE",
"157 472 OFFCURVE",
"183 472 CURVE SMOOTH",
"209 472 OFFCURVE",
"227 491 OFFCURVE",
"227 517 CURVE SMOOTH",
"227 542 OFFCURVE",
"209 561 OFFCURVE",
"183 561 CURVE SMOOTH",
"157 561 OFFCURVE",
"139 542 OFFCURVE",
"139 517 CURVE SMOOTH"
);
},
{
closed = 1;
nodes = (
"57 382 OFFCURVE",
"77 363 OFFCURVE",
"103 363 CURVE SMOOTH",
"127 363 OFFCURVE",
"147 382 OFFCURVE",
"147 407 CURVE SMOOTH",
"147 432 OFFCURVE",
"127 451 OFFCURVE",
"103 451 CURVE SMOOTH",
"77 451 OFFCURVE",
"57 432 OFFCURVE",
"57 407 CURVE SMOOTH"
);
},
{
closed = 1;
nodes = (
"44 256 OFFCURVE",
"63 238 OFFCURVE",
"88 238 CURVE SMOOTH",
"114 238 OFFCURVE",
"132 256 OFFCURVE",
"132 281 CURVE SMOOTH",
"132 307 OFFCURVE",
"114 326 OFFCURVE",
"88 326 CURVE SMOOTH",
"63 326 OFFCURVE",
"44 307 OFFCURVE",
"44 281 CURVE SMOOTH"
);
},
{
closed = 1;
nodes = (
"96 139 OFFCURVE",
"114 121 OFFCURVE",
"140 121 CURVE SMOOTH",
"165 121 OFFCURVE",
"184 139 OFFCURVE",
"184 165 CURVE SMOOTH",
"184 190 OFFCURVE",
"165 209 OFFCURVE",
"140 209 CURVE SMOOTH",
"114 209 OFFCURVE",
"96 190 OFFCURVE",
"96 165 CURVE SMOOTH"
);
},
{
closed = 1;
nodes = (
"197 64 OFFCURVE",
"216 44 OFFCURVE",
"242 44 CURVE SMOOTH",
"267 44 OFFCURVE",
"286 64 OFFCURVE",
"286 90 CURVE SMOOTH",
"286 114 OFFCURVE",
"267 134 OFFCURVE",
"242 134 CURVE SMOOTH",
"216 134 OFFCURVE",
"197 114 OFFCURVE",
"197 90 CURVE SMOOTH"
);
},
{
closed = 1;
nodes = (
"324 48 OFFCURVE",
"342 30 OFFCURVE",
"368 30 CURVE SMOOTH",
"394 30 OFFCURVE",
"413 48 OFFCURVE",
"413 74 CURVE SMOOTH",
"413 100 OFFCURVE",
"394 118 OFFCURVE",
"368 118 CURVE SMOOTH",
"342 118 OFFCURVE",
"324 100 OFFCURVE",
"324 74 CURVE SMOOTH"
);
},
{
closed = 1;
nodes = (
"445 101 OFFCURVE",
"464 83 OFFCURVE",
"489 83 CURVE SMOOTH",
"514 83 OFFCURVE",
"534 101 OFFCURVE",
"534 127 CURVE SMOOTH",
"534 152 OFFCURVE",
"514 171 OFFCURVE",
"489 171 CURVE SMOOTH",
"464 171 OFFCURVE",
"445 152 OFFCURVE",
"445 127 CURVE SMOOTH"
);
},
{
closed = 1;
nodes = (
"518 200 OFFCURVE",
"537 181 OFFCURVE",
"563 181 CURVE SMOOTH",
"587 181 OFFCURVE",
"606 200 OFFCURVE",
"606 225 CURVE SMOOTH",
"606 251 OFFCURVE",
"587 270 OFFCURVE",
"563 270 CURVE SMOOTH",
"537 270 OFFCURVE",
"518 251 OFFCURVE",
"518 225 CURVE SMOOTH"
);
},
{
closed = 1;
nodes = (
"528 333 OFFCURVE",
"546 315 OFFCURVE",
"572 315 CURVE SMOOTH",
"597 315 OFFCURVE",
"616 333 OFFCURVE",
"616 359 CURVE SMOOTH",
"616 385 OFFCURVE",
"597 403 OFFCURVE",
"572 403 CURVE SMOOTH",
"546 403 OFFCURVE",
"528 385 OFFCURVE",
"528 359 CURVE SMOOTH"
);
},
{
closed = 1;
nodes = (
"478 452 OFFCURVE",
"497 433 OFFCURVE",
"522 433 CURVE SMOOTH",
"548 433 OFFCURVE",
"566 452 OFFCURVE",
"566 477 CURVE SMOOTH",
"566 503 OFFCURVE",
"548 522 OFFCURVE",
"522 522 CURVE SMOOTH",
"497 522 OFFCURVE",
"478 503 OFFCURVE",
"478 477 CURVE SMOOTH"
);
},
{
closed = 1;
nodes = (
"383 521 OFFCURVE",
"402 501 OFFCURVE",
"428 501 CURVE SMOOTH",
"453 501 OFFCURVE",
"471 521 OFFCURVE",
"471 545 CURVE SMOOTH",
"471 571 OFFCURVE",
"453 590 OFFCURVE",
"428 590 CURVE SMOOTH",
"402 590 OFFCURVE",
"383 571 OFFCURVE",
"383 545 CURVE SMOOTH"
);
},
{
closed = 1;
nodes = (
"257 534 OFFCURVE",
"275 516 OFFCURVE",
"301 516 CURVE SMOOTH",
"327 516 OFFCURVE",
"345 534 OFFCURVE",
"345 560 CURVE SMOOTH",
"345 586 OFFCURVE",
"327 604 OFFCURVE",
"301 604 CURVE SMOOTH",
"275 604 OFFCURVE",
"257 586 OFFCURVE",
"257 560 CURVE SMOOTH"
);
}
);
width = 660;
},
{
layerId = "C14C6A9E-9E56-4950-A507-E7357A5C19D0";
paths = (
{
closed = 1;
nodes = (
"139 491 OFFCURVE",
"157 472 OFFCURVE",
"183 472 CURVE SMOOTH",
"209 472 OFFCURVE",
"227 491 OFFCURVE",
"227 517 CURVE SMOOTH",
"227 542 OFFCURVE",
"209 561 OFFCURVE",
"183 561 CURVE SMOOTH",
"157 561 OFFCURVE",
"139 542 OFFCURVE",
"139 517 CURVE SMOOTH"
);
},
{
closed = 1;
nodes = (
"57 382 OFFCURVE",
"77 363 OFFCURVE",
"103 363 CURVE SMOOTH",
"127 363 OFFCURVE",
"147 382 OFFCURVE",
"147 407 CURVE SMOOTH",
"147 432 OFFCURVE",
"127 451 OFFCURVE",
"103 451 CURVE SMOOTH",
"77 451 OFFCURVE",
"57 432 OFFCURVE",
"57 407 CURVE SMOOTH"
);
},
{
closed = 1;
nodes = (
"44 256 OFFCURVE",
"63 238 OFFCURVE",
"88 238 CURVE SMOOTH",
"114 238 OFFCURVE",
"132 256 OFFCURVE",
"132 281 CURVE SMOOTH",
"132 307 OFFCURVE",
"114 326 OFFCURVE",
"88 326 CURVE SMOOTH",
"63 326 OFFCURVE",
"44 307 OFFCURVE",
"44 281 CURVE SMOOTH"
);
},
{
closed = 1;
nodes = (
"96 139 OFFCURVE",
"114 121 OFFCURVE",
"140 121 CURVE SMOOTH",
"165 121 OFFCURVE",
"184 139 OFFCURVE",
"184 165 CURVE SMOOTH",
"184 190 OFFCURVE",
"165 209 OFFCURVE",
"140 209 CURVE SMOOTH",
"114 209 OFFCURVE",
"96 190 OFFCURVE",
"96 165 CURVE SMOOTH"
);
},
{
closed = 1;
nodes = (
"197 64 OFFCURVE",
"216 44 OFFCURVE",
"242 44 CURVE SMOOTH",
"267 44 OFFCURVE",
"286 64 OFFCURVE",
"286 90 CURVE SMOOTH",
"286 114 OFFCURVE",
"267 134 OFFCURVE",
"242 134 CURVE SMOOTH",
"216 134 OFFCURVE",
"197 114 OFFCURVE",
"197 90 CURVE SMOOTH"
);
},
{
closed = 1;
nodes = (
"324 48 OFFCURVE",
"342 30 OFFCURVE",
"368 30 CURVE SMOOTH",
"394 30 OFFCURVE",
"413 48 OFFCURVE",
"413 74 CURVE SMOOTH",
"413 100 OFFCURVE",
"394 118 OFFCURVE",
"368 118 CURVE SMOOTH",
"342 118 OFFCURVE",
"324 100 OFFCURVE",
"324 74 CURVE SMOOTH"
);
},
{
closed = 1;
nodes = (
"445 101 OFFCURVE",
"464 83 OFFCURVE",
"489 83 CURVE SMOOTH",
"514 83 OFFCURVE",
"534 101 OFFCURVE",
"534 127 CURVE SMOOTH",
"534 152 OFFCURVE",
"514 171 OFFCURVE",
"489 171 CURVE SMOOTH",
"464 171 OFFCURVE",
"445 152 OFFCURVE",
"445 127 CURVE SMOOTH"
);
},
{
closed = 1;
nodes = (
"518 200 OFFCURVE",
"537 181 OFFCURVE",
"563 181 CURVE SMOOTH",
"587 181 OFFCURVE",
"606 200 OFFCURVE",
"606 225 CURVE SMOOTH",
"606 251 OFFCURVE",
"587 270 OFFCURVE",
"563 270 CURVE SMOOTH",
"537 270 OFFCURVE",
"518 251 OFFCURVE",
"518 225 CURVE SMOOTH"
);
},
{
closed = 1;
nodes = (
"528 333 OFFCURVE",
"546 315 OFFCURVE",
"572 315 CURVE SMOOTH",
"597 315 OFFCURVE",
"616 333 OFFCURVE",
"616 359 CURVE SMOOTH",
"616 385 OFFCURVE",
"597 403 OFFCURVE",
"572 403 CURVE SMOOTH",
"546 403 OFFCURVE",
"528 385 OFFCURVE",
"528 359 CURVE SMOOTH"
);
},
{
closed = 1;
nodes = (
"478 452 OFFCURVE",
"497 433 OFFCURVE",
"522 433 CURVE SMOOTH",
"548 433 OFFCURVE",
"566 452 OFFCURVE",
"566 477 CURVE SMOOTH",
"566 503 OFFCURVE",
"548 522 OFFCURVE",
"522 522 CURVE SMOOTH",
"497 522 OFFCURVE",
"478 503 OFFCURVE",
"478 477 CURVE SMOOTH"
);
},
{
closed = 1;
nodes = (
"383 521 OFFCURVE",
"402 501 OFFCURVE",
"428 501 CURVE SMOOTH",
"453 501 OFFCURVE",
"471 521 OFFCURVE",
"471 545 CURVE SMOOTH",
"471 571 OFFCURVE",
"453 590 OFFCURVE",
"428 590 CURVE SMOOTH",
"402 590 OFFCURVE",
"383 571 OFFCURVE",
"383 545 CURVE SMOOTH"
);
},
{
closed = 1;
nodes = (
"257 534 OFFCURVE",
"275 516 OFFCURVE",
"301 516 CURVE SMOOTH",
"327 516 OFFCURVE",
"345 534 OFFCURVE",
"345 560 CURVE SMOOTH",
"345 586 OFFCURVE",
"327 604 OFFCURVE",
"301 604 CURVE SMOOTH",
"275 604 OFFCURVE",
"257 586 OFFCURVE",
"257 560 CURVE SMOOTH"
);
}
);
width = 660;
}
);
unicode = 25CC;
},
{
glyphname = ITF;
layers = (
{
layerId = "B34F63BB-E885-4604-9CD3-F42791F97BAE";
paths = (
{
closed = 1;
nodes = (
"147 0 LINE",
"343 0 LINE",
"343 634 LINE",
"147 634 LINE"
);
},
{
closed = 1;
nodes = (
"383 449 LINE",
"579 449 LINE",
"579 634 LINE",
"383 634 LINE"
);
},
{
closed = 1;
nodes = (
"619 0 LINE",
"815 0 LINE",
"815 634 LINE",
"619 634 LINE"
);
},
{
closed = 1;
nodes = (
"855 449 LINE",
"1051 449 LINE",
"1051 634 LINE",
"855 634 LINE"
);
},
{
closed = 1;
nodes = (
"1091 0 LINE",
"1287 0 LINE",
"1287 634 LINE",
"1091 634 LINE"
);
},
{
closed = 1;
nodes = (
"1327 449 LINE",
"1523 449 LINE",
"1523 634 LINE",
"1327 634 LINE"
);
},
{
closed = 1;
nodes = (
"1327 224 LINE",
"1523 224 LINE",
"1523 409 LINE",
"1327 409 LINE"
);
}
);
width = 1648;
},
{
layerId = "C14C6A9E-9E56-4950-A507-E7357A5C19D0";
paths = (
{
closed = 1;
nodes = (
"147 0 LINE",
"343 0 LINE",
"343 634 LINE",
"147 634 LINE"
);
},
{
closed = 1;
nodes = (
"383 449 LINE",
"579 449 LINE",
"579 634 LINE",
"383 634 LINE"
);
},
{
closed = 1;
nodes = (
"619 0 LINE",
"815 0 LINE",
"815 634 LINE",
"619 634 LINE"
);
},
{
closed = 1;
nodes = (
"855 449 LINE",
"1051 449 LINE",
"1051 634 LINE",
"855 634 LINE"
);
},
{
closed = 1;
nodes = (
"1091 0 LINE",
"1287 0 LINE",
"1287 634 LINE",
"1091 634 LINE"
);
},
{
closed = 1;
nodes = (
"1327 449 LINE",
"1523 449 LINE",
"1523 634 LINE",
"1327 634 LINE"
);
},
{
closed = 1;
nodes = (
"1327 224 LINE",
"1523 224 LINE",
"1523 409 LINE",
"1327 409 LINE"
);
}
);
width = 1648;
}
);
},
{
glyphname = exclam;
layers = (
{
layerId = "B34F63BB-E885-4604-9CD3-F42791F97BAE";
paths = (
{
closed = 1;
nodes = (
"184 144 LINE SMOOTH",
"184 157 OFFCURVE",
"176 163 OFFCURVE",
"164 163 CURVE SMOOTH",
"76 163 LINE SMOOTH",
"62 163 OFFCURVE",
"56 157 OFFCURVE",
"56 143 CURVE SMOOTH",
"56 22 LINE SMOOTH",
"56 9 OFFCURVE",
"62 0 OFFCURVE",
"76 0 CURVE SMOOTH",
"164 0 LINE SMOOTH",
"177 0 OFFCURVE",
"184 7 OFFCURVE",
"184 21 CURVE SMOOTH"
);
},
{
closed = 1;
nodes = (
"70 233 OFFCURVE",
"76 228 OFFCURVE",
"90 228 CURVE SMOOTH",
"147 228 LINE SMOOTH",
"161 228 OFFCURVE",
"167 233 OFFCURVE",
"170 249 CURVE",
"170 253 OFFCURVE",
"187 385 OFFCURVE",
"187 467 CURVE SMOOTH",
"187 622 LINE SMOOTH",
"187 638 OFFCURVE",
"180 643 OFFCURVE",
"166 643 CURVE SMOOTH",
"71 643 LINE SMOOTH",
"57 643 OFFCURVE",
"50 638 OFFCURVE",
"50 622 CURVE SMOOTH",
"50 467 LINE SMOOTH",
"50 385 OFFCURVE",
"67 253 OFFCURVE",
"67 249 CURVE"
);
}
);
width = 238;
},
{
layerId = "C14C6A9E-9E56-4950-A507-E7357A5C19D0";
paths = (
{
closed = 1;
nodes = (
"135 128 LINE SMOOTH",
"135 135 OFFCURVE",
"132 137 OFFCURVE",
"127 137 CURVE SMOOTH",
"110 137 LINE SMOOTH",
"105 137 OFFCURVE",
"102 135 OFFCURVE",
"102 128 CURVE SMOOTH",
"102 9 LINE SMOOTH",
"102 2 OFFCURVE",
"105 0 OFFCURVE",
"110 0 CURVE SMOOTH",
"127 0 LINE SMOOTH",
"132 0 OFFCURVE",
"135 2 OFFCURVE",
"135 9 CURVE SMOOTH"
);
},
{
closed = 1;
nodes = (
"110 208 OFFCURVE",
"111 203 OFFCURVE",
"116 203 CURVE SMOOTH",
"120 203 LINE SMOOTH",
"125 203 OFFCURVE",
"126 208 OFFCURVE",
"127 214 CURVE",
"130 236 OFFCURVE",
"137 421 OFFCURVE",
"137 550 CURVE SMOOTH",
"137 634 LINE SMOOTH",
"137 641 OFFCURVE",
"134 643 OFFCURVE",
"129 643 CURVE SMOOTH",
"108 643 LINE SMOOTH",
"103 643 OFFCURVE",
"100 641 OFFCURVE",
"100 634 CURVE SMOOTH",
"100 550 LINE SMOOTH",
"100 421 OFFCURVE",
"106 236 OFFCURVE",
"109 214 CURVE"
);
}
);
width = 237;
}
);
unicode = 0021;
},
{
glyphname = quotedbl;
layers = (
{
layerId = "B34F63BB-E885-4604-9CD3-F42791F97BAE";
paths = (
{
closed = 1;
nodes = (
"149 624 LINE SMOOTH",
"151 637 OFFCURVE",
"144 643 OFFCURVE",
"132 643 CURVE SMOOTH",
"55 643 LINE SMOOTH",
"41 643 OFFCURVE",
"35 637 OFFCURVE",
"37 624 CURVE SMOOTH",
"64 437 LINE",
"65 423 OFFCURVE",
"72 414 OFFCURVE",
"85 414 CURVE SMOOTH",
"100 414 LINE SMOOTH",
"114 414 OFFCURVE",
"120 422 OFFCURVE",
"123 435 CURVE"
);
},
{
closed = 1;
nodes = (
"290 435 LINE",
"287 422 OFFCURVE",
"281 414 OFFCURVE",
"267 414 CURVE SMOOTH",
"252 414 LINE SMOOTH",
"239 414 OFFCURVE",
"232 423 OFFCURVE",
"231 437 CURVE",
"204 624 LINE SMOOTH",
"202 637 OFFCURVE",
"208 643 OFFCURVE",
"222 643 CURVE SMOOTH",
"299 643 LINE SMOOTH",
"311 643 OFFCURVE",
"318 637 OFFCURVE",
"316 624 CURVE SMOOTH"
);
}
);
width = 353;
},
{
layerId = "C14C6A9E-9E56-4950-A507-E7357A5C19D0";
paths = (
{
closed = 1;
nodes = (
"105 633 LINE",
"105 639 OFFCURVE",
"103 643 OFFCURVE",
"96 643 CURVE SMOOTH",
"79 643 LINE SMOOTH",
"72 643 OFFCURVE",
"70 639 OFFCURVE",
"70 633 CURVE",
"77 451 LINE",
"77 444 OFFCURVE",
"81 441 OFFCURVE",
"86 441 CURVE SMOOTH",
"89 441 LINE SMOOTH",
"94 441 OFFCURVE",
"98 444 OFFCURVE",
"98 451 CURVE"
);
},
{
closed = 1;
nodes = (
"247 451 LINE",
"247 444 OFFCURVE",
"243 441 OFFCURVE",
"238 441 CURVE SMOOTH",
"235 441 LINE SMOOTH",
"230 441 OFFCURVE",
"226 444 OFFCURVE",
"226 451 CURVE",
"219 633 LINE",
"219 639 OFFCURVE",
"221 643 OFFCURVE",
"228 643 CURVE SMOOTH",
"245 643 LINE SMOOTH",
"252 643 OFFCURVE",
"254 639 OFFCURVE",
"254 633 CURVE"
);
}
);
width = 324;
}
);
unicode = 0022;
},
{
glyphname = numbersign;
layers = (
{
layerId = "B34F63BB-E885-4604-9CD3-F42791F97BAE";
paths = (
{
closed = 1;
nodes = (
"355 621 LINE SMOOTH",
"359 637 OFFCURVE",
"352 643 OFFCURVE",
"337 643 CURVE SMOOTH",
"275 643 LINE SMOOTH",
"261 643 OFFCURVE",
"256 636 OFFCURVE",
"253 622 CURVE SMOOTH",
"107 22 LINE SMOOTH",
"103 6 OFFCURVE",
"110 0 OFFCURVE",
"124 0 CURVE SMOOTH",
"183 0 LINE SMOOTH",
"198 0 OFFCURVE",
"205 6 OFFCURVE",
"209 21 CURVE SMOOTH"
);
},
{
closed = 1;
nodes = (
"634 482 LINE SMOOTH",
"634 496 OFFCURVE",
"629 503 OFFCURVE",
"614 503 CURVE SMOOTH",
"105 503 LINE SMOOTH",
"89 503 OFFCURVE",
"84 497 OFFCURVE",
"84 482 CURVE SMOOTH",
"84 423 LINE SMOOTH",
"84 408 OFFCURVE",
"89 401 OFFCURVE",
"105 401 CURVE SMOOTH",
"131 401 OFFCURVE",
"587 401 OFFCURVE",
"614 401 CURVE SMOOTH",
"629 401 OFFCURVE",
"634 408 OFFCURVE",
"634 423 CURVE SMOOTH"
);
},
{
closed = 1;
nodes = (
"322 22 LINE SMOOTH",
"318 6 OFFCURVE",
"325 0 OFFCURVE",
"339 0 CURVE SMOOTH",
"402 0 LINE SMOOTH",
"416 0 OFFCURVE",
"421 7 OFFCURVE",
"424 21 CURVE SMOOTH",
"570 621 LINE SMOOTH",
"574 637 OFFCURVE",
"567 643 OFFCURVE",
"552 643 CURVE SMOOTH",
"494 643 LINE SMOOTH",
"479 643 OFFCURVE",
"472 637 OFFCURVE",
"468 622 CURVE SMOOTH"
);
},
{
closed = 1;
nodes = (
"565 140 LINE SMOOTH",
"580 140 OFFCURVE",
"585 146 OFFCURVE",
"585 161 CURVE SMOOTH",
"585 220 LINE SMOOTH",
"585 235 OFFCURVE",
"580 242 OFFCURVE",
"565 242 CURVE SMOOTH",
"538 242 OFFCURVE",
"82 242 OFFCURVE",
"56 242 CURVE SMOOTH",
"40 242 OFFCURVE",
"35 235 OFFCURVE",
"35 220 CURVE SMOOTH",
"35 161 LINE SMOOTH",
"35 147 OFFCURVE",
"40 140 OFFCURVE",
"56 140 CURVE SMOOTH"
);
}
);
width = 669;
},
{
layerId = "C14C6A9E-9E56-4950-A507-E7357A5C19D0";
paths = (
{
closed = 1;
nodes = (
"323 628 LINE SMOOTH",
"326 638 OFFCURVE",
"324 643 OFFCURVE",
"316 643 CURVE SMOOTH",
"308 643 LINE SMOOTH",
"300 643 OFFCURVE",
"297 639 OFFCURVE",
"295 632 CURVE SMOOTH",
"117 15 LINE SMOOTH",
"114 5 OFFCURVE",
"115 0 OFFCURVE",
"122 0 CURVE SMOOTH",
"133 0 LINE SMOOTH",
"140 0 OFFCURVE",
"143 4 OFFCURVE",
"145 11 CURVE SMOOTH"
);
},
{
closed = 1;
nodes = (
"619 462 LINE SMOOTH",
"619 467 OFFCURVE",
"617 470 OFFCURVE",
"610 470 CURVE SMOOTH",
"140 470 LINE SMOOTH",
"133 470 OFFCURVE",
"131 467 OFFCURVE",
"131 462 CURVE SMOOTH",
"131 450 LINE SMOOTH",
"131 445 OFFCURVE",
"133 442 OFFCURVE",
"140 442 CURVE SMOOTH",
"297 442 OFFCURVE",
"453 442 OFFCURVE",
"610 442 CURVE SMOOTH",
"617 442 OFFCURVE",
"619 445 OFFCURVE",
"619 450 CURVE SMOOTH"
);
},
{
closed = 1;
nodes = (
"356 15 LINE SMOOTH",
"353 5 OFFCURVE",
"354 0 OFFCURVE",
"361 0 CURVE SMOOTH",
"372 0 LINE SMOOTH",
"379 0 OFFCURVE",
"382 4 OFFCURVE",
"384 11 CURVE SMOOTH",
"562 628 LINE SMOOTH",
"565 638 OFFCURVE",
"563 643 OFFCURVE",
"555 643 CURVE SMOOTH",
"547 643 LINE SMOOTH",
"539 643 OFFCURVE",
"536 639 OFFCURVE",
"534 632 CURVE SMOOTH"
);
},
{
closed = 1;
nodes = (
"539 173 LINE SMOOTH",
"546 173 OFFCURVE",
"548 176 OFFCURVE",
"548 181 CURVE SMOOTH",
"548 193 LINE SMOOTH",
"548 198 OFFCURVE",
"546 201 OFFCURVE",
"539 201 CURVE SMOOTH",
"382 201 OFFCURVE",
"226 201 OFFCURVE",
"69 201 CURVE SMOOTH",
"62 201 OFFCURVE",
"60 198 OFFCURVE",
"60 193 CURVE SMOOTH",
"60 181 LINE SMOOTH",
"60 176 OFFCURVE",
"62 173 OFFCURVE",
"69 173 CURVE SMOOTH"
);
}
);
width = 679;
}
);
unicode = 0023;
},
{
glyphname = dollar;
layers = (
{
layerId = "B34F63BB-E885-4604-9CD3-F42791F97BAE";
paths = (
{
closed = 1;
nodes = (
"296 -98 LINE SMOOTH",
"310 -98 OFFCURVE",
"317 -93 OFFCURVE",
"317 -77 CURVE SMOOTH",
"317 0 LINE",
"319 0 LINE",
"419 0 OFFCURVE",
"481 60 OFFCURVE",
"481 164 CURVE SMOOTH",
"481 202 LINE SMOOTH",
"481 339 OFFCURVE",
"396 369 OFFCURVE",
"315 376 CURVE SMOOTH",
"277 379 LINE SMOOTH",
"218 384 OFFCURVE",
"173 391 OFFCURVE",
"173 437 CURVE SMOOTH",
"173 457 LINE SMOOTH",
"173 517 OFFCURVE",
"189 533 OFFCURVE",
"243 533 CURVE SMOOTH",
"275 533 LINE SMOOTH",
"329 533 OFFCURVE",
"345 518 OFFCURVE",
"345 467 CURVE SMOOTH",
"345 460 LINE SMOOTH",
"345 445 OFFCURVE",
"352 439 OFFCURVE",
"366 439 CURVE SMOOTH",
"451 439 LINE SMOOTH",
"465 439 OFFCURVE",
"472 445 OFFCURVE",
"472 460 CURVE SMOOTH",
"472 479 LINE SMOOTH",
"472 580 OFFCURVE",
"414 643 OFFCURVE",
"319 643 CURVE",
"317 643 LINE",
"317 722 LINE SMOOTH",
"317 738 OFFCURVE",
"310 743 OFFCURVE",
"296 743 CURVE SMOOTH",
"236 743 LINE SMOOTH",
"222 743 OFFCURVE",
"215 738 OFFCURVE",
"215 722 CURVE SMOOTH",
"215 643 LINE",
"208 643 LINE SMOOTH",
"105 643 OFFCURVE",
"46 584 OFFCURVE",
"46 479 CURVE SMOOTH",
"46 442 LINE SMOOTH",
"46 296 OFFCURVE",
"134 272 OFFCURVE",
"218 264 CURVE SMOOTH",
"251 261 LINE SMOOTH",
"309 256 OFFCURVE",
"354 248 OFFCURVE",
"354 196 CURVE SMOOTH",
"354 181 LINE SMOOTH",
"354 126 OFFCURVE",
"336 110 OFFCURVE",
"284 110 CURVE SMOOTH",
"244 110 LINE SMOOTH",
"191 110 OFFCURVE",
"174 125 OFFCURVE",
"174 176 CURVE SMOOTH",
"174 183 LINE SMOOTH",
"174 199 OFFCURVE",
"167 204 OFFCURVE",
"153 204 CURVE SMOOTH",
"68 204 LINE SMOOTH",
"54 204 OFFCURVE",
"47 199 OFFCURVE",
"47 183 CURVE SMOOTH",
"47 164 LINE SMOOTH",
"47 61 OFFCURVE",
"107 0 OFFCURVE",
"208 0 CURVE SMOOTH",
"215 0 LINE",
"215 -77 LINE SMOOTH",
"215 -93 OFFCURVE",
"222 -98 OFFCURVE",
"236 -98 CURVE SMOOTH"
);
}
);
width = 527;
},
{
layerId = "C14C6A9E-9E56-4950-A507-E7357A5C19D0";
paths = (
{
closed = 1;
nodes = (
"270 -98 LINE SMOOTH",
"275 -98 OFFCURVE",
"278 -96 OFFCURVE",
"278 -89 CURVE SMOOTH",
"278 0 LINE",
"289 0 LINE SMOOTH",
"370 0 OFFCURVE",
"423 53 OFFCURVE",
"423 136 CURVE SMOOTH",
"423 210 LINE SMOOTH",
"423 308 OFFCURVE",
"367 339 OFFCURVE",
"290 339 CURVE SMOOTH",
"209 339 LINE SMOOTH",
"139 339 OFFCURVE",
"105 363 OFFCURVE",
"105 440 CURVE SMOOTH",
"105 508 LINE SMOOTH",
"105 576 OFFCURVE",
"142 617 OFFCURVE",
"209 617 CURVE SMOOTH",
"289 617 LINE SMOOTH",
"356 617 OFFCURVE",
"393 576 OFFCURVE",
"393 508 CURVE SMOOTH",
"393 479 LINE SMOOTH",
"393 472 OFFCURVE",
"396 470 OFFCURVE",
"401 470 CURVE SMOOTH",
"415 470 LINE SMOOTH",
"420 470 OFFCURVE",
"423 472 OFFCURVE",
"423 479 CURVE SMOOTH",
"423 509 LINE SMOOTH",
"423 592 OFFCURVE",
"370 645 OFFCURVE",
"289 645 CURVE SMOOTH",
"278 645 LINE",
"278 734 LINE SMOOTH",
"278 741 OFFCURVE",
"275 743 OFFCURVE",
"270 743 CURVE SMOOTH",
"256 743 LINE SMOOTH",
"251 743 OFFCURVE",
"248 741 OFFCURVE",
"248 734 CURVE SMOOTH",
"248 645 LINE",
"209 645 LINE SMOOTH",
"128 645 OFFCURVE",
"75 592 OFFCURVE",
"75 509 CURVE SMOOTH",
"75 440 LINE SMOOTH",
"75 340 OFFCURVE",
"133 312 OFFCURVE",
"215 312 CURVE SMOOTH",
"287 312 LINE SMOOTH",
"355 312 OFFCURVE",
"393 287 OFFCURVE",
"393 208 CURVE SMOOTH",
"393 137 LINE SMOOTH",
"393 69 OFFCURVE",
"356 28 OFFCURVE",
"289 28 CURVE SMOOTH",
"209 28 LINE SMOOTH",
"142 28 OFFCURVE",
"105 69 OFFCURVE",
"105 137 CURVE SMOOTH",
"105 170 LINE SMOOTH",
"105 177 OFFCURVE",
"102 179 OFFCURVE",
"97 179 CURVE SMOOTH",
"83 179 LINE SMOOTH",
"78 179 OFFCURVE",
"75 177 OFFCURVE",
"75 170 CURVE SMOOTH",
"75 136 LINE SMOOTH",
"75 53 OFFCURVE",
"128 0 OFFCURVE",
"209 0 CURVE SMOOTH",
"248 0 LINE",
"248 -89 LINE SMOOTH",
"248 -96 OFFCURVE",
"251 -98 OFFCURVE",
"256 -98 CURVE SMOOTH"
);
}
);
width = 498;
}
);
unicode = 0024;
},
{
glyphname = percent;
layers = (
{
layerId = "B34F63BB-E885-4604-9CD3-F42791F97BAE";
paths = (
{
closed = 1;
nodes = (
"536 622 LINE SMOOTH",
"542 637 OFFCURVE",
"535 643 OFFCURVE",
"521 643 CURVE SMOOTH",
"468 643 LINE SMOOTH",
"454 643 OFFCURVE",
"448 636 OFFCURVE",
"442 622 CURVE SMOOTH",
"378 457 OFFCURVE",
"268 186 OFFCURVE",
"204 21 CURVE SMOOTH",
"198 5 OFFCURVE",
"205 0 OFFCURVE",
"219 0 CURVE SMOOTH",
"271 0 LINE SMOOTH",
"285 0 OFFCURVE",
"292 5 OFFCURVE",
"298 21 CURVE SMOOTH"
);
},
{
closed = 1;
nodes = (
"156 644 LINE SMOOTH",
"88 644 OFFCURVE",
"50 607 OFFCURVE",
"50 539 CURVE SMOOTH",
"50 443 LINE SMOOTH",
"50 375 OFFCURVE",
"88 338 OFFCURVE",
"156 338 CURVE SMOOTH",
"215 338 LINE SMOOTH",
"284 338 OFFCURVE",
"321 375 OFFCURVE",
"321 443 CURVE SMOOTH",
"321 539 LINE SMOOTH",
"321 607 OFFCURVE",
"284 644 OFFCURVE",
"215 644 CURVE SMOOTH"
);
},
{
closed = 1;
nodes = (
"197 573 LINE SMOOTH",
"226 573 OFFCURVE",
"235 562 OFFCURVE",
"235 534 CURVE SMOOTH",
"235 447 LINE SMOOTH",
"235 419 OFFCURVE",
"226 409 OFFCURVE",
"197 409 CURVE SMOOTH",
"174 409 LINE SMOOTH",
"144 409 OFFCURVE",
"136 419 OFFCURVE",
"136 447 CURVE SMOOTH",
"136 534 LINE SMOOTH",
"136 562 OFFCURVE",
"144 573 OFFCURVE",
"174 573 CURVE SMOOTH"
);
},
{
closed = 1;
nodes = (
"525 306 LINE SMOOTH",
"457 306 OFFCURVE",
"419 269 OFFCURVE",
"419 201 CURVE SMOOTH",
"419 105 LINE SMOOTH",
"419 37 OFFCURVE",
"457 0 OFFCURVE",
"525 0 CURVE SMOOTH",
"584 0 LINE SMOOTH",
"653 0 OFFCURVE",
"690 37 OFFCURVE",
"690 105 CURVE SMOOTH",
"690 201 LINE SMOOTH",
"690 269 OFFCURVE",
"653 306 OFFCURVE",
"584 306 CURVE SMOOTH"
);
},
{
closed = 1;
nodes = (
"567 235 LINE SMOOTH",
"596 235 OFFCURVE",
"605 225 OFFCURVE",
"605 197 CURVE SMOOTH",
"605 110 LINE SMOOTH",
"605 82 OFFCURVE",
"596 71 OFFCURVE",
"567 71 CURVE SMOOTH",
"544 71 LINE SMOOTH",
"514 71 OFFCURVE",
"506 82 OFFCURVE",
"506 110 CURVE SMOOTH",
"506 197 LINE SMOOTH",
"506 225 OFFCURVE",
"514 235 OFFCURVE",
"544 235 CURVE SMOOTH"
);
}
);
width = 741;
},
{
layerId = "C14C6A9E-9E56-4950-A507-E7357A5C19D0";
paths = (
{
closed = 1;
nodes = (
"506 629 LINE SMOOTH",
"510 638 OFFCURVE",
"509 643 OFFCURVE",
"502 643 CURVE SMOOTH",
"492 643 LINE SMOOTH",
"485 643 OFFCURVE",
"483 641 OFFCURVE",
"479 632 CURVE",
"479 632 OFFCURVE",
"204 12 OFFCURVE",
"204 12 CURVE",
"200 3 OFFCURVE",
"203 0 OFFCURVE",
"209 0 CURVE SMOOTH",
"219 0 LINE SMOOTH",
"225 0 OFFCURVE",
"228 2 OFFCURVE",
"232 11 CURVE SMOOTH"
);
},
{
closed = 1;
nodes = (
"167 648 LINE",
"86 648 OFFCURVE",
"50 610 OFFCURVE",
"50 527 CURVE SMOOTH",
"50 477 LINE SMOOTH",
"50 394 OFFCURVE",
"86 355 OFFCURVE",
"167 355 CURVE SMOOTH",
"183 355 LINE SMOOTH",
"264 355 OFFCURVE",
"299 394 OFFCURVE",
"299 477 CURVE SMOOTH",
"299 527 LINE SMOOTH",
"299 610 OFFCURVE",
"264 648 OFFCURVE",
"183 648 CURVE SMOOTH"
);
},
{
closed = 1;
nodes = (
"183 620 LINE",
"250 620 OFFCURVE",
"269 594 OFFCURVE",
"269 526 CURVE SMOOTH",
"269 478 LINE SMOOTH",
"269 410 OFFCURVE",
"250 383 OFFCURVE",
"183 383 CURVE SMOOTH",
"167 383 LINE SMOOTH",
"100 383 OFFCURVE",
"80 410 OFFCURVE",
"80 478 CURVE SMOOTH",
"80 526 LINE SMOOTH",
"80 594 OFFCURVE",
"100 620 OFFCURVE",
"167 620 CURVE SMOOTH"
);
},
{
closed = 1;
nodes = (
"529 293 LINE",
"448 293 OFFCURVE",
"412 255 OFFCURVE",
"412 172 CURVE SMOOTH",
"412 122 LINE SMOOTH",
"412 39 OFFCURVE",
"448 0 OFFCURVE",
"529 0 CURVE SMOOTH",
"545 0 LINE SMOOTH",
"626 0 OFFCURVE",
"661 39 OFFCURVE",
"661 122 CURVE SMOOTH",
"661 172 LINE SMOOTH",
"661 255 OFFCURVE",
"626 293 OFFCURVE",
"545 293 CURVE SMOOTH"
);
},
{
closed = 1;
nodes = (
"545 265 LINE",
"612 265 OFFCURVE",
"631 239 OFFCURVE",
"631 171 CURVE SMOOTH",
"631 123 LINE SMOOTH",
"631 55 OFFCURVE",
"612 28 OFFCURVE",
"545 28 CURVE SMOOTH",
"529 28 LINE SMOOTH",
"462 28 OFFCURVE",
"442 55 OFFCURVE",
"442 123 CURVE SMOOTH",
"442 171 LINE SMOOTH",
"442 239 OFFCURVE",
"462 265 OFFCURVE",
"529 265 CURVE SMOOTH"
);
}
);
width = 711;
}
);
unicode = 0025;
},
{
glyphname = ampersand;
layers = (
{
layerId = "B34F63BB-E885-4604-9CD3-F42791F97BAE";
paths = (
{
closed = 1;
nodes = (
"222 111 LINE SMOOTH",
"179 111 OFFCURVE",
"160 127 OFFCURVE",
"160 169 CURVE SMOOTH",
"160 212 LINE SMOOTH",
"160 260 OFFCURVE",
"171 278 OFFCURVE",
"203 279 CURVE",
"312 151 LINE",
"308 122 OFFCURVE",
"293 111 OFFCURVE",
"264 111 CURVE SMOOTH"
);
},
{
closed = 1;
nodes = (
"429 14 LINE SMOOTH",
"437 4 OFFCURVE",
"451 0 OFFCURVE",
"464 0 CURVE SMOOTH",
"571 0 LINE SMOOTH",
"581 0 OFFCURVE",
"583 10 OFFCURVE",
"577 18 CURVE SMOOTH",
"414 212 LINE",
"544 212 LINE SMOOTH",
"560 212 OFFCURVE",
"565 218 OFFCURVE",
"565 233 CURVE SMOOTH",
"565 301 LINE SMOOTH",
"565 315 OFFCURVE",
"559 323 OFFCURVE",
"544 323 CURVE SMOOTH",
"483 323 OFFCURVE",
"382 323 OFFCURVE",
"322 323 CURVE",
"275 377 LINE SMOOTH",
"252 403 OFFCURVE",
"231 435 OFFCURVE",
"231 466 CURVE SMOOTH",
"231 479 LINE SMOOTH",
"231 521 OFFCURVE",
"248 537 OFFCURVE",
"286 537 CURVE SMOOTH",
"294 537 LINE SMOOTH",
"328 537 OFFCURVE",
"344 521 OFFCURVE",
"344 479 CURVE SMOOTH",
"344 447 LINE SMOOTH",
"344 432 OFFCURVE",
"351 425 OFFCURVE",
"365 425 CURVE SMOOTH",
"450 425 LINE SMOOTH",
"464 425 OFFCURVE",
"471 432 OFFCURVE",
"471 447 CURVE SMOOTH",
"471 481 LINE SMOOTH",
"471 586 OFFCURVE",
"410 643 OFFCURVE",
"306 643 CURVE SMOOTH",
"273 643 LINE SMOOTH",
"169 643 OFFCURVE",
"100 586 OFFCURVE",
"100 481 CURVE SMOOTH",
"100 470 LINE SMOOTH",
"100 423 OFFCURVE",
"114 386 OFFCURVE",
"139 353 CURVE",
"71 345 OFFCURVE",
"38 282 OFFCURVE",
"38 220 CURVE SMOOTH",
"38 162 LINE SMOOTH",
"38 57 OFFCURVE",
"98 0 OFFCURVE",
"203 0 CURVE SMOOTH",
"264 0 LINE SMOOTH",
"334 0 OFFCURVE",
"370 19 OFFCURVE",
"385 66 CURVE"
);
}
);
width = 618;
},
{
layerId = "C14C6A9E-9E56-4950-A507-E7357A5C19D0";
paths = (
{
closed = 1;
nodes = (
"214 28 LINE SMOOTH",
"147 28 OFFCURVE",
"110 66 OFFCURVE",
"110 134 CURVE SMOOTH",
"110 224 LINE SMOOTH",
"110 288 OFFCURVE",
"143 326 OFFCURVE",
"204 330 CURVE",
"400 105 LINE",
"391 56 OFFCURVE",
"356 28 OFFCURVE",
"299 28 CURVE SMOOTH"
);
},
{
closed = 1;
nodes = (
"487 6 LINE",
"491 2 OFFCURVE",
"495 0 OFFCURVE",
"500 0 CURVE SMOOTH",
"519 0 LINE SMOOTH",
"523 0 OFFCURVE",
"523 4 OFFCURVE",
"521 6 CURVE",
"303 258 LINE",
"523 258 LINE SMOOTH",
"530 258 OFFCURVE",
"532 261 OFFCURVE",
"532 266 CURVE SMOOTH",
"532 278 LINE SMOOTH",
"532 283 OFFCURVE",
"530 286 OFFCURVE",
"523 286 CURVE",
"523 286 OFFCURVE",
"279 286 OFFCURVE",
"279 286 CURVE",
"212 363 LINE",
"178 400 OFFCURVE",
"169 424 OFFCURVE",
"169 468 CURVE SMOOTH",
"169 509 LINE SMOOTH",
"169 577 OFFCURVE",
"206 615 OFFCURVE",
"273 615 CURVE SMOOTH",
"295 615 LINE SMOOTH",
"362 615 OFFCURVE",
"399 577 OFFCURVE",
"399 509 CURVE SMOOTH",
"399 461 LINE SMOOTH",
"399 454 OFFCURVE",
"402 452 OFFCURVE",
"407 452 CURVE SMOOTH",
"421 452 LINE SMOOTH",
"426 452 OFFCURVE",
"429 454 OFFCURVE",
"429 461 CURVE SMOOTH",
"429 510 LINE SMOOTH",
"429 593 OFFCURVE",
"376 643 OFFCURVE",
"295 643 CURVE SMOOTH",
"273 643 LINE SMOOTH",
"192 643 OFFCURVE",
"139 593 OFFCURVE",
"139 510 CURVE SMOOTH",
"139 467 LINE SMOOTH",
"139 419 OFFCURVE",
"154 388 OFFCURVE",
"187 349 CURVE",
"108 347 OFFCURVE",
"80 283 OFFCURVE",
"80 225 CURVE SMOOTH",
"80 133 LINE SMOOTH",
"80 50 OFFCURVE",
"133 0 OFFCURVE",
"214 0 CURVE SMOOTH",
"299 0 LINE SMOOTH",
"360 0 OFFCURVE",
"406 28 OFFCURVE",
"424 78 CURVE"
);
}
);
width = 592;
}
);
unicode = 0026;
},
{
glyphname = quotesingle;
layers = (
{
layerId = "B34F63BB-E885-4604-9CD3-F42791F97BAE";
paths = (
{
closed = 1;
nodes = (
"148 593 LINE",
"151 604 OFFCURVE",
"144 609 OFFCURVE",
"131 609 CURVE SMOOTH",
"57 609 LINE SMOOTH",
"43 609 OFFCURVE",
"37 604 OFFCURVE",
"39 593 CURVE SMOOTH",
"63 468 LINE SMOOTH",
"65 456 OFFCURVE",
"71 449 OFFCURVE",
"85 449 CURVE SMOOTH",
"102 449 LINE SMOOTH",
"116 449 OFFCURVE",
"122 455 OFFCURVE",
"125 466 CURVE"
);
}
);
width = 188;
},
{
layerId = "C14C6A9E-9E56-4950-A507-E7357A5C19D0";
paths = (
{
closed = 1;
nodes = (
"110 633 LINE",
"110 639 OFFCURVE",
"108 643 OFFCURVE",
"101 643 CURVE SMOOTH",
"84 643 LINE SMOOTH",
"77 643 OFFCURVE",
"75 639 OFFCURVE",
"75 633 CURVE",
"82 451 LINE",
"82 444 OFFCURVE",
"86 441 OFFCURVE",
"91 441 CURVE SMOOTH",
"94 441 LINE SMOOTH",
"99 441 OFFCURVE",
"101 444 OFFCURVE",
"103 451 CURVE"
);
}
);
width = 185;
}
);
unicode = 0027;
},
{
glyphname = parenleft;
layers = (
{
layerId = "B34F63BB-E885-4604-9CD3-F42791F97BAE";
paths = (
{
closed = 1;
nodes = (
"252 572 LINE SMOOTH",
"252 560 OFFCURVE",
"249 554 OFFCURVE",
"233 554 CURVE",
"233 554 OFFCURVE",
"230 554 OFFCURVE",
"230 554 CURVE",
"176 554 OFFCURVE",
"145 518 OFFCURVE",
"145 438 CURVE SMOOTH",
"145 103 LINE SMOOTH",
"145 23 OFFCURVE",
"178 -13 OFFCURVE",
"232 -13 CURVE",
"230 -13 OFFCURVE",
"233 -13 OFFCURVE",
"233 -13 CURVE",
"249 -13 OFFCURVE",
"252 -19 OFFCURVE",
"252 -31 CURVE SMOOTH",
"252 -87 LINE SMOOTH",
"252 -99 OFFCURVE",
"249 -102 OFFCURVE",
"233 -102 CURVE",
"233 -102 OFFCURVE",
"230 -102 OFFCURVE",
"230 -102 CURVE",
"119 -102 OFFCURVE",
"43 -40 OFFCURVE",
"43 119 CURVE SMOOTH",
"43 422 LINE SMOOTH",
"43 581 OFFCURVE",
"120 643 OFFCURVE",
"231 643 CURVE",
"232 643 OFFCURVE",
"233 643 OFFCURVE",
"234 643 CURVE",
"249 643 OFFCURVE",
"252 640 OFFCURVE",
"252 628 CURVE SMOOTH"
);
}
);
width = 306;
},
{
layerId = "C14C6A9E-9E56-4950-A507-E7357A5C19D0";
paths = (
{
closed = 1;
nodes = (
"207 623 LINE SMOOTH",
"207 618 OFFCURVE",
"205 615 OFFCURVE",
"198 615 CURVE",
"197 615 OFFCURVE",
"195 615 OFFCURVE",
"194 615 CURVE",
"127 615 OFFCURVE",
"90 574 OFFCURVE",
"90 506 CURVE SMOOTH",
"90 35 LINE SMOOTH",
"90 -33 OFFCURVE",
"127 -74 OFFCURVE",
"194 -74 CURVE",
"195 -74 OFFCURVE",
"197 -74 OFFCURVE",
"198 -74 CURVE",
"205 -74 OFFCURVE",
"207 -77 OFFCURVE",
"207 -82 CURVE SMOOTH",
"207 -94 LINE SMOOTH",
"207 -99 OFFCURVE",
"205 -102 OFFCURVE",
"198 -102 CURVE",
"197 -102 OFFCURVE",
"195 -102 OFFCURVE",
"194 -102 CURVE",
"113 -102 OFFCURVE",
"60 -49 OFFCURVE",
"60 34 CURVE SMOOTH",
"60 507 LINE SMOOTH",
"60 590 OFFCURVE",
"113 643 OFFCURVE",
"194 643 CURVE",
"195 643 OFFCURVE",
"197 643 OFFCURVE",
"198 643 CURVE",
"205 643 OFFCURVE",
"207 640 OFFCURVE",
"207 635 CURVE SMOOTH"
);
}
);
width = 277;
}
);
unicode = 0028;
},
{
glyphname = parenright;
layers = (
{
layerId = "B34F63BB-E885-4604-9CD3-F42791F97BAE";
paths = (
{
closed = 1;
nodes = (
"43 -87 LINE SMOOTH",
"43 -99 OFFCURVE",
"47 -102 OFFCURVE",
"62 -102 CURVE",
"62 -102 OFFCURVE",
"62 -102 OFFCURVE",
"63 -102 CURVE",
"174 -102 OFFCURVE",
"252 -40 OFFCURVE",
"252 119 CURVE SMOOTH",
"252 422 LINE SMOOTH",
"252 581 OFFCURVE",
"174 643 OFFCURVE",
"63 643 CURVE",
"62 643 OFFCURVE",
"62 643 OFFCURVE",
"62 643 CURVE",
"47 643 OFFCURVE",
"43 640 OFFCURVE",
"43 628 CURVE SMOOTH",
"43 572 LINE SMOOTH",
"43 560 OFFCURVE",
"47 554 OFFCURVE",
"62 554 CURVE",
"62 554 OFFCURVE",
"62 554 OFFCURVE",
"63 554 CURVE",
"116 554 OFFCURVE",
"150 518 OFFCURVE",
"150 438 CURVE SMOOTH",
"150 103 LINE SMOOTH",
"150 23 OFFCURVE",
"116 -13 OFFCURVE",
"63 -13 CURVE",
"62 -13 OFFCURVE",
"62 -13 OFFCURVE",
"62 -13 CURVE",
"47 -13 OFFCURVE",
"43 -19 OFFCURVE",
"43 -31 CURVE SMOOTH"
);
}
);
width = 306;
},
{
layerId = "C14C6A9E-9E56-4950-A507-E7357A5C19D0";
paths = (
{
closed = 1;
nodes = (
"60 -94 LINE",
"60 -99 OFFCURVE",
"62 -102 OFFCURVE",
"69 -102 CURVE",
"70 -102 OFFCURVE",
"72 -102 OFFCURVE",
"73 -102 CURVE",
"154 -102 OFFCURVE",
"207 -49 OFFCURVE",
"207 34 CURVE SMOOTH",
"207 507 LINE SMOOTH",
"207 590 OFFCURVE",
"154 643 OFFCURVE",
"73 643 CURVE",
"72 643 OFFCURVE",
"70 643 OFFCURVE",
"69 643 CURVE",
"62 643 OFFCURVE",
"60 640 OFFCURVE",
"60 635 CURVE SMOOTH",
"60 623 LINE SMOOTH",
"60 618 OFFCURVE",
"62 615 OFFCURVE",
"69 615 CURVE",
"70 615 OFFCURVE",
"72 615 OFFCURVE",
"73 615 CURVE",
"140 615 OFFCURVE",
"177 574 OFFCURVE",
"177 506 CURVE SMOOTH",
"177 35 LINE SMOOTH",
"177 -33 OFFCURVE",
"140 -74 OFFCURVE",
"73 -74 CURVE",
"72 -74 OFFCURVE",
"70 -74 OFFCURVE",
"69 -74 CURVE",
"62 -74 OFFCURVE",
"60 -77 OFFCURVE",
"60 -82 CURVE SMOOTH"
);
}
);
width = 277;
}
);
unicode = 0029;
},
{
glyphname = asterisk;
layers = (
{
layerId = "B34F63BB-E885-4604-9CD3-F42791F97BAE";
paths = (
{
closed = 1;
nodes = (
"242 624 LINE SMOOTH",
"242 638 OFFCURVE",
"235 643 OFFCURVE",
"222 643 CURVE SMOOTH",
"172 643 LINE SMOOTH",
"159 643 OFFCURVE",
"152 638 OFFCURVE",
"152 624 CURVE SMOOTH",
"152 615 LINE SMOOTH",
"152 546 OFFCURVE",
"199 486 OFFCURVE",
"200 484 CURVE",
"201 486 OFFCURVE",
"242 546 OFFCURVE",
"242 615 CURVE SMOOTH"
);
},
{
closed = 1;
nodes = (
"83 395 LINE",
"74 384 OFFCURVE",
"77 374 OFFCURVE",
"88 368 CURVE",
"128 338 LINE",
"139 331 OFFCURVE",
"149 331 OFFCURVE",
"156 341 CURVE",
"161 349 LINE",
"202 405 OFFCURVE",
"199 481 OFFCURVE",
"200 484 CURVE",
"197 482 OFFCURVE",
"129 458 OFFCURVE",
"88 402 CURVE SMOOTH"
);
},
{
closed = 1;
nodes = (
"80 566 LINE",
"66 571 OFFCURVE",
"59 566 OFFCURVE",
"55 554 CURVE SMOOTH",
"40 506 LINE SMOOTH",
"36 494 OFFCURVE",
"39 485 OFFCURVE",
"51 481 CURVE SMOOTH",
"60 478 LINE SMOOTH",
"126 457 OFFCURVE",
"197 484 OFFCURVE",
"200 484 CURVE",
"198 485 OFFCURVE",
"154 542 OFFCURVE",
"87 564 CURVE"
);
},
{
closed = 1;
nodes = (
"346 487 LINE",
"360 491 OFFCURVE",
"363 500 OFFCURVE",
"359 512 CURVE SMOOTH",
"344 560 LINE",
"339 572 OFFCURVE",
"332 577 OFFCURVE",
"319 573 CURVE SMOOTH",
"310 570 LINE",
"243 550 OFFCURVE",
"202 485 OFFCURVE",
"200 484 CURVE",
"203 483 OFFCURVE",
"272 462 OFFCURVE",
"338 484 CURVE"
);
},
{
closed = 1;
nodes = (
"248 346 LINE SMOOTH",
"257 335 OFFCURVE",
"265 335 OFFCURVE",
"276 342 CURVE",
"317 371 LINE SMOOTH",
"327 378 OFFCURVE",
"328 388 OFFCURVE",
"321 398 CURVE",
"316 406 LINE",
"275 462 OFFCURVE",
"202 482 OFFCURVE",
"200 484 CURVE",
"200 481 OFFCURVE",
"199 407 OFFCURVE",
"243 352 CURVE SMOOTH"
);
}
);
width = 398;
},
{
layerId = "C14C6A9E-9E56-4950-A507-E7357A5C19D0";
paths = (
{
closed = 1;
nodes = (
"220 634 LINE",
"220 641 OFFCURVE",
"217 643 OFFCURVE",
"212 643 CURVE SMOOTH",
"197 643 LINE SMOOTH",
"192 643 OFFCURVE",
"189 641 OFFCURVE",
"189 634 CURVE SMOOTH",
"189 617 LINE SMOOTH",
"189 569 OFFCURVE",
"199 525 OFFCURVE",
"204 511 CURVE",
"211 525 OFFCURVE",
"220 569 OFFCURVE",
"220 617 CURVE SMOOTH"
);
},
{
closed = 1;
nodes = (
"119 421 LINE",
"115 415 OFFCURVE",
"116 411 OFFCURVE",
"120 409 CURVE",
"132 400 LINE",
"137 397 OFFCURVE",
"140 397 OFFCURVE",
"143 402 CURVE",
"154 417 LINE SMOOTH",
"182 455 OFFCURVE",
"199 497 OFFCURVE",
"204 511 CURVE",
"190 504 OFFCURVE",
"157 474 OFFCURVE",
"129 435 CURVE SMOOTH"
);
},
{
closed = 1;
nodes = (
"92 564 LINE",
"85 566 OFFCURVE",
"82 564 OFFCURVE",
"81 559 CURVE",
"76 545 LINE",
"74 540 OFFCURVE",
"76 537 OFFCURVE",
"82 535 CURVE SMOOTH",
"99 529 LINE",
"144 515 OFFCURVE",
"189 511 OFFCURVE",
"204 511 CURVE",
"193 522 OFFCURVE",
"154 544 OFFCURVE",
"108 559 CURVE SMOOTH"
);
},
{
closed = 1;
nodes = (
"326 533 LINE",
"333 535 OFFCURVE",
"334 540 OFFCURVE",
"332 544 CURVE",
"328 558 LINE",
"326 564 OFFCURVE",
"324 565 OFFCURVE",
"318 563 CURVE",
"300 558 LINE",
"254 543 OFFCURVE",
"216 520 OFFCURVE",
"204 511 CURVE",
"219 508 OFFCURVE",
"264 514 OFFCURVE",
"309 528 CURVE SMOOTH"
);
},
{
closed = 1;
nodes = (
"263 402 LINE",
"267 396 OFFCURVE",
"271 397 OFFCURVE",
"275 400 CURVE",
"287 408 LINE",
"292 412 OFFCURVE",
"293 415 OFFCURVE",
"289 419 CURVE",
"278 434 LINE SMOOTH",
"250 473 OFFCURVE",
"216 502 OFFCURVE",
"204 511 CURVE",
"206 496 OFFCURVE",
"225 455 OFFCURVE",
"253 416 CURVE SMOOTH"
);
}
);
width = 408;
}
);
unicode = 002A;
},
{
glyphname = plus;
layers = (
{
layerId = "B34F63BB-E885-4604-9CD3-F42791F97BAE";
paths = (
{
closed = 1;
nodes = (
"336 510 LINE SMOOTH",
"336 528 OFFCURVE",
"329 534 OFFCURVE",
"312 534 CURVE SMOOTH",
"253 534 LINE SMOOTH",
"236 534 OFFCURVE",
"229 528 OFFCURVE",
"229 510 CURVE SMOOTH",
"229 132 LINE SMOOTH",
"229 114 OFFCURVE",
"236 108 OFFCURVE",
"253 108 CURVE SMOOTH",
"312 108 LINE SMOOTH",
"329 108 OFFCURVE",
"336 114 OFFCURVE",
"336 132 CURVE SMOOTH"
);
},
{
closed = 1;
nodes = (
"93 373 LINE SMOOTH",
"75 373 OFFCURVE",
"70 366 OFFCURVE",
"70 349 CURVE SMOOTH",
"70 293 LINE SMOOTH",
"70 277 OFFCURVE",
"75 270 OFFCURVE",
"93 270 CURVE SMOOTH",
"472 270 LINE SMOOTH",
"490 270 OFFCURVE",
"495 277 OFFCURVE",
"495 293 CURVE SMOOTH",
"495 349 LINE SMOOTH",
"495 366 OFFCURVE",
"490 373 OFFCURVE",
"472 373 CURVE SMOOTH"
);
}
);
width = 565;
},
{
layerId = "C14C6A9E-9E56-4950-A507-E7357A5C19D0";
paths = (
{
closed = 1;
nodes = (
"271 498 LINE SMOOTH",
"271 505 OFFCURVE",
"268 507 OFFCURVE",
"263 507 CURVE SMOOTH",
"249 507 LINE SMOOTH",
"244 507 OFFCURVE",
"241 505 OFFCURVE",
"241 498 CURVE SMOOTH",
"241 144 LINE SMOOTH",
"241 137 OFFCURVE",
"244 135 OFFCURVE",
"249 135 CURVE SMOOTH",
"263 135 LINE SMOOTH",
"268 135 OFFCURVE",
"271 137 OFFCURVE",
"271 144 CURVE SMOOTH"
);
},
{
closed = 1;
nodes = (
"79 335 LINE SMOOTH",
"72 335 OFFCURVE",
"70 332 OFFCURVE",
"70 327 CURVE SMOOTH",
"70 315 LINE SMOOTH",
"70 310 OFFCURVE",
"72 307 OFFCURVE",
"79 307 CURVE SMOOTH",
"433 307 LINE SMOOTH",
"440 307 OFFCURVE",
"442 310 OFFCURVE",
"442 315 CURVE SMOOTH",
"442 327 LINE SMOOTH",
"442 332 OFFCURVE",
"440 335 OFFCURVE",
"433 335 CURVE SMOOTH"
);
}
);
width = 512;
}
);
unicode = 002B;
},
{
glyphname = comma;
layers = (
{
layerId = "B34F63BB-E885-4604-9CD3-F42791F97BAE";
paths = (
{
closed = 1;
nodes = (
"166 144 LINE SMOOTH",
"166 157 OFFCURVE",
"159 163 OFFCURVE",
"147 163 CURVE SMOOTH",
"58 163 LINE SMOOTH",
"44 163 OFFCURVE",
"38 157 OFFCURVE",
"38 143 CURVE SMOOTH",
"38 -87 LINE SMOOTH",
"38 -102 OFFCURVE",
"46 -107 OFFCURVE",
"55 -107 CURVE SMOOTH",
"63 -107 OFFCURVE",
"70 -103 OFFCURVE",
"74 -97 CURVE SMOOTH",
"143 4 LINE SMOOTH",
"158 27 OFFCURVE",
"166 44 OFFCURVE",
"166 66 CURVE SMOOTH"
);
}
);
width = 204;
},
{
layerId = "C14C6A9E-9E56-4950-A507-E7357A5C19D0";
paths = (
{
closed = 1;
nodes = (
"112 128 LINE SMOOTH",
"112 135 OFFCURVE",
"109 137 OFFCURVE",
"104 137 CURVE SMOOTH",
"83 137 LINE SMOOTH",
"78 137 OFFCURVE",
"75 135 OFFCURVE",
"75 128 CURVE SMOOTH",
"75 -95 LINE SMOOTH",
"75 -100 OFFCURVE",
"78 -101 OFFCURVE",
"80 -101 CURVE",
"83 -101 OFFCURVE",
"85 -99 OFFCURVE",
"86 -95 CURVE",
"104 -6 LINE SMOOTH",
"109 18 OFFCURVE",
"112 32 OFFCURVE",
"112 49 CURVE SMOOTH"
);
}
);
width = 187;
}
);
unicode = 002C;
},
{
glyphname = hyphen;
layers = (
{
layerId = "B34F63BB-E885-4604-9CD3-F42791F97BAE";
paths = (
{
closed = 1;
nodes = (
"251 268 LINE SMOOTH",
"267 268 OFFCURVE",
"272 275 OFFCURVE",
"272 289 CURVE SMOOTH",
"272 348 LINE SMOOTH",
"272 363 OFFCURVE",
"267 370 OFFCURVE",
"251 370 CURVE SMOOTH",
"61 370 LINE SMOOTH",
"45 370 OFFCURVE",
"40 363 OFFCURVE",
"40 348 CURVE SMOOTH",
"40 289 LINE SMOOTH",
"40 275 OFFCURVE",
"45 268 OFFCURVE",
"61 268 CURVE SMOOTH"
);
}
);
width = 312;
},
{
layerId = "C14C6A9E-9E56-4950-A507-E7357A5C19D0";
paths = (
{
closed = 1;
nodes = (
"263 306 LINE",
"270 306 OFFCURVE",
"272 309 OFFCURVE",
"272 314 CURVE SMOOTH",
"272 326 LINE SMOOTH",
"272 331 OFFCURVE",
"270 334 OFFCURVE",
"263 334 CURVE SMOOTH",
"49 334 LINE SMOOTH",
"42 334 OFFCURVE",
"40 331 OFFCURVE",
"40 326 CURVE SMOOTH",
"40 314 LINE SMOOTH",
"40 309 OFFCURVE",
"42 306 OFFCURVE",
"49 306 CURVE SMOOTH"
);
}
);
width = 312;
}
);
unicode = 002D;
},
{
glyphname = period;
layers = (
{
layerId = "B34F63BB-E885-4604-9CD3-F42791F97BAE";
paths = (
{
closed = 1;
nodes = (
"166 144 LINE SMOOTH",
"166 157 OFFCURVE",
"159 163 OFFCURVE",
"147 163 CURVE SMOOTH",
"58 163 LINE SMOOTH",
"44 163 OFFCURVE",
"38 157 OFFCURVE",
"38 143 CURVE SMOOTH",
"38 21 LINE SMOOTH",
"38 7 OFFCURVE",
"44 0 OFFCURVE",
"58 0 CURVE SMOOTH",
"147 0 LINE SMOOTH",
"160 0 OFFCURVE",
"166 7 OFFCURVE",
"166 21 CURVE SMOOTH"
);
}
);
width = 204;
},
{
layerId = "C14C6A9E-9E56-4950-A507-E7357A5C19D0";
paths = (
{
closed = 1;
nodes = (
"112 128 LINE SMOOTH",
"112 135 OFFCURVE",
"109 137 OFFCURVE",
"104 137 CURVE SMOOTH",
"83 137 LINE SMOOTH",
"78 137 OFFCURVE",
"75 135 OFFCURVE",
"75 128 CURVE SMOOTH",
"75 9 LINE SMOOTH",
"75 2 OFFCURVE",
"78 0 OFFCURVE",
"83 0 CURVE SMOOTH",
"104 0 LINE SMOOTH",
"109 0 OFFCURVE",
"112 2 OFFCURVE",
"112 9 CURVE SMOOTH"
);
}
);
width = 187;
}
);
unicode = 002E;
},
{
glyphname = slash;
layers = (
{
layerId = "B34F63BB-E885-4604-9CD3-F42791F97BAE";
paths = (
{
closed = 1;
nodes = (
"379 622 LINE SMOOTH",
"384 635 OFFCURVE",
"378 643 OFFCURVE",
"363 643 CURVE SMOOTH",
"286 643 LINE SMOOTH",
"271 643 OFFCURVE",
"265 636 OFFCURVE",
"259 622 CURVE SMOOTH",
"195 457 OFFCURVE",
"95 186 OFFCURVE",
"31 21 CURVE SMOOTH",
"25 6 OFFCURVE",
"32 0 OFFCURVE",
"47 0 CURVE SMOOTH",
"124 0 LINE SMOOTH",
"138 0 OFFCURVE",
"145 5 OFFCURVE",
"151 21 CURVE SMOOTH"
);
}
);
width = 409;
},
{
layerId = "C14C6A9E-9E56-4950-A507-E7357A5C19D0";
paths = (
{
closed = 1;
nodes = (
"322 629 LINE SMOOTH",
"325 637 OFFCURVE",
"323 643 OFFCURVE",
"316 643 CURVE SMOOTH",
"302 643 LINE SMOOTH",
"295 643 OFFCURVE",
"292 640 OFFCURVE",
"289 632 CURVE",
"289 632 OFFCURVE",
"71 12 OFFCURVE",
"71 12 CURVE",
"68 4 OFFCURVE",
"73 0 OFFCURVE",
"79 0 CURVE SMOOTH",
"92 0 LINE SMOOTH",
"98 0 OFFCURVE",
"102 3 OFFCURVE",
"105 11 CURVE SMOOTH"
);
}
);
width = 393;
}
);
unicode = 002F;
},
{
glyphname = zero;
layers = (
{
layerId = "B34F63BB-E885-4604-9CD3-F42791F97BAE";
paths = (
{
closed = 1;
nodes = (
"318 0 LINE SMOOTH",
"422 0 OFFCURVE",
"482 58 OFFCURVE",
"482 163 CURVE SMOOTH",
"482 480 LINE SMOOTH",
"482 585 OFFCURVE",
"422 643 OFFCURVE",
"318 643 CURVE SMOOTH",
"218 643 LINE SMOOTH",
"113 643 OFFCURVE",
"53 585 OFFCURVE",
"53 480 CURVE SMOOTH",
"53 163 LINE SMOOTH",
"53 58 OFFCURVE",
"113 0 OFFCURVE",
"218 0 CURVE SMOOTH"
);
},
{
closed = 1;
nodes = (
"239 110 LINE SMOOTH",
"196 110 OFFCURVE",
"181 127 OFFCURVE",
"181 169 CURVE SMOOTH",
"181 474 LINE SMOOTH",
"181 516 OFFCURVE",
"196 533 OFFCURVE",
"239 533 CURVE SMOOTH",
"298 533 LINE SMOOTH",
"341 533 OFFCURVE",
"356 516 OFFCURVE",
"356 474 CURVE SMOOTH",
"356 169 LINE SMOOTH",
"356 127 OFFCURVE",
"341 110 OFFCURVE",
"298 110 CURVE SMOOTH"
);
}
);
width = 536;
},
{
layerId = "C14C6A9E-9E56-4950-A507-E7357A5C19D0";
paths = (
{
closed = 1;
nodes = (
"304 0 LINE",
"385 0 OFFCURVE",
"438 53 OFFCURVE",
"438 136 CURVE SMOOTH",
"438 507 LINE SMOOTH",
"438 590 OFFCURVE",
"385 643 OFFCURVE",
"304 643 CURVE SMOOTH",
"204 643 LINE SMOOTH",
"123 643 OFFCURVE",
"70 590 OFFCURVE",
"70 507 CURVE SMOOTH",
"70 136 LINE SMOOTH",
"70 53 OFFCURVE",
"123 0 OFFCURVE",
"204 0 CURVE SMOOTH"
);
},
{
closed = 1;
nodes = (
"204 28 LINE",
"137 28 OFFCURVE",
"100 69 OFFCURVE",
"100 137 CURVE SMOOTH",
"100 506 LINE SMOOTH",
"100 574 OFFCURVE",
"137 615 OFFCURVE",
"204 615 CURVE SMOOTH",
"304 615 LINE SMOOTH",
"371 615 OFFCURVE",
"408 574 OFFCURVE",
"408 506 CURVE SMOOTH",
"408 137 LINE SMOOTH",
"408 69 OFFCURVE",
"371 28 OFFCURVE",
"304 28 CURVE SMOOTH"
);
}
);
width = 508;
}
);
unicode = 0030;
},
{
glyphname = one;
layers = (
{
layerId = "B34F63BB-E885-4604-9CD3-F42791F97BAE";
paths = (
{
closed = 1;
nodes = (
"142 508 LINE",
"142 21 LINE SMOOTH",
"142 5 OFFCURVE",
"149 0 OFFCURVE",
"163 0 CURVE SMOOTH",
"249 0 LINE SMOOTH",
"263 0 OFFCURVE",
"269 4 OFFCURVE",
"269 21 CURVE SMOOTH",
"269 622 LINE SMOOTH",
"269 638 OFFCURVE",
"262 643 OFFCURVE",
"248 643 CURVE SMOOTH",
"168 643 LINE SMOOTH",
"154 643 OFFCURVE",
"144 638 OFFCURVE",
"129 629 CURVE SMOOTH",
"38 572 LINE SMOOTH",
"26 565 OFFCURVE",
"23 560 OFFCURVE",
"23 546 CURVE SMOOTH",
"23 464 LINE SMOOTH",
"23 451 OFFCURVE",
"27 445 OFFCURVE",
"44 452 CURVE"
);
}
);
width = 334;
},
{
layerId = "C14C6A9E-9E56-4950-A507-E7357A5C19D0";
paths = (
{
closed = 1;
nodes = (
"192 610 LINE",
"192 9 LINE SMOOTH",
"192 2 OFFCURVE",
"195 0 OFFCURVE",
"200 0 CURVE SMOOTH",
"214 0 LINE SMOOTH",
"219 0 OFFCURVE",
"222 2 OFFCURVE",
"222 9 CURVE SMOOTH",
"222 634 LINE SMOOTH",
"222 641 OFFCURVE",
"219 643 OFFCURVE",
"214 643 CURVE SMOOTH",
"202 643 LINE SMOOTH",
"194 643 OFFCURVE",
"190 640 OFFCURVE",
"186 638 CURVE",
"51 563 LINE SMOOTH",
"42 558 OFFCURVE",
"40 554 OFFCURVE",
"40 544 CURVE SMOOTH",
"40 538 LINE SMOOTH",
"40 529 OFFCURVE",
"46 526 OFFCURVE",
"56 533 CURVE"
);
}
);
width = 312;
}
);
unicode = 0031;
},
{
glyphname = two;
layers = (
{
layerId = "B34F63BB-E885-4604-9CD3-F42791F97BAE";
paths = (
{
closed = 1;
nodes = (
"47 21 LINE SMOOTH",
"47 6 OFFCURVE",
"54 0 OFFCURVE",
"68 0 CURVE SMOOTH",
"428 0 LINE SMOOTH",
"442 0 OFFCURVE",
"449 6 OFFCURVE",
"449 21 CURVE SMOOTH",
"449 91 LINE SMOOTH",
"449 106 OFFCURVE",
"442 112 OFFCURVE",
"428 112 CURVE SMOOTH",
"189 112 LINE",
"189 128 LINE SMOOTH",
"189 138 OFFCURVE",
"192 144 OFFCURVE",
"201 152 CURVE SMOOTH",
"389 312 LINE SMOOTH",
"427 344 OFFCURVE",
"449 387 OFFCURVE",
"449 441 CURVE SMOOTH",
"449 481 LINE SMOOTH",
"449 586 OFFCURVE",
"388 643 OFFCURVE",
"284 643 CURVE SMOOTH",
"208 643 LINE SMOOTH",
"103 643 OFFCURVE",
"43 586 OFFCURVE",
"43 481 CURVE SMOOTH",
"43 447 LINE SMOOTH",
"43 432 OFFCURVE",
"50 425 OFFCURVE",
"64 425 CURVE SMOOTH",
"149 425 LINE SMOOTH",
"163 425 OFFCURVE",
"170 432 OFFCURVE",
"170 447 CURVE SMOOTH",
"170 479 LINE SMOOTH",
"170 521 OFFCURVE",
"186 537 OFFCURVE",
"228 537 CURVE SMOOTH",
"263 537 LINE SMOOTH",
"306 537 OFFCURVE",
"325 521 OFFCURVE",
"325 479 CURVE SMOOTH",
"325 449 LINE SMOOTH",
"325 426 OFFCURVE",
"314 397 OFFCURVE",
"280 369 CURVE SMOOTH",
"96 213 LINE",
"65 188 OFFCURVE",
"47 160 OFFCURVE",
"47 116 CURVE SMOOTH"
);
}
);
width = 493;
},
{
layerId = "C14C6A9E-9E56-4950-A507-E7357A5C19D0";
paths = (
{
closed = 1;
nodes = (
"64 8 LINE SMOOTH",
"64 3 OFFCURVE",
"66 0 OFFCURVE",
"73 0 CURVE SMOOTH",
"405 0 LINE SMOOTH",
"412 0 OFFCURVE",
"414 3 OFFCURVE",
"414 8 CURVE SMOOTH",
"414 20 LINE SMOOTH",
"414 25 OFFCURVE",
"412 28 OFFCURVE",
"405 28 CURVE SMOOTH",
"94 28 LINE",
"94 98 LINE SMOOTH",
"94 138 OFFCURVE",
"110 165 OFFCURVE",
"144 191 CURVE SMOOTH",
"346 342 LINE SMOOTH",
"384 370 OFFCURVE",
"410 416 OFFCURVE",
"410 467 CURVE SMOOTH",
"410 510 LINE SMOOTH",
"410 593 OFFCURVE",
"357 643 OFFCURVE",
"276 643 CURVE SMOOTH",
"194 643 LINE SMOOTH",
"113 643 OFFCURVE",
"60 593 OFFCURVE",
"60 510 CURVE SMOOTH",
"60 461 LINE SMOOTH",
"60 454 OFFCURVE",
"63 452 OFFCURVE",
"68 452 CURVE SMOOTH",
"82 452 LINE SMOOTH",
"87 452 OFFCURVE",
"90 454 OFFCURVE",
"90 461 CURVE SMOOTH",
"90 509 LINE SMOOTH",
"90 577 OFFCURVE",
"127 615 OFFCURVE",
"194 615 CURVE SMOOTH",
"276 615 LINE SMOOTH",
"343 615 OFFCURVE",
"380 577 OFFCURVE",
"380 509 CURVE SMOOTH",
"380 468 LINE SMOOTH",
"380 424 OFFCURVE",
"361 388 OFFCURVE",
"327 363 CURVE SMOOTH",
"127 214 LINE",
"88 186 OFFCURVE",
"64 148 OFFCURVE",
"64 94 CURVE SMOOTH"
);
}
);
width = 474;
}
);
unicode = 0032;
},
{
glyphname = three;
layers = (
{
layerId = "B34F63BB-E885-4604-9CD3-F42791F97BAE";
paths = (
{
closed = 1;
nodes = (
"219 374 LINE SMOOTH",
"204 374 OFFCURVE",
"198 367 OFFCURVE",
"198 352 CURVE SMOOTH",
"198 292 LINE SMOOTH",
"198 278 OFFCURVE",
"204 271 OFFCURVE",
"219 271 CURVE SMOOTH",
"270 271 LINE SMOOTH",
"313 271 OFFCURVE",
"332 255 OFFCURVE",
"332 213 CURVE SMOOTH",
"332 164 LINE SMOOTH",
"332 122 OFFCURVE",
"313 106 OFFCURVE",
"270 106 CURVE SMOOTH",
"222 106 LINE SMOOTH",
"180 106 OFFCURVE",
"164 122 OFFCURVE",
"164 164 CURVE SMOOTH",
"164 190 LINE SMOOTH",
"164 206 OFFCURVE",
"157 212 OFFCURVE",
"143 212 CURVE SMOOTH",
"58 212 LINE SMOOTH",
"44 212 OFFCURVE",
"37 206 OFFCURVE",
"37 190 CURVE SMOOTH",
"37 162 LINE SMOOTH",
"37 57 OFFCURVE",
"97 0 OFFCURVE",
"202 0 CURVE SMOOTH",
"291 0 LINE SMOOTH",
"395 0 OFFCURVE",
"456 57 OFFCURVE",
"456 162 CURVE SMOOTH",
"456 213 LINE SMOOTH",
"456 282 OFFCURVE",
"419 313 OFFCURVE",
"377 322 CURVE",
"427 338 OFFCURVE",
"456 375 OFFCURVE",
"456 431 CURVE SMOOTH",
"456 481 LINE SMOOTH",
"456 586 OFFCURVE",
"395 643 OFFCURVE",
"291 643 CURVE SMOOTH",
"202 643 LINE SMOOTH",
"97 643 OFFCURVE",
"37 586 OFFCURVE",
"37 481 CURVE SMOOTH",
"37 454 LINE SMOOTH",
"37 439 OFFCURVE",
"44 433 OFFCURVE",
"58 433 CURVE SMOOTH",
"143 433 LINE SMOOTH",
"157 433 OFFCURVE",
"164 439 OFFCURVE",
"164 454 CURVE SMOOTH",
"164 479 LINE SMOOTH",
"164 521 OFFCURVE",
"180 537 OFFCURVE",
"222 537 CURVE SMOOTH",
"270 537 LINE SMOOTH",
"313 537 OFFCURVE",
"332 521 OFFCURVE",
"332 479 CURVE SMOOTH",
"332 432 LINE SMOOTH",
"332 390 OFFCURVE",
"313 374 OFFCURVE",
"270 374 CURVE SMOOTH"
);
}
);
width = 509;
},
{
layerId = "C14C6A9E-9E56-4950-A507-E7357A5C19D0";
paths = (
{
closed = 1;
nodes = (
"227 338 LINE SMOOTH",
"220 338 OFFCURVE",
"218 335 OFFCURVE",
"218 330 CURVE SMOOTH",
"218 318 LINE SMOOTH",
"218 313 OFFCURVE",
"220 310 OFFCURVE",
"227 310 CURVE SMOOTH",
"289 310 LINE SMOOTH",
"356 310 OFFCURVE",
"393 272 OFFCURVE",
"393 204 CURVE SMOOTH",
"393 134 LINE SMOOTH",
"393 66 OFFCURVE",
"356 28 OFFCURVE",
"289 28 CURVE SMOOTH",
"204 28 LINE SMOOTH",
"137 28 OFFCURVE",
"100 66 OFFCURVE",
"100 134 CURVE SMOOTH",
"100 183 LINE SMOOTH",
"100 190 OFFCURVE",
"97 192 OFFCURVE",
"92 192 CURVE SMOOTH",
"78 192 LINE SMOOTH",
"73 192 OFFCURVE",
"70 190 OFFCURVE",
"70 183 CURVE SMOOTH",
"70 133 LINE SMOOTH",
"70 50 OFFCURVE",
"123 0 OFFCURVE",
"204 0 CURVE SMOOTH",
"289 0 LINE SMOOTH",
"370 0 OFFCURVE",
"423 50 OFFCURVE",
"423 133 CURVE SMOOTH",
"423 205 LINE SMOOTH",
"423 277 OFFCURVE",
"384 312 OFFCURVE",
"339 324 CURVE",
"386 338 OFFCURVE",
"423 371 OFFCURVE",
"423 443 CURVE SMOOTH",
"423 510 LINE SMOOTH",
"423 593 OFFCURVE",
"370 643 OFFCURVE",
"289 643 CURVE SMOOTH",
"204 643 LINE SMOOTH",
"123 643 OFFCURVE",
"70 593 OFFCURVE",
"70 510 CURVE SMOOTH",
"70 471 LINE SMOOTH",
"70 464 OFFCURVE",
"73 462 OFFCURVE",
"78 462 CURVE SMOOTH",
"92 462 LINE SMOOTH",
"97 462 OFFCURVE",
"100 464 OFFCURVE",
"100 471 CURVE SMOOTH",
"100 509 LINE SMOOTH",
"100 577 OFFCURVE",
"137 615 OFFCURVE",
"204 615 CURVE SMOOTH",
"289 615 LINE SMOOTH",
"356 615 OFFCURVE",
"393 577 OFFCURVE",
"393 509 CURVE SMOOTH",
"393 444 LINE SMOOTH",
"393 376 OFFCURVE",
"356 338 OFFCURVE",
"289 338 CURVE SMOOTH"
);
}
);
width = 493;
}
);
unicode = 0033;
},
{
glyphname = four;
layers = (
{
layerId = "B34F63BB-E885-4604-9CD3-F42791F97BAE";
paths = (
{
closed = 1;
nodes = (
"417 0 LINE SMOOTH",
"431 0 OFFCURVE",
"437 4 OFFCURVE",
"437 21 CURVE SMOOTH",
"437 117 LINE",
"509 117 LINE SMOOTH",
"524 117 OFFCURVE",
"529 126 OFFCURVE",
"529 140 CURVE SMOOTH",
"529 207 LINE SMOOTH",
"529 221 OFFCURVE",
"524 227 OFFCURVE",
"509 227 CURVE SMOOTH",
"437 227 LINE",
"437 606 LINE SMOOTH",
"437 629 OFFCURVE",
"421 643 OFFCURVE",
"399 643 CURVE SMOOTH",
"286 643 LINE SMOOTH",
"263 643 OFFCURVE",
"255 636 OFFCURVE",
"242 612 CURVE SMOOTH",
"43 242 LINE SMOOTH",
"36 229 OFFCURVE",
"33 214 OFFCURVE",
"33 193 CURVE SMOOTH",
"33 154 LINE SMOOTH",
"33 131 OFFCURVE",
"48 117 OFFCURVE",
"70 117 CURVE SMOOTH",
"318 117 LINE",
"318 21 LINE SMOOTH",
"318 5 OFFCURVE",
"325 0 OFFCURVE",
"339 0 CURVE SMOOTH"
);
},
{
closed = 1;
nodes = (
"318 536 LINE",
"318 227 LINE",
"156 227 LINE"
);
}
);
width = 541;
},
{
layerId = "C14C6A9E-9E56-4950-A507-E7357A5C19D0";
paths = (
{
closed = 1;
nodes = (
"382 0 LINE SMOOTH",
"387 0 OFFCURVE",
"390 2 OFFCURVE",
"390 9 CURVE SMOOTH",
"390 135 LINE",
"466 135 LINE SMOOTH",
"473 135 OFFCURVE",
"475 138 OFFCURVE",
"475 143 CURVE SMOOTH",
"475 155 LINE SMOOTH",
"475 160 OFFCURVE",
"473 163 OFFCURVE",
"466 163 CURVE SMOOTH",
"390 163 LINE",
"390 634 LINE SMOOTH",
"390 641 OFFCURVE",
"387 643 OFFCURVE",
"382 643 CURVE SMOOTH",
"353 643 LINE SMOOTH",
"343 643 OFFCURVE",
"338 639 OFFCURVE",
"334 632 CURVE SMOOTH",
"56 171 LINE",
"52 165 OFFCURVE",
"50 162 OFFCURVE",
"50 155 CURVE SMOOTH",
"50 143 LINE SMOOTH",
"50 138 OFFCURVE",
"52 135 OFFCURVE",
"59 135 CURVE SMOOTH",
"360 135 LINE",
"360 9 LINE SMOOTH",
"360 2 OFFCURVE",
"363 0 OFFCURVE",
"368 0 CURVE SMOOTH"
);
},
{
closed = 1;
nodes = (
"360 621 LINE",
"360 163 LINE",
"84 163 LINE"
);
}
);
width = 515;
}
);
unicode = 0034;
},
{
glyphname = five;
layers = (
{
layerId = "B34F63BB-E885-4604-9CD3-F42791F97BAE";
paths = (
{
closed = 1;
nodes = (
"273 327 LINE SMOOTH",
"323 327 OFFCURVE",
"339 311 OFFCURVE",
"339 254 CURVE SMOOTH",
"339 164 LINE SMOOTH",
"339 123 OFFCURVE",
"320 106 OFFCURVE",
"277 106 CURVE SMOOTH",
"230 106 LINE SMOOTH",
"188 106 OFFCURVE",
"172 123 OFFCURVE",
"172 164 CURVE SMOOTH",
"172 183 LINE SMOOTH",
"172 199 OFFCURVE",
"165 205 OFFCURVE",
"151 205 CURVE SMOOTH",
"66 205 LINE SMOOTH",
"52 205 OFFCURVE",
"45 199 OFFCURVE",
"45 183 CURVE SMOOTH",
"45 163 LINE SMOOTH",
"45 58 OFFCURVE",
"105 0 OFFCURVE",
"210 0 CURVE SMOOTH",
"298 0 LINE SMOOTH",
"402 0 OFFCURVE",
"462 58 OFFCURVE",
"462 163 CURVE SMOOTH",
"462 273 LINE SMOOTH",
"462 377 OFFCURVE",
"409 428 OFFCURVE",
"307 428 CURVE SMOOTH",
"265 428 LINE SMOOTH",
"222 428 OFFCURVE",
"192 410 OFFCURVE",
"181 378 CURVE",
"181 525 LINE",
"423 525 LINE SMOOTH",
"439 525 OFFCURVE",
"444 532 OFFCURVE",
"444 546 CURVE SMOOTH",
"444 622 LINE SMOOTH",
"444 636 OFFCURVE",
"439 643 OFFCURVE",
"423 643 CURVE SMOOTH",
"75 643 LINE SMOOTH",
"60 643 OFFCURVE",
"54 636 OFFCURVE",
"54 622 CURVE SMOOTH",
"54 305 LINE SMOOTH",
"54 290 OFFCURVE",
"61 285 OFFCURVE",
"75 285 CURVE SMOOTH",
"158 285 LINE SMOOTH",
"191 285 OFFCURVE",
"178 327 OFFCURVE",
"226 327 CURVE SMOOTH"
);
}
);
width = 506;
},
{
layerId = "C14C6A9E-9E56-4950-A507-E7357A5C19D0";
paths = (
{
closed = 1;
nodes = (
"282 371 LINE",
"349 371 OFFCURVE",
"386 333 OFFCURVE",
"386 265 CURVE SMOOTH",
"386 137 LINE SMOOTH",
"386 69 OFFCURVE",
"349 28 OFFCURVE",
"282 28 CURVE SMOOTH",
"204 28 LINE SMOOTH",
"137 28 OFFCURVE",
"100 69 OFFCURVE",
"100 137 CURVE SMOOTH",
"100 176 LINE SMOOTH",
"100 183 OFFCURVE",
"97 185 OFFCURVE",
"92 185 CURVE SMOOTH",
"78 185 LINE SMOOTH",
"73 185 OFFCURVE",
"70 183 OFFCURVE",
"70 176 CURVE SMOOTH",
"70 136 LINE SMOOTH",
"70 53 OFFCURVE",
"123 0 OFFCURVE",
"204 0 CURVE SMOOTH",
"282 0 LINE SMOOTH",
"363 0 OFFCURVE",
"416 53 OFFCURVE",
"416 136 CURVE SMOOTH",
"416 266 LINE SMOOTH",
"416 349 OFFCURVE",
"363 399 OFFCURVE",
"282 399 CURVE SMOOTH",
"186 399 LINE SMOOTH",
"133 399 OFFCURVE",
"109 373 OFFCURVE",
"100 350 CURVE",
"100 615 LINE",
"397 615 LINE SMOOTH",
"404 615 OFFCURVE",
"406 618 OFFCURVE",
"406 623 CURVE SMOOTH",
"406 635 LINE SMOOTH",
"406 640 OFFCURVE",
"404 643 OFFCURVE",
"397 643 CURVE SMOOTH",
"78 643 LINE SMOOTH",
"73 643 OFFCURVE",
"70 641 OFFCURVE",
"70 634 CURVE SMOOTH",
"70 327 LINE SMOOTH",
"70 320 OFFCURVE",
"73 318 OFFCURVE",
"78 318 CURVE SMOOTH",
"96 318 LINE SMOOTH",
"116 318 OFFCURVE",
"108 371 OFFCURVE",
"186 371 CURVE SMOOTH"
);
}
);
width = 476;
}
);
unicode = 0035;
},
{
glyphname = six;
layers = (
{
layerId = "B34F63BB-E885-4604-9CD3-F42791F97BAE";
paths = (
{
closed = 1;
nodes = (
"315 0 LINE SMOOTH",
"420 0 OFFCURVE",
"480 58 OFFCURVE",
"480 163 CURVE SMOOTH",
"480 244 LINE SMOOTH",
"480 349 OFFCURVE",
"420 407 OFFCURVE",
"315 407 CURVE SMOOTH",
"179 407 LINE",
"179 474 LINE SMOOTH",
"179 516 OFFCURVE",
"195 533 OFFCURVE",
"237 533 CURVE SMOOTH",
"421 533 LINE SMOOTH",
"435 533 OFFCURVE",
"442 540 OFFCURVE",
"442 553 CURVE SMOOTH",
"442 622 LINE SMOOTH",
"442 636 OFFCURVE",
"435 643 OFFCURVE",
"421 643 CURVE SMOOTH",
"217 643 LINE SMOOTH",
"112 643 OFFCURVE",
"52 585 OFFCURVE",
"52 480 CURVE SMOOTH",
"52 163 LINE SMOOTH",
"52 58 OFFCURVE",
"112 0 OFFCURVE",
"217 0 CURVE SMOOTH"
);
},
{
closed = 1;
nodes = (
"237 110 LINE SMOOTH",
"194 110 OFFCURVE",
"179 127 OFFCURVE",
"179 169 CURVE SMOOTH",
"179 297 LINE",
"294 297 LINE SMOOTH",
"337 297 OFFCURVE",
"353 280 OFFCURVE",
"353 238 CURVE SMOOTH",
"353 169 LINE SMOOTH",
"353 127 OFFCURVE",
"337 110 OFFCURVE",
"294 110 CURVE SMOOTH"
);
}
);
width = 525;
},
{
layerId = "C14C6A9E-9E56-4950-A507-E7357A5C19D0";
paths = (
{
closed = 1;
nodes = (
"286 0 LINE SMOOTH",
"367 0 OFFCURVE",
"420 53 OFFCURVE",
"420 136 CURVE SMOOTH",
"420 241 LINE SMOOTH",
"420 324 OFFCURVE",
"367 377 OFFCURVE",
"286 377 CURVE SMOOTH",
"90 377 LINE",
"90 506 LINE SMOOTH",
"90 574 OFFCURVE",
"127 615 OFFCURVE",
"194 615 CURVE SMOOTH",
"380 615 LINE SMOOTH",
"387 615 OFFCURVE",
"389 618 OFFCURVE",
"389 623 CURVE SMOOTH",
"389 635 LINE SMOOTH",
"389 640 OFFCURVE",
"387 643 OFFCURVE",
"380 643 CURVE SMOOTH",
"194 643 LINE SMOOTH",
"113 643 OFFCURVE",
"60 590 OFFCURVE",
"60 507 CURVE SMOOTH",
"60 136 LINE SMOOTH",
"60 53 OFFCURVE",
"113 0 OFFCURVE",
"194 0 CURVE SMOOTH"
);
},
{
closed = 1;
nodes = (
"194 28 LINE SMOOTH",
"127 28 OFFCURVE",
"90 69 OFFCURVE",
"90 137 CURVE SMOOTH",
"90 349 LINE",
"286 349 LINE SMOOTH",
"353 349 OFFCURVE",
"390 308 OFFCURVE",
"390 240 CURVE SMOOTH",
"390 137 LINE SMOOTH",
"390 69 OFFCURVE",
"353 28 OFFCURVE",
"286 28 CURVE SMOOTH"
);
}
);
width = 490;
}
);
unicode = 0036;
},
{
glyphname = seven;
layers = (
{
layerId = "B34F63BB-E885-4604-9CD3-F42791F97BAE";
paths = (
{
closed = 1;
nodes = (
"169 0 LINE SMOOTH",
"189 0 OFFCURVE",
"196 3 OFFCURVE",
"203 19 CURVE SMOOTH",
"397 484 LINE SMOOTH",
"404 501 OFFCURVE",
"411 513 OFFCURVE",
"411 538 CURVE SMOOTH",
"411 622 LINE SMOOTH",
"411 636 OFFCURVE",
"405 643 OFFCURVE",
"390 643 CURVE SMOOTH",
"40 643 LINE SMOOTH",
"24 643 OFFCURVE",
"19 636 OFFCURVE",
"19 622 CURVE SMOOTH",
"19 548 LINE SMOOTH",
"19 534 OFFCURVE",
"24 527 OFFCURVE",
"40 527 CURVE SMOOTH",
"275 527 LINE",
"64 21 LINE",
"57 8 OFFCURVE",
"63 0 OFFCURVE",
"75 0 CURVE SMOOTH"
);
}
);
width = 431;
},
{
layerId = "C14C6A9E-9E56-4950-A507-E7357A5C19D0";
paths = (
{
closed = 1;
nodes = (
"109 0 LINE SMOOTH",
"116 0 OFFCURVE",
"121 2 OFFCURVE",
"123 9 CURVE",
"344 611 LINE",
"346 616 OFFCURVE",
"347 619 OFFCURVE",
"347 625 CURVE SMOOTH",
"347 635 LINE SMOOTH",
"347 640 OFFCURVE",
"345 643 OFFCURVE",
"338 643 CURVE SMOOTH",
"24 643 LINE SMOOTH",
"17 643 OFFCURVE",
"15 640 OFFCURVE",
"15 635 CURVE SMOOTH",
"15 623 LINE SMOOTH",
"15 618 OFFCURVE",
"17 615 OFFCURVE",
"24 615 CURVE SMOOTH",
"314 615 LINE",
"93 14 LINE",
"90 7 OFFCURVE",
"91 0 OFFCURVE",
"99 0 CURVE SMOOTH"
);
}
);
width = 367;
}
);
unicode = 0037;
},
{
glyphname = eight;
layers = (
{
layerId = "B34F63BB-E885-4604-9CD3-F42791F97BAE";
paths = (
{
closed = 1;
nodes = (
"324 0 LINE SMOOTH",
"428 0 OFFCURVE",
"488 52 OFFCURVE",
"488 156 CURVE SMOOTH",
"488 201 LINE SMOOTH",
"488 264 OFFCURVE",
"465 306 OFFCURVE",
"423 323 CURVE",
"461 335 OFFCURVE",
"488 381 OFFCURVE",
"488 445 CURVE SMOOTH",
"488 488 LINE SMOOTH",
"488 592 OFFCURVE",
"428 643 OFFCURVE",
"324 643 CURVE SMOOTH",
"218 643 LINE SMOOTH",
"113 643 OFFCURVE",
"53 592 OFFCURVE",
"53 488 CURVE SMOOTH",
"53 445 LINE SMOOTH",
"53 381 OFFCURVE",
"77 340 OFFCURVE",
"119 323 CURVE",
"76 304 OFFCURVE",
"53 265 OFFCURVE",
"53 202 CURVE SMOOTH",
"53 156 LINE SMOOTH",
"53 52 OFFCURVE",
"113 0 OFFCURVE",
"218 0 CURVE SMOOTH"
);
},
{
closed = 1;
nodes = (
"237 373 LINE SMOOTH",
"194 373 OFFCURVE",
"179 393 OFFCURVE",
"179 435 CURVE SMOOTH",
"179 477 LINE SMOOTH",
"179 518 OFFCURVE",
"194 534 OFFCURVE",
"237 534 CURVE SMOOTH",
"305 534 LINE SMOOTH",
"348 534 OFFCURVE",
"363 518 OFFCURVE",
"363 477 CURVE SMOOTH",
"363 435 LINE SMOOTH",
"363 393 OFFCURVE",
"348 373 OFFCURVE",
"305 373 CURVE SMOOTH"
);
},
{
closed = 1;
nodes = (
"237 109 LINE SMOOTH",
"194 109 OFFCURVE",
"179 125 OFFCURVE",
"179 166 CURVE SMOOTH",
"179 212 LINE SMOOTH",
"179 254 OFFCURVE",
"194 274 OFFCURVE",
"237 274 CURVE SMOOTH",
"305 274 LINE SMOOTH",
"348 274 OFFCURVE",
"363 254 OFFCURVE",
"363 212 CURVE SMOOTH",
"363 166 LINE SMOOTH",
"363 125 OFFCURVE",
"348 109 OFFCURVE",
"305 109 CURVE SMOOTH"
);
}
);
width = 542;
},
{
layerId = "C14C6A9E-9E56-4950-A507-E7357A5C19D0";
paths = (
{
closed = 1;
nodes = (
"309 0 LINE SMOOTH",
"390 0 OFFCURVE",
"443 50 OFFCURVE",
"443 133 CURVE SMOOTH",
"443 205 LINE SMOOTH",
"443 265 OFFCURVE",
"415 306 OFFCURVE",
"369 324 CURVE",
"415 342 OFFCURVE",
"443 383 OFFCURVE",
"443 443 CURVE SMOOTH",
"443 510 LINE SMOOTH",
"443 593 OFFCURVE",
"390 643 OFFCURVE",
"309 643 CURVE SMOOTH",
"204 643 LINE SMOOTH",
"123 643 OFFCURVE",
"70 593 OFFCURVE",
"70 510 CURVE SMOOTH",
"70 443 LINE SMOOTH",
"70 383 OFFCURVE",
"98 342 OFFCURVE",
"144 324 CURVE",
"98 306 OFFCURVE",
"70 265 OFFCURVE",
"70 205 CURVE SMOOTH",
"70 133 LINE SMOOTH",
"70 50 OFFCURVE",
"123 0 OFFCURVE",
"204 0 CURVE SMOOTH"
);
},
{
closed = 1;
nodes = (
"204 338 LINE",
"137 338 OFFCURVE",
"100 376 OFFCURVE",
"100 444 CURVE SMOOTH",
"100 509 LINE SMOOTH",
"100 577 OFFCURVE",
"137 615 OFFCURVE",
"204 615 CURVE SMOOTH",
"309 615 LINE SMOOTH",
"376 615 OFFCURVE",
"413 577 OFFCURVE",
"413 509 CURVE SMOOTH",
"413 444 LINE SMOOTH",
"413 376 OFFCURVE",
"376 338 OFFCURVE",
"309 338 CURVE SMOOTH"
);
},
{
closed = 1;
nodes = (
"204 28 LINE",
"137 28 OFFCURVE",
"100 66 OFFCURVE",
"100 134 CURVE SMOOTH",
"100 204 LINE SMOOTH",
"100 272 OFFCURVE",
"137 310 OFFCURVE",
"204 310 CURVE SMOOTH",
"309 310 LINE SMOOTH",
"376 310 OFFCURVE",
"413 272 OFFCURVE",
"413 204 CURVE SMOOTH",
"413 134 LINE SMOOTH",
"413 66 OFFCURVE",
"376 28 OFFCURVE",
"309 28 CURVE SMOOTH"
);
}
);
width = 513;
}
);
unicode = 0038;
},
{
glyphname = nine;
layers = (
{
layerId = "B34F63BB-E885-4604-9CD3-F42791F97BAE";
paths = (
{
closed = 1;
nodes = (
"306 0 LINE SMOOTH",
"411 0 OFFCURVE",
"471 58 OFFCURVE",
"471 163 CURVE SMOOTH",
"471 480 LINE SMOOTH",
"471 585 OFFCURVE",
"411 643 OFFCURVE",
"306 643 CURVE SMOOTH",
"208 643 LINE SMOOTH",
"103 643 OFFCURVE",
"43 585 OFFCURVE",
"43 480 CURVE SMOOTH",
"43 391 LINE SMOOTH",
"43 287 OFFCURVE",
"103 229 OFFCURVE",
"208 229 CURVE SMOOTH",
"344 229 LINE",
"344 169 LINE SMOOTH",
"344 127 OFFCURVE",
"329 110 OFFCURVE",
"286 110 CURVE SMOOTH",
"95 110 LINE SMOOTH",
"80 110 OFFCURVE",
"73 103 OFFCURVE",
"73 90 CURVE SMOOTH",
"73 21 LINE SMOOTH",
"73 7 OFFCURVE",
"80 0 OFFCURVE",
"95 0 CURVE SMOOTH"
);
},
{
closed = 1;
nodes = (
"229 339 LINE SMOOTH",
"186 339 OFFCURVE",
"171 356 OFFCURVE",
"171 397 CURVE SMOOTH",
"171 474 LINE SMOOTH",
"171 516 OFFCURVE",
"186 533 OFFCURVE",
"229 533 CURVE SMOOTH",
"286 533 LINE SMOOTH",
"329 533 OFFCURVE",
"345 516 OFFCURVE",
"345 474 CURVE SMOOTH",
"345 339 LINE"
);
}
);
width = 525;
},
{
layerId = "C14C6A9E-9E56-4950-A507-E7357A5C19D0";
paths = (
{
closed = 1;
nodes = (
"286 0 LINE SMOOTH",
"367 0 OFFCURVE",
"420 53 OFFCURVE",
"420 136 CURVE SMOOTH",
"420 507 LINE SMOOTH",
"420 590 OFFCURVE",
"367 643 OFFCURVE",
"286 643 CURVE SMOOTH",
"194 643 LINE SMOOTH",
"113 643 OFFCURVE",
"60 590 OFFCURVE",
"60 507 CURVE SMOOTH",
"60 402 LINE SMOOTH",
"60 319 OFFCURVE",
"113 266 OFFCURVE",
"194 266 CURVE SMOOTH",
"390 266 LINE",
"390 137 LINE SMOOTH",
"390 69 OFFCURVE",
"353 28 OFFCURVE",
"286 28 CURVE SMOOTH",
"100 28 LINE SMOOTH",
"93 28 OFFCURVE",
"91 25 OFFCURVE",
"91 20 CURVE SMOOTH",
"91 8 LINE SMOOTH",
"91 3 OFFCURVE",
"93 0 OFFCURVE",
"100 0 CURVE SMOOTH"
);
},
{
closed = 1;
nodes = (
"194 294 LINE SMOOTH",
"127 294 OFFCURVE",
"90 335 OFFCURVE",
"90 403 CURVE SMOOTH",
"90 506 LINE SMOOTH",
"90 574 OFFCURVE",
"127 615 OFFCURVE",
"194 615 CURVE SMOOTH",
"286 615 LINE SMOOTH",
"353 615 OFFCURVE",
"390 574 OFFCURVE",
"390 506 CURVE SMOOTH",
"390 294 LINE"
);
}
);
width = 490;
}
);
unicode = 0039;
},
{
glyphname = colon;
layers = (
{
layerId = "B34F63BB-E885-4604-9CD3-F42791F97BAE";
paths = (
{
closed = 1;
nodes = (
"166 144 LINE SMOOTH",
"166 157 OFFCURVE",
"159 163 OFFCURVE",
"147 163 CURVE SMOOTH",
"58 163 LINE SMOOTH",
"44 163 OFFCURVE",
"38 157 OFFCURVE",
"38 143 CURVE SMOOTH",
"38 22 LINE SMOOTH",
"38 9 OFFCURVE",
"44 0 OFFCURVE",
"58 0 CURVE SMOOTH",
"147 0 LINE SMOOTH",
"160 0 OFFCURVE",
"166 7 OFFCURVE",
"166 21 CURVE SMOOTH"
);
},
{
closed = 1;
nodes = (
"166 491 LINE SMOOTH",
"166 505 OFFCURVE",
"159 510 OFFCURVE",
"147 510 CURVE SMOOTH",
"58 510 LINE SMOOTH",
"44 510 OFFCURVE",
"38 504 OFFCURVE",
"38 490 CURVE SMOOTH",
"38 370 LINE SMOOTH",
"38 356 OFFCURVE",
"44 347 OFFCURVE",
"58 347 CURVE SMOOTH",
"147 347 LINE SMOOTH",
"160 347 OFFCURVE",
"166 354 OFFCURVE",
"166 368 CURVE SMOOTH"
);
}
);
width = 204;
},
{
layerId = "C14C6A9E-9E56-4950-A507-E7357A5C19D0";
paths = (
{
closed = 1;
nodes = (
"112 128 LINE SMOOTH",
"112 135 OFFCURVE",
"109 137 OFFCURVE",
"104 137 CURVE SMOOTH",
"83 137 LINE SMOOTH",
"78 137 OFFCURVE",
"75 135 OFFCURVE",
"75 128 CURVE SMOOTH",
"75 9 LINE SMOOTH",
"75 2 OFFCURVE",
"78 0 OFFCURVE",
"83 0 CURVE SMOOTH",
"104 0 LINE SMOOTH",
"109 0 OFFCURVE",
"112 2 OFFCURVE",
"112 9 CURVE SMOOTH"
);
},
{
closed = 1;
nodes = (
"112 501 LINE SMOOTH",
"112 508 OFFCURVE",
"109 510 OFFCURVE",
"104 510 CURVE SMOOTH",
"83 510 LINE SMOOTH",
"78 510 OFFCURVE",
"75 508 OFFCURVE",
"75 501 CURVE SMOOTH",
"75 382 LINE SMOOTH",
"75 375 OFFCURVE",
"78 373 OFFCURVE",
"83 373 CURVE SMOOTH",
"104 373 LINE SMOOTH",
"109 373 OFFCURVE",
"112 375 OFFCURVE",
"112 382 CURVE SMOOTH"
);
}
);
width = 187;
}
);
unicode = 003A;
},
{
glyphname = semicolon;
layers = (
{
layerId = "B34F63BB-E885-4604-9CD3-F42791F97BAE";
paths = (
{
closed = 1;
nodes = (
"166 491 LINE SMOOTH",
"166 505 OFFCURVE",
"159 510 OFFCURVE",
"147 510 CURVE SMOOTH",
"58 510 LINE SMOOTH",
"44 510 OFFCURVE",
"38 504 OFFCURVE",
"38 490 CURVE SMOOTH",
"38 370 LINE SMOOTH",
"38 356 OFFCURVE",
"44 347 OFFCURVE",
"58 347 CURVE SMOOTH",
"147 347 LINE SMOOTH",
"160 347 OFFCURVE",
"166 354 OFFCURVE",
"166 368 CURVE SMOOTH"
);
},
{
closed = 1;
nodes = (
"166 144 LINE SMOOTH",
"166 157 OFFCURVE",
"159 163 OFFCURVE",
"147 163 CURVE SMOOTH",
"58 163 LINE SMOOTH",
"44 163 OFFCURVE",
"38 157 OFFCURVE",
"38 143 CURVE SMOOTH",
"38 -87 LINE SMOOTH",
"38 -102 OFFCURVE",
"46 -107 OFFCURVE",
"55 -107 CURVE SMOOTH",
"63 -107 OFFCURVE",
"70 -103 OFFCURVE",
"74 -97 CURVE SMOOTH",
"143 4 LINE SMOOTH",
"158 27 OFFCURVE",
"166 44 OFFCURVE",
"166 66 CURVE SMOOTH"
);
}
);
width = 204;
},
{
layerId = "C14C6A9E-9E56-4950-A507-E7357A5C19D0";
paths = (
{
closed = 1;
nodes = (
"112 501 LINE SMOOTH",
"112 508 OFFCURVE",
"109 510 OFFCURVE",
"104 510 CURVE SMOOTH",
"83 510 LINE SMOOTH",
"78 510 OFFCURVE",
"75 508 OFFCURVE",
"75 501 CURVE SMOOTH",
"75 382 LINE SMOOTH",
"75 375 OFFCURVE",
"78 373 OFFCURVE",
"83 373 CURVE SMOOTH",
"104 373 LINE SMOOTH",
"109 373 OFFCURVE",
"112 375 OFFCURVE",
"112 382 CURVE SMOOTH"
);
},
{
closed = 1;
nodes = (
"112 128 LINE SMOOTH",
"112 135 OFFCURVE",
"109 137 OFFCURVE",
"104 137 CURVE SMOOTH",
"83 137 LINE SMOOTH",
"78 137 OFFCURVE",
"75 135 OFFCURVE",
"75 128 CURVE SMOOTH",
"75 -95 LINE SMOOTH",
"75 -100 OFFCURVE",
"78 -101 OFFCURVE",
"80 -101 CURVE",
"83 -101 OFFCURVE",
"85 -99 OFFCURVE",
"86 -95 CURVE",
"104 -6 LINE SMOOTH",
"109 18 OFFCURVE",
"112 32 OFFCURVE",
"112 49 CURVE SMOOTH"
);
}
);
width = 187;
}
);
unicode = 003B;
},
{
glyphname = less;
layers = (
{
layerId = "B34F63BB-E885-4604-9CD3-F42791F97BAE";
paths = (
{
closed = 1;
nodes = (
"494 501 LINE SMOOTH",
"494 516 OFFCURVE",
"486 521 OFFCURVE",
"470 515 CURVE",
"96 394 LINE SMOOTH",
"77 388 OFFCURVE",
"69 376 OFFCURVE",
"69 354 CURVE SMOOTH",
"69 300 LINE SMOOTH",
"69 279 OFFCURVE",
"77 266 OFFCURVE",
"96 260 CURVE SMOOTH",
"470 139 LINE SMOOTH",
"486 134 OFFCURVE",
"494 139 OFFCURVE",
"494 154 CURVE SMOOTH",
"494 219 LINE SMOOTH",
"494 236 OFFCURVE",
"491 245 OFFCURVE",
"475 248 CURVE",
"174 327 LINE",
"475 406 LINE SMOOTH",
"491 410 OFFCURVE",
"494 419 OFFCURVE",
"494 435 CURVE SMOOTH"
);
}
);
width = 563;
},
{
layerId = "C14C6A9E-9E56-4950-A507-E7357A5C19D0";
paths = (
{
closed = 1;
nodes = (
"436 475 LINE SMOOTH",
"436 481 OFFCURVE",
"433 484 OFFCURVE",
"425 481 CURVE SMOOTH",
"73 342 LINE",
"66 339 OFFCURVE",
"64 336 OFFCURVE",
"64 331 CURVE SMOOTH",
"64 311 LINE SMOOTH",
"64 306 OFFCURVE",
"66 303 OFFCURVE",
"73 300 CURVE",
"425 161 LINE SMOOTH",
"433 158 OFFCURVE",
"436 161 OFFCURVE",
"436 167 CURVE SMOOTH",
"436 181 LINE SMOOTH",
"436 186 OFFCURVE",
"435 189 OFFCURVE",
"429 191 CURVE",
"92 321 LINE",
"429 451 LINE",
"435 453 OFFCURVE",
"436 456 OFFCURVE",
"436 461 CURVE SMOOTH"
);
}
);
width = 500;
}
);
unicode = 003C;
},
{
glyphname = equal;
layers = (
{
layerId = "B34F63BB-E885-4604-9CD3-F42791F97BAE";
paths = (
{
closed = 1;
nodes = (
"94 274 LINE SMOOTH",
"76 274 OFFCURVE",
"71 267 OFFCURVE",
"71 250 CURVE SMOOTH",
"71 196 LINE SMOOTH",
"71 179 OFFCURVE",
"76 172 OFFCURVE",
"94 172 CURVE SMOOTH",
"473 172 LINE SMOOTH",
"491 172 OFFCURVE",
"496 179 OFFCURVE",
"496 196 CURVE SMOOTH",
"496 250 LINE SMOOTH",
"496 267 OFFCURVE",
"491 274 OFFCURVE",
"473 274 CURVE SMOOTH"
);
},
{
closed = 1;
nodes = (
"94 471 LINE SMOOTH",
"76 471 OFFCURVE",
"71 464 OFFCURVE",
"71 447 CURVE SMOOTH",
"71 393 LINE SMOOTH",
"71 376 OFFCURVE",
"76 369 OFFCURVE",
"94 369 CURVE SMOOTH",
"473 369 LINE SMOOTH",
"491 369 OFFCURVE",
"496 376 OFFCURVE",
"496 393 CURVE SMOOTH",
"496 447 LINE SMOOTH",
"496 464 OFFCURVE",
"491 471 OFFCURVE",
"473 471 CURVE SMOOTH"
);
}
);
width = 567;
},
{
layerId = "C14C6A9E-9E56-4950-A507-E7357A5C19D0";
paths = (
{
closed = 1;
nodes = (
"84 248 LINE SMOOTH",
"77 248 OFFCURVE",
"75 245 OFFCURVE",
"75 240 CURVE SMOOTH",
"75 228 LINE SMOOTH",
"75 223 OFFCURVE",
"77 220 OFFCURVE",
"84 220 CURVE SMOOTH",
"438 220 LINE SMOOTH",
"445 220 OFFCURVE",
"447 223 OFFCURVE",
"447 228 CURVE SMOOTH",
"447 240 LINE SMOOTH",
"447 245 OFFCURVE",
"445 248 OFFCURVE",
"438 248 CURVE SMOOTH"
);
},
{
closed = 1;
nodes = (
"84 422 LINE SMOOTH",
"77 422 OFFCURVE",
"75 419 OFFCURVE",
"75 414 CURVE SMOOTH",
"75 402 LINE SMOOTH",
"75 397 OFFCURVE",
"77 394 OFFCURVE",
"84 394 CURVE SMOOTH",
"438 394 LINE SMOOTH",
"445 394 OFFCURVE",
"447 397 OFFCURVE",
"447 402 CURVE SMOOTH",
"447 414 LINE SMOOTH",
"447 419 OFFCURVE",
"445 422 OFFCURVE",
"438 422 CURVE SMOOTH"
);
}
);
width = 522;
}
);
unicode = 003D;
},
{
glyphname = greater;
layers = (
{
layerId = "B34F63BB-E885-4604-9CD3-F42791F97BAE";
paths = (
{
closed = 1;
nodes = (
"71 435 LINE SMOOTH",
"71 419 OFFCURVE",
"74 410 OFFCURVE",
"90 406 CURVE SMOOTH",
"391 327 LINE",
"90 248 LINE",
"74 245 OFFCURVE",
"71 236 OFFCURVE",
"71 219 CURVE SMOOTH",
"71 154 LINE SMOOTH",
"71 139 OFFCURVE",
"79 134 OFFCURVE",
"95 139 CURVE SMOOTH",
"469 260 LINE SMOOTH",
"488 266 OFFCURVE",
"496 279 OFFCURVE",
"496 300 CURVE SMOOTH",
"496 354 LINE SMOOTH",
"496 376 OFFCURVE",
"488 388 OFFCURVE",
"469 394 CURVE SMOOTH",
"95 515 LINE",
"79 521 OFFCURVE",
"71 516 OFFCURVE",
"71 501 CURVE SMOOTH"
);
}
);
width = 567;
},
{
layerId = "C14C6A9E-9E56-4950-A507-E7357A5C19D0";
paths = (
{
closed = 1;
nodes = (
"75 461 LINE SMOOTH",
"75 456 OFFCURVE",
"76 453 OFFCURVE",
"82 451 CURVE",
"419 321 LINE",
"82 191 LINE",
"76 189 OFFCURVE",
"75 186 OFFCURVE",
"75 181 CURVE SMOOTH",
"75 167 LINE SMOOTH",
"75 161 OFFCURVE",
"78 158 OFFCURVE",
"86 161 CURVE SMOOTH",
"438 300 LINE",
"445 303 OFFCURVE",
"447 306 OFFCURVE",
"447 311 CURVE SMOOTH",
"447 331 LINE SMOOTH",
"447 336 OFFCURVE",
"445 339 OFFCURVE",
"438 342 CURVE",
"86 481 LINE SMOOTH",
"78 484 OFFCURVE",
"75 481 OFFCURVE",
"75 475 CURVE SMOOTH"
);
}
);
width = 522;
}
);
unicode = 003E;
},
{
glyphname = question;
layers = (
{
layerId = "B34F63BB-E885-4604-9CD3-F42791F97BAE";
paths = (
{
closed = 1;
nodes = (
"288 275 LINE SMOOTH",
"288 292 OFFCURVE",
"293 304 OFFCURVE",
"314 323 CURVE",
"382 378 LINE",
"410 402 OFFCURVE",
"427 433 OFFCURVE",
"427 466 CURVE SMOOTH",
"427 480 LINE SMOOTH",
"427 585 OFFCURVE",
"366 642 OFFCURVE",
"262 642 CURVE SMOOTH",
"203 642 LINE SMOOTH",
"98 642 OFFCURVE",
"38 585 OFFCURVE",
"38 480 CURVE SMOOTH",
"38 457 LINE SMOOTH",
"38 442 OFFCURVE",
"45 435 OFFCURVE",
"59 435 CURVE SMOOTH",
"144 435 LINE SMOOTH",
"158 435 OFFCURVE",
"165 442 OFFCURVE",
"165 457 CURVE SMOOTH",
"165 478 LINE SMOOTH",
"165 520 OFFCURVE",
"181 536 OFFCURVE",
"223 536 CURVE SMOOTH",
"241 536 LINE SMOOTH",
"284 536 OFFCURVE",
"303 520 OFFCURVE",
"303 478 CURVE SMOOTH",
"303 472 LINE SMOOTH",
"303 450 OFFCURVE",
"293 434 OFFCURVE",
"271 417 CURVE",
"215 371 LINE SMOOTH",
"181 344 OFFCURVE",
"167 321 OFFCURVE",
"167 276 CURVE SMOOTH",
"167 249 LINE SMOOTH",
"167 234 OFFCURVE",
"174 228 OFFCURVE",
"188 228 CURVE SMOOTH",
"267 228 LINE SMOOTH",
"281 228 OFFCURVE",
"288 234 OFFCURVE",
"288 249 CURVE SMOOTH"
);
},
{
closed = 1;
nodes = (
"289 144 LINE SMOOTH",
"289 157 OFFCURVE",
"282 163 OFFCURVE",
"270 163 CURVE SMOOTH",
"181 163 LINE SMOOTH",
"167 163 OFFCURVE",
"161 157 OFFCURVE",
"161 143 CURVE SMOOTH",
"161 22 LINE SMOOTH",
"161 9 OFFCURVE",
"167 0 OFFCURVE",
"181 0 CURVE SMOOTH",
"270 0 LINE SMOOTH",
"283 0 OFFCURVE",
"289 7 OFFCURVE",
"289 21 CURVE SMOOTH"
);
}
);
width = 466;
},
{
layerId = "C14C6A9E-9E56-4950-A507-E7357A5C19D0";
paths = (
{
closed = 1;
nodes = (
"263 251 LINE SMOOTH",
"263 292 OFFCURVE",
"264 309 OFFCURVE",
"307 345 CURVE SMOOTH",
"347 379 LINE SMOOTH",
"378 405 OFFCURVE",
"395 431 OFFCURVE",
"395 474 CURVE SMOOTH",
"395 509 LINE SMOOTH",
"395 592 OFFCURVE",
"342 642 OFFCURVE",
"261 642 CURVE SMOOTH",
"214 642 LINE SMOOTH",
"133 642 OFFCURVE",
"80 592 OFFCURVE",
"80 509 CURVE SMOOTH",
"80 461 LINE SMOOTH",
"80 454 OFFCURVE",
"83 452 OFFCURVE",
"88 452 CURVE SMOOTH",
"102 452 LINE SMOOTH",
"107 452 OFFCURVE",
"110 454 OFFCURVE",
"110 461 CURVE SMOOTH",
"110 508 LINE SMOOTH",
"110 576 OFFCURVE",
"147 614 OFFCURVE",
"214 614 CURVE SMOOTH",
"261 614 LINE SMOOTH",
"328 614 OFFCURVE",
"365 576 OFFCURVE",
"365 508 CURVE SMOOTH",
"365 475 LINE SMOOTH",
"365 442 OFFCURVE",
"352 420 OFFCURVE",
"324 396 CURVE SMOOTH",
"293 368 LINE SMOOTH",
"245 326 OFFCURVE",
"233 306 OFFCURVE",
"233 247 CURVE SMOOTH",
"233 212 LINE SMOOTH",
"233 205 OFFCURVE",
"236 203 OFFCURVE",
"241 203 CURVE SMOOTH",
"255 203 LINE SMOOTH",
"260 203 OFFCURVE",
"263 205 OFFCURVE",
"263 212 CURVE SMOOTH"
);
},
{
closed = 1;
nodes = (
"266 128 LINE SMOOTH",
"266 135 OFFCURVE",
"263 137 OFFCURVE",
"258 137 CURVE SMOOTH",
"237 137 LINE SMOOTH",
"232 137 OFFCURVE",
"229 135 OFFCURVE",
"229 128 CURVE SMOOTH",
"229 9 LINE SMOOTH",
"229 2 OFFCURVE",
"232 0 OFFCURVE",
"237 0 CURVE SMOOTH",
"258 0 LINE SMOOTH",
"263 0 OFFCURVE",
"266 2 OFFCURVE",
"266 9 CURVE SMOOTH"
);
}
);
width = 475;
}
);
unicode = 003F;
},
{
glyphname = at;
layers = (
{
layerId = "B34F63BB-E885-4604-9CD3-F42791F97BAE";
paths = (
{
closed = 1;
nodes = (
"491 -58 LINE SMOOTH",
"507 -58 OFFCURVE",
"512 -51 OFFCURVE",
"512 -37 CURVE SMOOTH",
"512 -7 LINE SMOOTH",
"512 7 OFFCURVE",
"507 14 OFFCURVE",
"491 14 CURVE SMOOTH",
"311 14 LINE SMOOTH",
"202 14 OFFCURVE",
"129 78 OFFCURVE",
"129 192 CURVE SMOOTH",
"129 353 LINE SMOOTH",
"129 467 OFFCURVE",
"193 531 OFFCURVE",
"302 531 CURVE SMOOTH",
"491 531 LINE SMOOTH",
"564 531 OFFCURVE",
"625 493 OFFCURVE",
"625 414 CURVE SMOOTH",
"625 224 LINE SMOOTH",
"625 176 OFFCURVE",
"602 157 OFFCURVE",
"558 157 CURVE",
"562 157 LINE",
"554 157 OFFCURVE",
"542 160 OFFCURVE",
"542 169 CURVE SMOOTH",
"542 439 LINE SMOOTH",
"542 455 OFFCURVE",
"535 460 OFFCURVE",
"520 460 CURVE SMOOTH",
"347 460 LINE SMOOTH",
"260 460 OFFCURVE",
"199 402 OFFCURVE",
"199 297 CURVE SMOOTH",
"199 238 LINE SMOOTH",
"199 133 OFFCURVE",
"260 83 OFFCURVE",
"337 83 CURVE SMOOTH",
"374 83 OFFCURVE",
"418 96 OFFCURVE",
"436 138 CURVE",
"440 138 LINE",
"440 136 OFFCURVE",
"440 135 OFFCURVE",
"440 134 CURVE",
"440 98 OFFCURVE",
"473 83 OFFCURVE",
"506 83 CURVE SMOOTH",
"564 83 LINE SMOOTH",
"641 83 OFFCURVE",
"698 137 OFFCURVE",
"698 215 CURVE SMOOTH",
"698 421 LINE SMOOTH",
"698 525 OFFCURVE",
"616 603 OFFCURVE",
"499 603 CURVE SMOOTH",
"294 603 LINE SMOOTH",
"154 603 OFFCURVE",
"57 494 OFFCURVE",
"57 361 CURVE SMOOTH",
"57 178 LINE SMOOTH",
"57 36 OFFCURVE",
"164 -58 OFFCURVE",
"312 -58 CURVE SMOOTH"
);
},
{
closed = 1;
nodes = (
"440 253 LINE SMOOTH",
"440 209 OFFCURVE",
"426 177 OFFCURVE",
"371 177 CURVE",
"370 177 OFFCURVE",
"369 177 OFFCURVE",
"368 177 CURVE",
"325 177 OFFCURVE",
"310 194 OFFCURVE",
"310 235 CURVE SMOOTH",
"310 306 LINE SMOOTH",
"310 348 OFFCURVE",
"325 365 OFFCURVE",
"368 365 CURVE SMOOTH",
"428 365 LINE SMOOTH",
"436 365 OFFCURVE",
"440 362 OFFCURVE",
"440 353 CURVE SMOOTH"
);
}
);
width = 746;
},
{
layerId = "C14C6A9E-9E56-4950-A507-E7357A5C19D0";
paths = (
{
closed = 1;
nodes = (
"521 -58 LINE SMOOTH",
"528 -58 OFFCURVE",
"530 -55 OFFCURVE",
"530 -50 CURVE SMOOTH",
"530 -38 LINE SMOOTH",
"530 -33 OFFCURVE",
"528 -30 OFFCURVE",
"521 -30 CURVE SMOOTH",
"337 -30 LINE SMOOTH",
"226 -30 OFFCURVE",
"120 58 OFFCURVE",
"120 196 CURVE SMOOTH",
"120 349 LINE SMOOTH",
"120 487 OFFCURVE",
"226 575 OFFCURVE",
"337 575 CURVE SMOOTH",
"531 575 LINE SMOOTH",
"598 575 OFFCURVE",
"635 534 OFFCURVE",
"635 466 CURVE SMOOTH",
"635 220 LINE SMOOTH",
"635 152 OFFCURVE",
"598 111 OFFCURVE",
"531 111 CURVE SMOOTH",
"519 111 LINE SMOOTH",
"512 111 OFFCURVE",
"510 114 OFFCURVE",
"510 119 CURVE SMOOTH",
"510 451 LINE SMOOTH",
"510 458 OFFCURVE",
"507 460 OFFCURVE",
"502 460 CURVE SMOOTH",
"368 460 LINE SMOOTH",
"287 460 OFFCURVE",
"234 407 OFFCURVE",
"234 324 CURVE SMOOTH",
"234 221 LINE SMOOTH",
"234 138 OFFCURVE",
"287 85 OFFCURVE",
"368 85 CURVE SMOOTH",
"407 85 OFFCURVE",
"453 95 OFFCURVE",
"476 137 CURVE",
"480 137 LINE",
"480 129 OFFCURVE",
"480 120 OFFCURVE",
"480 112 CURVE SMOOTH",
"480 95 OFFCURVE",
"493 83 OFFCURVE",
"508 83 CURVE SMOOTH",
"531 83 LINE SMOOTH",
"612 83 OFFCURVE",
"665 136 OFFCURVE",
"665 219 CURVE SMOOTH",
"665 467 LINE SMOOTH",
"665 550 OFFCURVE",
"612 603 OFFCURVE",
"531 603 CURVE SMOOTH",
"339 603 LINE SMOOTH",
"219 603 OFFCURVE",
"90 516 OFFCURVE",
"90 348 CURVE SMOOTH",
"90 197 LINE SMOOTH",
"90 29 OFFCURVE",
"219 -58 OFFCURVE",
"339 -58 CURVE SMOOTH"
);
},
{
closed = 1;
nodes = (
"480 217 LINE",
"480 148 OFFCURVE",
"434 113 OFFCURVE",
"369 113 CURVE",
"369 113 OFFCURVE",
"368 113 OFFCURVE",
"368 113 CURVE",
"301 113 OFFCURVE",
"264 154 OFFCURVE",
"264 222 CURVE SMOOTH",
"264 323 LINE SMOOTH",
"264 391 OFFCURVE",
"301 432 OFFCURVE",
"368 432 CURVE SMOOTH",
"471 432 LINE SMOOTH",
"478 432 OFFCURVE",
"480 429 OFFCURVE",
"480 424 CURVE SMOOTH"
);
}
);
width = 755;
}
);
unicode = 0040;
},
{
glyphname = A;
layers = (
{
layerId = "B34F63BB-E885-4604-9CD3-F42791F97BAE";
paths = (
{
closed = 1;
nodes = (
"277 522 LINE",
"281 522 LINE",
"353 233 LINE",
"205 233 LINE"
);
},
{
closed = 1;
nodes = (
"132 0 LINE SMOOTH",
"146 0 OFFCURVE",
"150 5 OFFCURVE",
"153 21 CURVE",
"181 131 LINE",
"376 131 LINE",
"404 21 LINE",
"406 5 OFFCURVE",
"411 0 OFFCURVE",
"425 0 CURVE SMOOTH",
"521 0 LINE SMOOTH",
"535 0 OFFCURVE",
"537 6 OFFCURVE",
"533 21 CURVE SMOOTH",
"375 622 LINE SMOOTH",
"371 638 OFFCURVE",
"361 643 OFFCURVE",
"345 643 CURVE SMOOTH",
"212 643 LINE SMOOTH",
"196 643 OFFCURVE",
"187 638 OFFCURVE",
"182 622 CURVE",
"24 21 LINE SMOOTH",
"20 6 OFFCURVE",
"22 0 OFFCURVE",
"36 0 CURVE SMOOTH"
);
}
);
width = 557;
},
{
layerId = "C14C6A9E-9E56-4950-A507-E7357A5C19D0";
paths = (
{
closed = 1;
nodes = (
"261 605 LINE",
"265 605 LINE",
"392 213 LINE",
"134 213 LINE"
);
},
{
closed = 1;
nodes = (
"51 0 LINE",
"56 0 OFFCURVE",
"59 2 OFFCURVE",
"62 9 CURVE SMOOTH",
"123 183 LINE",
"403 183 LINE",
"464 9 LINE SMOOTH",
"466 2 OFFCURVE",
"469 0 OFFCURVE",
"474 0 CURVE SMOOTH",
"489 0 LINE SMOOTH",
"494 0 OFFCURVE",
"497 2 OFFCURVE",
"495 9 CURVE SMOOTH",
"285 634 LINE SMOOTH",
"283 641 OFFCURVE",
"280 643 OFFCURVE",
"275 643 CURVE SMOOTH",
"251 643 LINE SMOOTH",
"246 643 OFFCURVE",
"243 641 OFFCURVE",
"241 634 CURVE SMOOTH",
"31 9 LINE SMOOTH",
"29 2 OFFCURVE",
"32 0 OFFCURVE",
"37 0 CURVE SMOOTH"
);
}
);
width = 526;
}
);
unicode = 0041;
},
{
glyphname = B;
layers = (
{
layerId = "B34F63BB-E885-4604-9CD3-F42791F97BAE";
paths = (
{
closed = 1;
nodes = (
"65 21 LINE SMOOTH",
"65 5 OFFCURVE",
"72 0 OFFCURVE",
"86 0 CURVE SMOOTH",
"336 0 LINE SMOOTH",
"440 0 OFFCURVE",
"500 57 OFFCURVE",
"500 162 CURVE SMOOTH",
"500 222 LINE SMOOTH",
"500 290 OFFCURVE",
"462 323 OFFCURVE",
"412 330 CURVE",
"462 346 OFFCURVE",
"491 384 OFFCURVE",
"491 440 CURVE SMOOTH",
"491 481 LINE SMOOTH",
"491 586 OFFCURVE",
"431 643 OFFCURVE",
"326 643 CURVE SMOOTH",
"86 643 LINE SMOOTH",
"72 643 OFFCURVE",
"65 638 OFFCURVE",
"65 622 CURVE SMOOTH"
);
},
{
closed = 1;
nodes = (
"203 382 LINE SMOOTH",
"196 382 OFFCURVE",
"192 385 OFFCURVE",
"192 393 CURVE SMOOTH",
"192 526 LINE SMOOTH",
"192 534 OFFCURVE",
"196 537 OFFCURVE",
"203 537 CURVE SMOOTH",
"306 537 LINE SMOOTH",
"348 537 OFFCURVE",
"367 521 OFFCURVE",
"367 479 CURVE SMOOTH",
"367 440 LINE SMOOTH",
"367 399 OFFCURVE",
"348 382 OFFCURVE",
"305 382 CURVE SMOOTH"
);
},
{
closed = 1;
nodes = (
"203 106 LINE SMOOTH",
"196 106 OFFCURVE",
"192 109 OFFCURVE",
"192 117 CURVE SMOOTH",
"192 268 LINE SMOOTH",
"192 276 OFFCURVE",
"196 279 OFFCURVE",
"203 279 CURVE SMOOTH",
"313 279 LINE SMOOTH",
"358 279 OFFCURVE",
"377 263 OFFCURVE",
"377 222 CURVE SMOOTH",
"377 164 LINE SMOOTH",
"377 122 OFFCURVE",
"358 106 OFFCURVE",
"315 106 CURVE SMOOTH"
);
}
);
width = 555;
},
{
layerId = "C14C6A9E-9E56-4950-A507-E7357A5C19D0";
paths = (
{
closed = 1;
nodes = (
"90 9 LINE",
"90 2 OFFCURVE",
"93 0 OFFCURVE",
"98 0 CURVE SMOOTH",
"335 0 LINE SMOOTH",
"416 0 OFFCURVE",
"469 50 OFFCURVE",
"469 133 CURVE SMOOTH",
"469 206 LINE SMOOTH",
"469 278 OFFCURVE",
"420 323 OFFCURVE",
"375 325 CURVE",
"422 339 OFFCURVE",
"463 372 OFFCURVE",
"463 444 CURVE SMOOTH",
"463 510 LINE SMOOTH",
"463 593 OFFCURVE",
"410 643 OFFCURVE",
"329 643 CURVE SMOOTH",
"98 643 LINE SMOOTH",
"93 643 OFFCURVE",
"90 641 OFFCURVE",
"90 634 CURVE SMOOTH"
);
},
{
closed = 1;
nodes = (
"129 339 LINE SMOOTH",
"122 339 OFFCURVE",
"120 342 OFFCURVE",
"120 347 CURVE SMOOTH",
"120 607 LINE SMOOTH",
"120 612 OFFCURVE",
"122 615 OFFCURVE",
"129 615 CURVE SMOOTH",
"329 615 LINE SMOOTH",
"396 615 OFFCURVE",
"433 577 OFFCURVE",
"433 509 CURVE SMOOTH",
"433 445 LINE SMOOTH",
"433 377 OFFCURVE",
"392 339 OFFCURVE",
"325 339 CURVE SMOOTH"
);
},
{
closed = 1;
nodes = (
"129 28 LINE SMOOTH",
"122 28 OFFCURVE",
"120 31 OFFCURVE",
"120 36 CURVE SMOOTH",
"120 303 LINE SMOOTH",
"120 308 OFFCURVE",
"122 311 OFFCURVE",
"129 311 CURVE SMOOTH",
"325 311 LINE SMOOTH",
"402 311 OFFCURVE",
"439 273 OFFCURVE",
"439 205 CURVE SMOOTH",
"439 134 LINE SMOOTH",
"439 66 OFFCURVE",
"402 28 OFFCURVE",
"335 28 CURVE SMOOTH"
);
}
);
width = 544;
}
);
unicode = 0042;
},
{
glyphname = C;
layers = (
{
layerId = "B34F63BB-E885-4604-9CD3-F42791F97BAE";
paths = (
{
closed = 1;
nodes = (
"329 0 LINE SMOOTH",
"433 0 OFFCURVE",
"494 58 OFFCURVE",
"494 163 CURVE SMOOTH",
"494 166 OFFCURVE",
"494 210 OFFCURVE",
"494 210 CURVE",
"494 225 OFFCURVE",
"487 232 OFFCURVE",
"472 232 CURVE SMOOTH",
"388 232 LINE SMOOTH",
"374 232 OFFCURVE",
"367 225 OFFCURVE",
"367 210 CURVE",
"367 210 OFFCURVE",
"367 169 OFFCURVE",
"367 169 CURVE",
"367 127 OFFCURVE",
"351 110 OFFCURVE",
"308 110 CURVE SMOOTH",
"240 110 LINE SMOOTH",
"198 110 OFFCURVE",
"182 127 OFFCURVE",
"182 169 CURVE SMOOTH",
"182 474 LINE SMOOTH",
"182 516 OFFCURVE",
"198 533 OFFCURVE",
"240 533 CURVE SMOOTH",
"308 533 LINE SMOOTH",
"351 533 OFFCURVE",
"367 516 OFFCURVE",
"367 474 CURVE",
"367 474 OFFCURVE",
"367 433 OFFCURVE",
"367 433 CURVE",
"367 418 OFFCURVE",
"374 411 OFFCURVE",
"388 411 CURVE SMOOTH",
"472 411 LINE SMOOTH",
"487 411 OFFCURVE",
"494 418 OFFCURVE",
"494 433 CURVE",
"494 433 OFFCURVE",
"494 480 OFFCURVE",
"494 480 CURVE",
"494 585 OFFCURVE",
"433 643 OFFCURVE",
"329 643 CURVE SMOOTH",
"220 643 LINE SMOOTH",
"115 643 OFFCURVE",
"55 585 OFFCURVE",
"55 480 CURVE SMOOTH",
"55 163 LINE SMOOTH",
"55 58 OFFCURVE",
"115 0 OFFCURVE",
"220 0 CURVE SMOOTH"
);
}
);
width = 538;
},
{
layerId = "C14C6A9E-9E56-4950-A507-E7357A5C19D0";
paths = (
{
closed = 1;
nodes = (
"344 0 LINE",
"425 0 OFFCURVE",
"478 53 OFFCURVE",
"478 136 CURVE",
"478 136 OFFCURVE",
"478 186 OFFCURVE",
"478 186 CURVE",
"478 193 OFFCURVE",
"475 195 OFFCURVE",
"470 195 CURVE SMOOTH",
"456 195 LINE SMOOTH",
"451 195 OFFCURVE",
"448 193 OFFCURVE",
"448 186 CURVE",
"448 186 OFFCURVE",
"448 137 OFFCURVE",
"448 137 CURVE",
"448 69 OFFCURVE",
"411 28 OFFCURVE",
"344 28 CURVE SMOOTH",
"214 28 LINE SMOOTH",
"147 28 OFFCURVE",
"110 69 OFFCURVE",
"110 137 CURVE SMOOTH",
"110 506 LINE SMOOTH",
"110 574 OFFCURVE",
"147 615 OFFCURVE",
"214 615 CURVE SMOOTH",
"344 615 LINE SMOOTH",
"411 615 OFFCURVE",
"448 574 OFFCURVE",
"448 506 CURVE",
"448 506 OFFCURVE",
"448 457 OFFCURVE",
"448 457 CURVE",
"448 450 OFFCURVE",
"451 448 OFFCURVE",
"456 448 CURVE SMOOTH",
"470 448 LINE SMOOTH",
"475 448 OFFCURVE",
"478 450 OFFCURVE",
"478 457 CURVE",
"478 457 OFFCURVE",
"478 507 OFFCURVE",
"478 507 CURVE",
"478 590 OFFCURVE",
"425 643 OFFCURVE",
"344 643 CURVE SMOOTH",
"214 643 LINE SMOOTH",
"133 643 OFFCURVE",
"80 590 OFFCURVE",
"80 507 CURVE SMOOTH",
"80 136 LINE SMOOTH",
"80 53 OFFCURVE",
"133 0 OFFCURVE",
"214 0 CURVE SMOOTH"
);
}
);
width = 543;
}
);
unicode = 0043;
},
{
glyphname = D;
layers = (
{
layerId = "B34F63BB-E885-4604-9CD3-F42791F97BAE";
paths = (
{
closed = 1;
nodes = (
"65 21 LINE SMOOTH",
"65 5 OFFCURVE",
"72 0 OFFCURVE",
"86 0 CURVE SMOOTH",
"333 0 LINE SMOOTH",
"437 0 OFFCURVE",
"498 58 OFFCURVE",
"498 163 CURVE SMOOTH",
"498 480 LINE SMOOTH",
"498 585 OFFCURVE",
"437 643 OFFCURVE",
"333 643 CURVE SMOOTH",
"86 643 LINE SMOOTH",
"72 643 OFFCURVE",
"65 638 OFFCURVE",
"65 622 CURVE SMOOTH"
);
},
{
closed = 1;
nodes = (
"203 110 LINE SMOOTH",
"196 110 OFFCURVE",
"192 113 OFFCURVE",
"192 121 CURVE SMOOTH",
"192 522 LINE SMOOTH",
"192 530 OFFCURVE",
"196 533 OFFCURVE",
"203 533 CURVE SMOOTH",
"312 533 LINE SMOOTH",
"355 533 OFFCURVE",
"371 516 OFFCURVE",
"371 474 CURVE SMOOTH",
"371 169 LINE SMOOTH",
"371 127 OFFCURVE",
"355 110 OFFCURVE",
"312 110 CURVE SMOOTH"
);
}
);
width = 553;
},
{
layerId = "C14C6A9E-9E56-4950-A507-E7357A5C19D0";
paths = (
{
closed = 1;
nodes = (
"90 9 LINE",
"90 2 OFFCURVE",
"93 0 OFFCURVE",
"98 0 CURVE SMOOTH",
"344 0 LINE SMOOTH",
"425 0 OFFCURVE",
"478 53 OFFCURVE",
"478 136 CURVE SMOOTH",
"478 507 LINE SMOOTH",
"478 590 OFFCURVE",
"425 643 OFFCURVE",
"344 643 CURVE SMOOTH",
"98 643 LINE SMOOTH",
"93 643 OFFCURVE",
"90 641 OFFCURVE",
"90 634 CURVE SMOOTH"
);
},
{
closed = 1;
nodes = (
"129 28 LINE SMOOTH",
"122 28 OFFCURVE",
"120 31 OFFCURVE",
"120 36 CURVE SMOOTH",
"120 607 LINE SMOOTH",
"120 612 OFFCURVE",
"122 615 OFFCURVE",
"129 615 CURVE SMOOTH",
"344 615 LINE SMOOTH",
"411 615 OFFCURVE",
"448 574 OFFCURVE",
"448 506 CURVE SMOOTH",
"448 137 LINE SMOOTH",
"448 69 OFFCURVE",
"411 28 OFFCURVE",
"344 28 CURVE SMOOTH"
);
}
);
width = 558;
}
);
unicode = 0044;
},
{
glyphname = E;
layers = (
{
layerId = "B34F63BB-E885-4604-9CD3-F42791F97BAE";
paths = (
{
closed = 1;
nodes = (
"413 0 LINE SMOOTH",
"428 0 OFFCURVE",
"433 7 OFFCURVE",
"433 21 CURVE SMOOTH",
"433 89 LINE SMOOTH",
"433 103 OFFCURVE",
"428 110 OFFCURVE",
"413 110 CURVE SMOOTH",
"204 110 LINE SMOOTH",
"196 110 OFFCURVE",
"192 113 OFFCURVE",
"192 121 CURVE SMOOTH",
"192 260 LINE SMOOTH",
"192 268 OFFCURVE",
"196 271 OFFCURVE",
"204 271 CURVE SMOOTH",
"375 271 LINE SMOOTH",
"390 271 OFFCURVE",
"396 278 OFFCURVE",
"396 292 CURVE SMOOTH",
"396 360 LINE SMOOTH",
"396 374 OFFCURVE",
"390 381 OFFCURVE",
"375 381 CURVE SMOOTH",
"204 381 LINE SMOOTH",
"196 381 OFFCURVE",
"192 384 OFFCURVE",
"192 392 CURVE SMOOTH",
"192 522 LINE SMOOTH",
"192 530 OFFCURVE",
"196 533 OFFCURVE",
"204 533 CURVE SMOOTH",
"413 533 LINE SMOOTH",
"428 533 OFFCURVE",
"433 540 OFFCURVE",
"433 554 CURVE SMOOTH",
"433 622 LINE SMOOTH",
"433 636 OFFCURVE",
"428 643 OFFCURVE",
"413 643 CURVE SMOOTH",
"86 643 LINE SMOOTH",
"72 643 OFFCURVE",
"65 638 OFFCURVE",
"65 622 CURVE SMOOTH",
"65 21 LINE SMOOTH",
"65 5 OFFCURVE",
"72 0 OFFCURVE",
"86 0 CURVE SMOOTH"
);
}
);
width = 479;
},
{
layerId = "C14C6A9E-9E56-4950-A507-E7357A5C19D0";
paths = (
{
closed = 1;
nodes = (
"402 0 LINE",
"409 0 OFFCURVE",
"411 3 OFFCURVE",
"411 8 CURVE SMOOTH",
"411 20 LINE SMOOTH",
"411 25 OFFCURVE",
"409 28 OFFCURVE",
"402 28 CURVE SMOOTH",
"129 28 LINE SMOOTH",
"122 28 OFFCURVE",
"120 31 OFFCURVE",
"120 36 CURVE SMOOTH",
"120 306 LINE SMOOTH",
"120 311 OFFCURVE",
"122 314 OFFCURVE",
"129 314 CURVE SMOOTH",
"376 314 LINE SMOOTH",
"383 314 OFFCURVE",
"385 317 OFFCURVE",
"385 322 CURVE SMOOTH",
"385 334 LINE SMOOTH",
"385 339 OFFCURVE",
"383 342 OFFCURVE",
"376 342 CURVE SMOOTH",
"129 342 LINE SMOOTH",
"122 342 OFFCURVE",
"120 345 OFFCURVE",
"120 350 CURVE SMOOTH",
"120 607 LINE SMOOTH",
"120 612 OFFCURVE",
"122 615 OFFCURVE",
"129 615 CURVE SMOOTH",
"402 615 LINE SMOOTH",
"409 615 OFFCURVE",
"411 618 OFFCURVE",
"411 623 CURVE SMOOTH",
"411 635 LINE SMOOTH",
"411 640 OFFCURVE",
"409 643 OFFCURVE",
"402 643 CURVE SMOOTH",
"98 643 LINE SMOOTH",
"93 643 OFFCURVE",
"90 641 OFFCURVE",
"90 634 CURVE SMOOTH",
"90 9 LINE SMOOTH",
"90 2 OFFCURVE",
"93 0 OFFCURVE",
"98 0 CURVE SMOOTH"
);
}
);
width = 481;
}
);
unicode = 0045;
},
{
glyphname = F;
layers = (
{
layerId = "B34F63BB-E885-4604-9CD3-F42791F97BAE";
paths = (
{
closed = 1;
nodes = (
"171 0 LINE SMOOTH",
"185 0 OFFCURVE",
"192 5 OFFCURVE",
"192 21 CURVE SMOOTH",
"192 234 LINE SMOOTH",
"192 242 OFFCURVE",
"196 245 OFFCURVE",
"204 245 CURVE SMOOTH",
"375 245 LINE SMOOTH",
"390 245 OFFCURVE",
"396 252 OFFCURVE",
"396 267 CURVE SMOOTH",
"396 334 LINE SMOOTH",
"396 348 OFFCURVE",
"390 355 OFFCURVE",
"375 355 CURVE SMOOTH",
"204 355 LINE SMOOTH",
"196 355 OFFCURVE",
"192 358 OFFCURVE",
"192 367 CURVE SMOOTH",
"192 522 LINE SMOOTH",
"192 530 OFFCURVE",
"196 533 OFFCURVE",
"204 533 CURVE SMOOTH",
"405 533 LINE SMOOTH",
"420 533 OFFCURVE",
"425 540 OFFCURVE",
"425 554 CURVE SMOOTH",
"425 622 LINE SMOOTH",
"425 636 OFFCURVE",
"420 643 OFFCURVE",
"405 643 CURVE SMOOTH",
"86 643 LINE SMOOTH",
"72 643 OFFCURVE",
"65 638 OFFCURVE",
"65 622 CURVE SMOOTH",
"65 21 LINE SMOOTH",
"65 5 OFFCURVE",
"72 0 OFFCURVE",
"86 0 CURVE SMOOTH"
);
}
);
width = 450;
},
{
layerId = "C14C6A9E-9E56-4950-A507-E7357A5C19D0";
paths = (
{
closed = 1;
nodes = (
"112 0 LINE",
"117 0 OFFCURVE",
"120 2 OFFCURVE",
"120 9 CURVE SMOOTH",
"120 297 LINE SMOOTH",
"120 302 OFFCURVE",
"122 305 OFFCURVE",
"129 305 CURVE SMOOTH",
"376 305 LINE SMOOTH",
"383 305 OFFCURVE",
"385 308 OFFCURVE",
"385 313 CURVE SMOOTH",
"385 325 LINE SMOOTH",
"385 330 OFFCURVE",
"383 333 OFFCURVE",
"376 333 CURVE SMOOTH",
"129 333 LINE SMOOTH",
"122 333 OFFCURVE",
"120 336 OFFCURVE",
"120 341 CURVE SMOOTH",
"120 607 LINE SMOOTH",
"120 612 OFFCURVE",
"122 615 OFFCURVE",
"129 615 CURVE SMOOTH",
"403 615 LINE SMOOTH",
"410 615 OFFCURVE",
"412 618 OFFCURVE",
"412 623 CURVE SMOOTH",
"412 635 LINE SMOOTH",
"412 640 OFFCURVE",
"410 643 OFFCURVE",
"403 643 CURVE SMOOTH",
"98 643 LINE SMOOTH",
"93 643 OFFCURVE",
"90 641 OFFCURVE",
"90 634 CURVE SMOOTH",
"90 9 LINE SMOOTH",
"90 2 OFFCURVE",
"93 0 OFFCURVE",
"98 0 CURVE SMOOTH"
);
}
);
width = 462;
}
);
unicode = 0046;
},
{
glyphname = G;
layers = (
{
layerId = "B34F63BB-E885-4604-9CD3-F42791F97BAE";
paths = (
{
closed = 1;
nodes = (
"326 0 LINE SMOOTH",
"430 0 OFFCURVE",
"490 58 OFFCURVE",
"490 163 CURVE SMOOTH",
"490 330 LINE SMOOTH",
"490 346 OFFCURVE",
"482 353 OFFCURVE",
"467 353 CURVE SMOOTH",
"292 353 LINE SMOOTH",
"276 353 OFFCURVE",
"271 346 OFFCURVE",
"271 332 CURVE SMOOTH",
"271 264 LINE SMOOTH",
"271 250 OFFCURVE",
"276 243 OFFCURVE",
"292 243 CURVE SMOOTH",
"352 243 LINE SMOOTH",
"360 243 OFFCURVE",
"363 240 OFFCURVE",
"363 232 CURVE SMOOTH",
"363 169 LINE SMOOTH",
"363 127 OFFCURVE",
"348 110 OFFCURVE",
"305 110 CURVE SMOOTH",
"240 110 LINE SMOOTH",
"198 110 OFFCURVE",
"182 127 OFFCURVE",
"182 169 CURVE SMOOTH",
"182 474 LINE SMOOTH",
"182 516 OFFCURVE",
"198 533 OFFCURVE",
"240 533 CURVE SMOOTH",
"305 533 LINE SMOOTH",
"348 533 OFFCURVE",
"363 516 OFFCURVE",
"363 474 CURVE SMOOTH",
"363 450 LINE SMOOTH",
"363 434 OFFCURVE",
"370 428 OFFCURVE",
"384 428 CURVE SMOOTH",
"469 428 LINE SMOOTH",
"483 428 OFFCURVE",
"490 434 OFFCURVE",
"490 450 CURVE SMOOTH",
"490 480 LINE SMOOTH",
"490 585 OFFCURVE",
"430 643 OFFCURVE",
"326 643 CURVE SMOOTH",
"220 643 LINE SMOOTH",
"115 643 OFFCURVE",
"55 585 OFFCURVE",
"55 480 CURVE SMOOTH",
"55 163 LINE SMOOTH",
"55 58 OFFCURVE",
"115 0 OFFCURVE",
"220 0 CURVE SMOOTH"
);
}
);
width = 545;
},
{
layerId = "C14C6A9E-9E56-4950-A507-E7357A5C19D0";
paths = (
{
closed = 1;
nodes = (
"324 0 LINE",
"405 0 OFFCURVE",
"458 53 OFFCURVE",
"458 136 CURVE SMOOTH",
"458 305 LINE SMOOTH",
"458 317 OFFCURVE",
"450 324 OFFCURVE",
"440 324 CURVE SMOOTH",
"290 324 LINE SMOOTH",
"283 324 OFFCURVE",
"281 321 OFFCURVE",
"281 316 CURVE SMOOTH",
"281 304 LINE SMOOTH",
"281 299 OFFCURVE",
"283 296 OFFCURVE",
"290 296 CURVE SMOOTH",
"419 296 LINE SMOOTH",
"426 296 OFFCURVE",
"428 293 OFFCURVE",
"428 288 CURVE SMOOTH",
"428 137 LINE SMOOTH",
"428 69 OFFCURVE",
"391 28 OFFCURVE",
"324 28 CURVE SMOOTH",
"214 28 LINE SMOOTH",
"147 28 OFFCURVE",
"110 69 OFFCURVE",
"110 137 CURVE SMOOTH",
"110 506 LINE SMOOTH",
"110 574 OFFCURVE",
"147 615 OFFCURVE",
"214 615 CURVE SMOOTH",
"324 615 LINE SMOOTH",
"391 615 OFFCURVE",
"428 574 OFFCURVE",
"428 506 CURVE SMOOTH",
"428 457 LINE SMOOTH",
"428 450 OFFCURVE",
"431 448 OFFCURVE",
"436 448 CURVE SMOOTH",
"450 448 LINE SMOOTH",
"455 448 OFFCURVE",
"458 450 OFFCURVE",
"458 457 CURVE SMOOTH",
"458 507 LINE SMOOTH",
"458 590 OFFCURVE",
"405 643 OFFCURVE",
"324 643 CURVE SMOOTH",
"214 643 LINE SMOOTH",
"133 643 OFFCURVE",
"80 590 OFFCURVE",
"80 507 CURVE SMOOTH",
"80 136 LINE SMOOTH",
"80 53 OFFCURVE",
"133 0 OFFCURVE",
"214 0 CURVE SMOOTH"
);
}
);
width = 538;
}
);
unicode = 0047;
},
{
glyphname = H;
layers = (
{
layerId = "B34F63BB-E885-4604-9CD3-F42791F97BAE";
paths = (
{
closed = 1;
nodes = (
"171 0 LINE SMOOTH",
"185 0 OFFCURVE",
"192 5 OFFCURVE",
"192 21 CURVE SMOOTH",
"192 255 LINE SMOOTH",
"192 263 OFFCURVE",
"196 266 OFFCURVE",
"204 266 CURVE SMOOTH",
"373 266 LINE SMOOTH",
"380 266 OFFCURVE",
"384 263 OFFCURVE",
"384 255 CURVE SMOOTH",
"384 21 LINE SMOOTH",
"384 5 OFFCURVE",
"391 0 OFFCURVE",
"405 0 CURVE SMOOTH",
"490 0 LINE SMOOTH",
"504 0 OFFCURVE",
"511 5 OFFCURVE",
"511 21 CURVE SMOOTH",
"511 622 LINE SMOOTH",
"511 638 OFFCURVE",
"504 643 OFFCURVE",
"490 643 CURVE SMOOTH",
"405 643 LINE SMOOTH",
"391 643 OFFCURVE",
"384 638 OFFCURVE",
"384 622 CURVE SMOOTH",
"384 387 LINE SMOOTH",
"384 379 OFFCURVE",
"380 376 OFFCURVE",
"373 376 CURVE SMOOTH",
"204 376 LINE SMOOTH",
"196 376 OFFCURVE",
"192 379 OFFCURVE",
"192 387 CURVE SMOOTH",
"192 622 LINE SMOOTH",
"192 638 OFFCURVE",
"185 643 OFFCURVE",
"171 643 CURVE SMOOTH",
"86 643 LINE SMOOTH",
"72 643 OFFCURVE",
"65 638 OFFCURVE",
"65 622 CURVE SMOOTH",
"65 21 LINE SMOOTH",
"65 5 OFFCURVE",
"72 0 OFFCURVE",
"86 0 CURVE SMOOTH"
);
}
);
width = 576;
},
{
layerId = "C14C6A9E-9E56-4950-A507-E7357A5C19D0";
paths = (
{
closed = 1;
nodes = (
"112 0 LINE SMOOTH",
"117 0 OFFCURVE",
"120 2 OFFCURVE",
"120 9 CURVE SMOOTH",
"120 306 LINE SMOOTH",
"120 311 OFFCURVE",
"122 314 OFFCURVE",
"129 314 CURVE SMOOTH",
"439 314 LINE SMOOTH",
"446 314 OFFCURVE",
"448 311 OFFCURVE",
"448 306 CURVE SMOOTH",
"448 9 LINE SMOOTH",
"448 2 OFFCURVE",
"451 0 OFFCURVE",
"456 0 CURVE SMOOTH",
"470 0 LINE SMOOTH",
"475 0 OFFCURVE",
"478 2 OFFCURVE",
"478 9 CURVE SMOOTH",
"478 634 LINE SMOOTH",
"478 641 OFFCURVE",
"475 643 OFFCURVE",
"470 643 CURVE SMOOTH",
"456 643 LINE SMOOTH",
"451 643 OFFCURVE",
"448 641 OFFCURVE",
"448 634 CURVE SMOOTH",
"448 350 LINE SMOOTH",
"448 345 OFFCURVE",
"446 342 OFFCURVE",
"439 342 CURVE SMOOTH",
"129 342 LINE SMOOTH",
"122 342 OFFCURVE",
"120 345 OFFCURVE",
"120 350 CURVE SMOOTH",
"120 634 LINE SMOOTH",
"120 641 OFFCURVE",
"117 643 OFFCURVE",
"112 643 CURVE SMOOTH",
"98 643 LINE SMOOTH",
"93 643 OFFCURVE",
"90 641 OFFCURVE",
"90 634 CURVE SMOOTH",
"90 9 LINE SMOOTH",
"90 2 OFFCURVE",
"93 0 OFFCURVE",
"98 0 CURVE SMOOTH"
);
}
);
width = 568;
}
);
unicode = 0048;
},
{
glyphname = I;
layers = (
{
layerId = "B34F63BB-E885-4604-9CD3-F42791F97BAE";
paths = (
{
closed = 1;
nodes = (
"197 622 LINE SMOOTH",
"197 638 OFFCURVE",
"190 643 OFFCURVE",
"176 643 CURVE SMOOTH",
"91 643 LINE SMOOTH",
"77 643 OFFCURVE",
"70 638 OFFCURVE",
"70 622 CURVE SMOOTH",
"70 21 LINE SMOOTH",
"70 5 OFFCURVE",
"77 0 OFFCURVE",
"91 0 CURVE SMOOTH",
"176 0 LINE SMOOTH",
"190 0 OFFCURVE",
"197 5 OFFCURVE",
"197 21 CURVE SMOOTH"
);
}
);
width = 267;
},
{
layerId = "C14C6A9E-9E56-4950-A507-E7357A5C19D0";
paths = (
{
closed = 1;
nodes = (
"125 634 LINE SMOOTH",
"125 641 OFFCURVE",
"122 643 OFFCURVE",
"117 643 CURVE SMOOTH",
"103 643 LINE SMOOTH",
"98 643 OFFCURVE",
"95 641 OFFCURVE",
"95 634 CURVE SMOOTH",
"95 9 LINE SMOOTH",
"95 2 OFFCURVE",
"98 0 OFFCURVE",
"103 0 CURVE SMOOTH",
"117 0 LINE SMOOTH",
"122 0 OFFCURVE",
"125 2 OFFCURVE",
"125 9 CURVE SMOOTH"
);
}
);
width = 220;
}
);
unicode = 0049;
},
{
glyphname = J;
layers = (
{
layerId = "B34F63BB-E885-4604-9CD3-F42791F97BAE";
paths = (
{
closed = 1;
nodes = (
"356 643 LINE SMOOTH",
"341 643 OFFCURVE",
"334 638 OFFCURVE",
"334 622 CURVE SMOOTH",
"334 169 LINE SMOOTH",
"334 127 OFFCURVE",
"319 110 OFFCURVE",
"276 110 CURVE SMOOTH",
"217 110 LINE SMOOTH",
"175 110 OFFCURVE",
"159 127 OFFCURVE",
"159 169 CURVE SMOOTH",
"159 173 OFFCURVE",
"159 252 OFFCURVE",
"159 257 CURVE SMOOTH",
"159 272 OFFCURVE",
"152 278 OFFCURVE",
"138 278 CURVE SMOOTH",
"53 278 LINE SMOOTH",
"39 278 OFFCURVE",
"32 272 OFFCURVE",
"32 257 CURVE SMOOTH",
"32 252 OFFCURVE",
"32 170 OFFCURVE",
"32 163 CURVE SMOOTH",
"32 58 OFFCURVE",
"92 0 OFFCURVE",
"197 0 CURVE SMOOTH",
"297 0 LINE SMOOTH",
"401 0 OFFCURVE",
"461 58 OFFCURVE",
"461 163 CURVE SMOOTH",
"461 623 LINE SMOOTH",
"461 638 OFFCURVE",
"454 643 OFFCURVE",
"440 643 CURVE SMOOTH"
);
}
);
width = 521;
},
{
layerId = "C14C6A9E-9E56-4950-A507-E7357A5C19D0";
paths = (
{
closed = 1;
nodes = (
"386 643 LINE",
"381 643 OFFCURVE",
"378 640 OFFCURVE",
"378 634 CURVE SMOOTH",
"378 137 LINE SMOOTH",
"378 69 OFFCURVE",
"341 28 OFFCURVE",
"274 28 CURVE SMOOTH",
"174 28 LINE SMOOTH",
"107 28 OFFCURVE",
"70 69 OFFCURVE",
"70 137 CURVE SMOOTH",
"70 163 OFFCURVE",
"70 190 OFFCURVE",
"70 216 CURVE SMOOTH",
"70 223 OFFCURVE",
"67 225 OFFCURVE",
"62 225 CURVE SMOOTH",
"48 225 LINE SMOOTH",
"43 225 OFFCURVE",
"40 223 OFFCURVE",
"40 216 CURVE SMOOTH",
"40 189 OFFCURVE",
"40 163 OFFCURVE",
"40 136 CURVE SMOOTH",
"40 53 OFFCURVE",
"93 0 OFFCURVE",
"174 0 CURVE SMOOTH",
"274 0 LINE SMOOTH",
"355 0 OFFCURVE",
"408 53 OFFCURVE",
"408 136 CURVE SMOOTH",
"408 635 LINE SMOOTH",
"408 640 OFFCURVE",
"405 643 OFFCURVE",
"400 643 CURVE SMOOTH"
);
}
);
width = 493;
}
);
unicode = 004A;
},
{
glyphname = K;
layers = (
{
layerId = "B34F63BB-E885-4604-9CD3-F42791F97BAE";
paths = (
{
closed = 1;
nodes = (
"171 0 LINE SMOOTH",
"185 0 OFFCURVE",
"192 5 OFFCURVE",
"192 21 CURVE SMOOTH",
"192 192 LINE",
"255 266 LINE",
"408 21 LINE SMOOTH",
"418 4 OFFCURVE",
"433 0 OFFCURVE",
"455 0 CURVE SMOOTH",
"528 0 LINE SMOOTH",
"546 0 OFFCURVE",
"554 9 OFFCURVE",
"544 25 CURVE SMOOTH",
"332 357 LINE",
"522 620 LINE",
"533 634 OFFCURVE",
"528 643 OFFCURVE",
"514 643 CURVE SMOOTH",
"416 643 LINE SMOOTH",
"394 643 OFFCURVE",
"387 638 OFFCURVE",
"377 622 CURVE",
"225 399 LINE",
"217 386 OFFCURVE",
"202 362 OFFCURVE",
"194 337 CURVE",
"192 337 LINE",
"192 622 LINE SMOOTH",
"192 638 OFFCURVE",
"185 643 OFFCURVE",
"171 643 CURVE SMOOTH",
"86 643 LINE SMOOTH",
"72 643 OFFCURVE",
"65 638 OFFCURVE",
"65 622 CURVE SMOOTH",
"65 21 LINE SMOOTH",
"65 5 OFFCURVE",
"72 0 OFFCURVE",
"86 0 CURVE SMOOTH"
);
}
);
width = 558;
},
{
layerId = "C14C6A9E-9E56-4950-A507-E7357A5C19D0";
paths = (
{
closed = 1;
nodes = (
"112 0 LINE SMOOTH",
"117 0 OFFCURVE",
"120 2 OFFCURVE",
"120 9 CURVE SMOOTH",
"120 202 LINE",
"234 339 LINE",
"456 9 LINE",
"461 1 OFFCURVE",
"465 0 OFFCURVE",
"471 0 CURVE SMOOTH",
"487 0 LINE SMOOTH",
"492 0 OFFCURVE",
"495 3 OFFCURVE",
"491 9 CURVE SMOOTH",
"253 363 LINE",
"457 634 LINE",
"463 641 OFFCURVE",
"460 643 OFFCURVE",
"455 643 CURVE SMOOTH",
"436 643 LINE SMOOTH",
"431 643 OFFCURVE",
"427 643 OFFCURVE",
"420 634 CURVE SMOOTH",
"139 267 LINE SMOOTH",
"135 262 OFFCURVE",
"127 249 OFFCURVE",
"124 242 CURVE",
"120 242 LINE",
"120 634 LINE SMOOTH",
"120 641 OFFCURVE",
"117 643 OFFCURVE",
"112 643 CURVE SMOOTH",
"98 643 LINE SMOOTH",
"93 643 OFFCURVE",
"90 641 OFFCURVE",
"90 634 CURVE SMOOTH",
"90 9 LINE SMOOTH",
"90 2 OFFCURVE",
"93 0 OFFCURVE",
"98 0 CURVE SMOOTH"
);
}
);
width = 523;
}
);
unicode = 004B;
},
{
glyphname = L;
layers = (
{
layerId = "B34F63BB-E885-4604-9CD3-F42791F97BAE";
paths = (
{
closed = 1;
nodes = (
"415 0 LINE SMOOTH",
"430 0 OFFCURVE",
"435 7 OFFCURVE",
"435 21 CURVE SMOOTH",
"435 89 LINE SMOOTH",
"435 103 OFFCURVE",
"430 111 OFFCURVE",
"415 111 CURVE SMOOTH",
"204 111 LINE SMOOTH",
"196 111 OFFCURVE",
"192 114 OFFCURVE",
"192 122 CURVE SMOOTH",
"192 622 LINE SMOOTH",
"192 638 OFFCURVE",
"185 643 OFFCURVE",
"171 643 CURVE SMOOTH",
"86 643 LINE SMOOTH",
"72 643 OFFCURVE",
"65 638 OFFCURVE",
"65 622 CURVE SMOOTH",
"65 21 LINE SMOOTH",
"65 5 OFFCURVE",
"72 0 OFFCURVE",
"86 0 CURVE SMOOTH"
);
}
);
width = 449;
},
{
layerId = "C14C6A9E-9E56-4950-A507-E7357A5C19D0";
paths = (
{
closed = 1;
nodes = (
"413 0 LINE SMOOTH",
"420 0 OFFCURVE",
"422 3 OFFCURVE",
"422 8 CURVE SMOOTH",
"422 22 LINE SMOOTH",
"422 27 OFFCURVE",
"420 30 OFFCURVE",
"413 30 CURVE SMOOTH",
"129 30 LINE SMOOTH",
"122 30 OFFCURVE",
"120 33 OFFCURVE",
"120 38 CURVE SMOOTH",
"120 634 LINE SMOOTH",
"120 641 OFFCURVE",
"117 643 OFFCURVE",
"112 643 CURVE SMOOTH",
"98 643 LINE SMOOTH",
"93 643 OFFCURVE",
"90 641 OFFCURVE",
"90 634 CURVE SMOOTH",
"90 9 LINE SMOOTH",
"90 2 OFFCURVE",
"93 0 OFFCURVE",
"98 0 CURVE SMOOTH"
);
}
);
width = 452;
}
);
unicode = 004C;
},
{
glyphname = M;
layers = (
{
layerId = "B34F63BB-E885-4604-9CD3-F42791F97BAE";
paths = (
{
closed = 1;
nodes = (
"366 276 LINE",
"360 276 LINE",
"254 629 LINE SMOOTH",
"251 638 OFFCURVE",
"246 643 OFFCURVE",
"235 643 CURVE SMOOTH",
"86 643 LINE SMOOTH",
"75 643 OFFCURVE",
"65 638 OFFCURVE",
"65 622 CURVE SMOOTH",
"65 21 LINE SMOOTH",
"65 4 OFFCURVE",
"75 0 OFFCURVE",
"86 0 CURVE SMOOTH",
"168 0 LINE SMOOTH",
"185 0 OFFCURVE",
"189 5 OFFCURVE",
"189 21 CURVE SMOOTH",
"189 496 LINE",
"193 496 LINE",
"297 160 LINE SMOOTH",
"301 146 OFFCURVE",
"307 140 OFFCURVE",
"322 140 CURVE SMOOTH",
"406 140 LINE SMOOTH",
"420 140 OFFCURVE",
"427 147 OFFCURVE",
"431 160 CURVE SMOOTH",
"533 495 LINE",
"537 495 LINE",
"537 21 LINE SMOOTH",
"537 5 OFFCURVE",
"544 0 OFFCURVE",
"558 0 CURVE SMOOTH",
"640 0 LINE SMOOTH",
"654 0 OFFCURVE",
"661 5 OFFCURVE",
"661 21 CURVE SMOOTH",
"661 622 LINE SMOOTH",
"661 638 OFFCURVE",
"654 643 OFFCURVE",
"640 643 CURVE SMOOTH",
"492 643 LINE SMOOTH",
"480 643 OFFCURVE",
"475 638 OFFCURVE",
"473 629 CURVE"
);
}
);
width = 726;
},
{
layerId = "C14C6A9E-9E56-4950-A507-E7357A5C19D0";
paths = (
{
closed = 1;
nodes = (
"346 177 LINE",
"342 177 LINE",
"133 639 LINE",
"132 641 OFFCURVE",
"130 643 OFFCURVE",
"126 643 CURVE SMOOTH",
"98 643 LINE SMOOTH",
"93 643 OFFCURVE",
"90 641 OFFCURVE",
"90 634 CURVE SMOOTH",
"90 9 LINE SMOOTH",
"90 2 OFFCURVE",
"93 0 OFFCURVE",
"98 0 CURVE SMOOTH",
"112 0 LINE SMOOTH",
"117 0 OFFCURVE",
"120 2 OFFCURVE",
"120 9 CURVE SMOOTH",
"120 586 LINE",
"124 586 LINE",
"323 148 LINE",
"326 142 OFFCURVE",
"329 140 OFFCURVE",
"335 140 CURVE SMOOTH",
"354 140 LINE SMOOTH",
"360 140 OFFCURVE",
"363 142 OFFCURVE",
"366 148 CURVE",
"564 585 LINE",
"568 585 LINE",
"568 9 LINE SMOOTH",
"568 2 OFFCURVE",
"571 0 OFFCURVE",
"576 0 CURVE SMOOTH",
"590 0 LINE SMOOTH",
"595 0 OFFCURVE",
"598 2 OFFCURVE",
"598 9 CURVE SMOOTH",
"598 634 LINE SMOOTH",
"598 641 OFFCURVE",
"595 643 OFFCURVE",
"590 643 CURVE SMOOTH",
"562 643 LINE SMOOTH",
"558 643 OFFCURVE",
"556 641 OFFCURVE",
"555 639 CURVE"
);
}
);
width = 688;
}
);
unicode = 004D;
},
{
glyphname = N;
layers = (
{
layerId = "B34F63BB-E885-4604-9CD3-F42791F97BAE";
paths = (
{
closed = 1;
nodes = (
"169 0 LINE SMOOTH",
"183 0 OFFCURVE",
"190 5 OFFCURVE",
"190 21 CURVE SMOOTH",
"190 392 LINE",
"194 392 LINE",
"394 20 LINE",
"395 19 OFFCURVE",
"404 0 OFFCURVE",
"426 0 CURVE SMOOTH",
"499 0 LINE SMOOTH",
"513 0 OFFCURVE",
"520 5 OFFCURVE",
"520 21 CURVE SMOOTH",
"520 622 LINE SMOOTH",
"520 638 OFFCURVE",
"513 643 OFFCURVE",
"499 643 CURVE SMOOTH",
"416 643 LINE SMOOTH",
"402 643 OFFCURVE",
"395 638 OFFCURVE",
"395 622 CURVE SMOOTH",
"395 250 LINE",
"391 250 LINE",
"189 629 LINE SMOOTH",
"188 631 OFFCURVE",
"181 643 OFFCURVE",
"161 643 CURVE SMOOTH",
"86 643 LINE SMOOTH",
"72 643 OFFCURVE",
"65 638 OFFCURVE",
"65 622 CURVE SMOOTH",
"65 21 LINE SMOOTH",
"65 5 OFFCURVE",
"72 0 OFFCURVE",
"86 0 CURVE SMOOTH"
);
}
);
width = 585;
},
{
layerId = "C14C6A9E-9E56-4950-A507-E7357A5C19D0";
paths = (
{
closed = 1;
nodes = (
"112 0 LINE",
"117 0 OFFCURVE",
"120 2 OFFCURVE",
"120 9 CURVE SMOOTH",
"120 573 LINE",
"124 573 LINE",
"458 8 LINE",
"462 2 OFFCURVE",
"464 0 OFFCURVE",
"470 0 CURVE SMOOTH",
"480 0 LINE SMOOTH",
"485 0 OFFCURVE",
"488 2 OFFCURVE",
"488 9 CURVE SMOOTH",
"488 634 LINE SMOOTH",
"488 641 OFFCURVE",
"485 643 OFFCURVE",
"480 643 CURVE SMOOTH",
"466 643 LINE SMOOTH",
"461 643 OFFCURVE",
"458 641 OFFCURVE",
"458 634 CURVE SMOOTH",
"458 72 LINE",
"454 72 LINE",
"119 639 LINE",
"118 641 OFFCURVE",
"116 643 OFFCURVE",
"112 643 CURVE SMOOTH",
"98 643 LINE SMOOTH",
"93 643 OFFCURVE",
"90 641 OFFCURVE",
"90 634 CURVE SMOOTH",
"90 9 LINE SMOOTH",
"90 2 OFFCURVE",
"93 0 OFFCURVE",
"98 0 CURVE SMOOTH"
);
}
);
width = 578;
}
);
unicode = 004E;
},
{
glyphname = O;
layers = (
{
layerId = "B34F63BB-E885-4604-9CD3-F42791F97BAE";
paths = (
{
closed = 1;
nodes = (
"332 0 LINE SMOOTH",
"437 0 OFFCURVE",
"497 58 OFFCURVE",
"497 163 CURVE SMOOTH",
"497 480 LINE SMOOTH",
"497 585 OFFCURVE",
"437 643 OFFCURVE",
"332 643 CURVE SMOOTH",
"220 643 LINE SMOOTH",
"115 643 OFFCURVE",
"55 585 OFFCURVE",
"55 480 CURVE SMOOTH",
"55 163 LINE SMOOTH",
"55 58 OFFCURVE",
"115 0 OFFCURVE",
"220 0 CURVE SMOOTH"
);
},
{
closed = 1;
nodes = (
"240 110 LINE SMOOTH",
"197 110 OFFCURVE",
"182 127 OFFCURVE",
"182 169 CURVE SMOOTH",
"182 474 LINE SMOOTH",
"182 516 OFFCURVE",
"197 533 OFFCURVE",
"240 533 CURVE SMOOTH",
"311 533 LINE SMOOTH",
"354 533 OFFCURVE",
"370 516 OFFCURVE",
"370 474 CURVE SMOOTH",
"370 169 LINE SMOOTH",
"370 127 OFFCURVE",
"354 110 OFFCURVE",
"311 110 CURVE SMOOTH"
);
}
);
width = 552;
},
{
layerId = "C14C6A9E-9E56-4950-A507-E7357A5C19D0";
paths = (
{
closed = 1;
nodes = (
"339 0 LINE",
"420 0 OFFCURVE",
"473 53 OFFCURVE",
"473 136 CURVE SMOOTH",
"473 507 LINE SMOOTH",
"473 590 OFFCURVE",
"420 643 OFFCURVE",
"339 643 CURVE SMOOTH",
"214 643 LINE SMOOTH",
"133 643 OFFCURVE",
"80 590 OFFCURVE",
"80 507 CURVE SMOOTH",
"80 136 LINE SMOOTH",
"80 53 OFFCURVE",
"133 0 OFFCURVE",
"214 0 CURVE SMOOTH"
);
},
{
closed = 1;
nodes = (
"214 28 LINE",
"147 28 OFFCURVE",
"110 69 OFFCURVE",
"110 137 CURVE SMOOTH",
"110 506 LINE SMOOTH",
"110 574 OFFCURVE",
"147 615 OFFCURVE",
"214 615 CURVE SMOOTH",
"339 615 LINE SMOOTH",
"406 615 OFFCURVE",
"443 574 OFFCURVE",
"443 506 CURVE SMOOTH",
"443 137 LINE SMOOTH",
"443 69 OFFCURVE",
"406 28 OFFCURVE",
"339 28 CURVE SMOOTH"
);
}
);
width = 553;
}
);
unicode = 004F;
},
{
glyphname = P;
layers = (
{
layerId = "B34F63BB-E885-4604-9CD3-F42791F97BAE";
paths = (
{
closed = 1;
nodes = (
"203 332 LINE SMOOTH",
"196 332 OFFCURVE",
"192 335 OFFCURVE",
"192 343 CURVE SMOOTH",
"192 522 LINE SMOOTH",
"192 530 OFFCURVE",
"196 533 OFFCURVE",
"203 533 CURVE SMOOTH",
"309 533 LINE SMOOTH",
"352 533 OFFCURVE",
"367 516 OFFCURVE",
"367 474 CURVE SMOOTH",
"367 390 LINE SMOOTH",
"367 349 OFFCURVE",
"352 332 OFFCURVE",
"309 332 CURVE SMOOTH"
);
},
{
closed = 1;
nodes = (
"171 0 LINE SMOOTH",
"185 0 OFFCURVE",
"192 5 OFFCURVE",
"192 21 CURVE SMOOTH",
"192 210 LINE SMOOTH",
"192 218 OFFCURVE",
"196 221 OFFCURVE",
"204 221 CURVE SMOOTH",
"330 221 LINE SMOOTH",
"434 221 OFFCURVE",
"494 279 OFFCURVE",
"494 384 CURVE SMOOTH",
"494 480 LINE SMOOTH",
"494 585 OFFCURVE",
"434 643 OFFCURVE",
"330 643 CURVE SMOOTH",
"86 643 LINE SMOOTH",
"72 643 OFFCURVE",
"65 638 OFFCURVE",
"65 622 CURVE SMOOTH",
"65 21 LINE SMOOTH",
"65 5 OFFCURVE",
"72 0 OFFCURVE",
"86 0 CURVE SMOOTH"
);
}
);
width = 530;
},
{
layerId = "C14C6A9E-9E56-4950-A507-E7357A5C19D0";
paths = (
{
closed = 1;
nodes = (
"129 276 LINE SMOOTH",
"122 276 OFFCURVE",
"120 279 OFFCURVE",
"120 284 CURVE SMOOTH",
"120 607 LINE SMOOTH",
"120 612 OFFCURVE",
"122 615 OFFCURVE",
"129 615 CURVE SMOOTH",
"324 615 LINE SMOOTH",
"391 615 OFFCURVE",
"428 574 OFFCURVE",
"428 506 CURVE SMOOTH",
"428 385 LINE SMOOTH",
"428 317 OFFCURVE",
"391 276 OFFCURVE",
"324 276 CURVE SMOOTH"
);
},
{
closed = 1;
nodes = (
"112 0 LINE",
"117 0 OFFCURVE",
"120 2 OFFCURVE",
"120 9 CURVE SMOOTH",
"120 240 LINE SMOOTH",
"120 245 OFFCURVE",
"122 248 OFFCURVE",
"129 248 CURVE SMOOTH",
"324 248 LINE SMOOTH",
"405 248 OFFCURVE",
"458 301 OFFCURVE",
"458 384 CURVE SMOOTH",
"458 507 LINE SMOOTH",
"458 590 OFFCURVE",
"405 643 OFFCURVE",
"324 643 CURVE SMOOTH",
"98 643 LINE SMOOTH",
"93 643 OFFCURVE",
"90 641 OFFCURVE",
"90 634 CURVE SMOOTH",
"90 9 LINE SMOOTH",
"90 2 OFFCURVE",
"93 0 OFFCURVE",
"98 0 CURVE SMOOTH"
);
}
);
width = 523;
}
);
unicode = 0050;
},
{
glyphname = Q;
layers = (
{
layerId = "B34F63BB-E885-4604-9CD3-F42791F97BAE";
paths = (
{
closed = 1;
nodes = (
"432 -133 LINE SMOOTH",
"446 -133 OFFCURVE",
"456 -123 OFFCURVE",
"448 -107 CURVE",
"384 4 LINE",
"461 18 OFFCURVE",
"505 74 OFFCURVE",
"505 163 CURVE SMOOTH",
"505 480 LINE SMOOTH",
"505 585 OFFCURVE",
"445 643 OFFCURVE",
"340 643 CURVE SMOOTH",
"228 643 LINE SMOOTH",
"123 643 OFFCURVE",
"63 585 OFFCURVE",
"63 480 CURVE SMOOTH",
"63 163 LINE SMOOTH",
"63 58 OFFCURVE",
"123 0 OFFCURVE",
"228 0 CURVE SMOOTH",
"255 0 LINE",
"320 -112 LINE SMOOTH",
"328 -126 OFFCURVE",
"336 -133 OFFCURVE",
"359 -133 CURVE SMOOTH"
);
},
{
closed = 1;
nodes = (
"249 110 LINE SMOOTH",
"206 110 OFFCURVE",
"191 127 OFFCURVE",
"191 169 CURVE SMOOTH",
"191 474 LINE SMOOTH",
"191 516 OFFCURVE",
"206 533 OFFCURVE",
"249 533 CURVE SMOOTH",
"320 533 LINE SMOOTH",
"363 533 OFFCURVE",
"379 516 OFFCURVE",
"379 474 CURVE SMOOTH",
"379 169 LINE SMOOTH",
"379 127 OFFCURVE",
"363 110 OFFCURVE",
"320 110 CURVE SMOOTH"
);
}
);
width = 569;
},
{
layerId = "C14C6A9E-9E56-4950-A507-E7357A5C19D0";
paths = (
{
closed = 1;
nodes = (
"412 -133 LINE SMOOTH",
"417 -133 OFFCURVE",
"420 -130 OFFCURVE",
"416 -124 CURVE SMOOTH",
"339 0 LINE",
"420 0 OFFCURVE",
"473 53 OFFCURVE",
"473 136 CURVE SMOOTH",
"473 507 LINE SMOOTH",
"473 590 OFFCURVE",
"420 643 OFFCURVE",
"339 643 CURVE SMOOTH",
"214 643 LINE SMOOTH",
"133 643 OFFCURVE",
"80 590 OFFCURVE",
"80 507 CURVE SMOOTH",
"80 136 LINE SMOOTH",
"80 53 OFFCURVE",
"133 0 OFFCURVE",
"214 0 CURVE SMOOTH",
"304 0 LINE",
"381 -124 LINE SMOOTH",
"386 -132 OFFCURVE",
"390 -133 OFFCURVE",
"396 -133 CURVE SMOOTH"
);
},
{
closed = 1;
nodes = (
"214 28 LINE",
"147 28 OFFCURVE",
"110 69 OFFCURVE",
"110 137 CURVE SMOOTH",
"110 506 LINE SMOOTH",
"110 574 OFFCURVE",
"147 615 OFFCURVE",
"214 615 CURVE SMOOTH",
"339 615 LINE SMOOTH",
"406 615 OFFCURVE",
"443 574 OFFCURVE",
"443 506 CURVE SMOOTH",
"443 137 LINE SMOOTH",
"443 69 OFFCURVE",
"406 28 OFFCURVE",
"339 28 CURVE SMOOTH"
);
}
);
width = 553;
}
);
unicode = 0051;
},
{
glyphname = R;
layers = (
{
layerId = "B34F63BB-E885-4604-9CD3-F42791F97BAE";
paths = (
{
closed = 1;
nodes = (
"203 339 LINE SMOOTH",
"196 339 OFFCURVE",
"192 342 OFFCURVE",
"192 350 CURVE SMOOTH",
"192 522 LINE SMOOTH",
"192 530 OFFCURVE",
"196 533 OFFCURVE",
"203 533 CURVE SMOOTH",
"301 533 LINE SMOOTH",
"344 533 OFFCURVE",
"363 516 OFFCURVE",
"363 474 CURVE SMOOTH",
"363 396 LINE SMOOTH",
"363 356 OFFCURVE",
"344 339 OFFCURVE",
"301 339 CURVE SMOOTH"
);
},
{
closed = 1;
nodes = (
"171 0 LINE SMOOTH",
"185 0 OFFCURVE",
"192 5 OFFCURVE",
"192 21 CURVE SMOOTH",
"192 226 LINE SMOOTH",
"192 234 OFFCURVE",
"196 237 OFFCURVE",
"204 237 CURVE SMOOTH",
"271 237 LINE",
"371 21 LINE",
"378 4 OFFCURVE",
"387 0 OFFCURVE",
"410 0 CURVE SMOOTH",
"491 0 LINE SMOOTH",
"505 0 OFFCURVE",
"517 7 OFFCURVE",
"508 24 CURVE",
"401 247 LINE",
"401 251 LINE",
"458 275 OFFCURVE",
"490 326 OFFCURVE",
"490 401 CURVE SMOOTH",
"490 479 LINE SMOOTH",
"490 583 OFFCURVE",
"428 643 OFFCURVE",
"324 643 CURVE SMOOTH",
"86 643 LINE SMOOTH",
"72 643 OFFCURVE",
"65 638 OFFCURVE",
"65 622 CURVE SMOOTH",
"65 21 LINE SMOOTH",
"65 5 OFFCURVE",
"72 0 OFFCURVE",
"86 0 CURVE SMOOTH"
);
}
);
width = 547;
},
{
layerId = "C14C6A9E-9E56-4950-A507-E7357A5C19D0";
paths = (
{
closed = 1;
nodes = (
"129 299 LINE SMOOTH",
"122 299 OFFCURVE",
"120 302 OFFCURVE",
"120 307 CURVE SMOOTH",
"120 607 LINE SMOOTH",
"120 612 OFFCURVE",
"122 615 OFFCURVE",
"129 615 CURVE SMOOTH",
"323 615 LINE SMOOTH",
"390 615 OFFCURVE",
"427 574 OFFCURVE",
"427 506 CURVE SMOOTH",
"427 408 LINE SMOOTH",
"427 340 OFFCURVE",
"390 299 OFFCURVE",
"323 299 CURVE SMOOTH"
);
},
{
closed = 1;
nodes = (
"112 0 LINE",
"117 0 OFFCURVE",
"120 2 OFFCURVE",
"120 9 CURVE SMOOTH",
"120 263 LINE SMOOTH",
"120 268 OFFCURVE",
"122 271 OFFCURVE",
"129 271 CURVE SMOOTH",
"312 271 LINE",
"434 9 LINE",
"438 2 OFFCURVE",
"441 0 OFFCURVE",
"447 0 CURVE SMOOTH",
"465 0 LINE SMOOTH",
"470 0 OFFCURVE",
"472 3 OFFCURVE",
"469 9 CURVE SMOOTH",
"346 269 LINE",
"346 273 LINE",
"414 282 OFFCURVE",
"457 332 OFFCURVE",
"457 407 CURVE SMOOTH",
"457 507 LINE SMOOTH",
"457 590 OFFCURVE",
"404 643 OFFCURVE",
"323 643 CURVE SMOOTH",
"98 643 LINE SMOOTH",
"93 643 OFFCURVE",
"90 641 OFFCURVE",
"90 634 CURVE SMOOTH",
"90 9 LINE SMOOTH",
"90 2 OFFCURVE",
"93 0 OFFCURVE",
"98 0 CURVE SMOOTH"
);
}
);
width = 530;
}
);
unicode = 0052;
},
{
glyphname = S;
layers = (
{
layerId = "B34F63BB-E885-4604-9CD3-F42791F97BAE";
paths = (
{
closed = 1;
nodes = (
"49 60 OFFCURVE",
"111 0 OFFCURVE",
"215 0 CURVE SMOOTH",
"324 0 LINE SMOOTH",
"428 0 OFFCURVE",
"490 60 OFFCURVE",
"490 164 CURVE SMOOTH",
"490 198 LINE SMOOTH",
"490 453 OFFCURVE",
"175 329 OFFCURVE",
"175 438 CURVE SMOOTH",
"175 457 LINE SMOOTH",
"175 517 OFFCURVE",
"191 533 OFFCURVE",
"245 533 CURVE SMOOTH",
"284 533 LINE SMOOTH",
"337 533 OFFCURVE",
"354 518 OFFCURVE",
"354 466 CURVE",
"354 465 OFFCURVE",
"354 460 OFFCURVE",
"354 460 CURVE",
"354 444 OFFCURVE",
"361 439 OFFCURVE",
"375 439 CURVE SMOOTH",
"460 439 LINE SMOOTH",
"474 439 OFFCURVE",
"481 444 OFFCURVE",
"481 460 CURVE SMOOTH",
"481 465 OFFCURVE",
"481 474 OFFCURVE",
"481 479 CURVE SMOOTH",
"481 583 OFFCURVE",
"419 643 OFFCURVE",
"314 643 CURVE SMOOTH",
"214 643 LINE SMOOTH",
"110 643 OFFCURVE",
"48 583 OFFCURVE",
"48 479 CURVE SMOOTH",
"48 444 LINE SMOOTH",
"48 180 OFFCURVE",
"363 320 OFFCURVE",
"363 193 CURVE SMOOTH",
"363 181 LINE SMOOTH",
"363 126 OFFCURVE",
"345 110 OFFCURVE",
"293 110 CURVE SMOOTH",
"246 110 LINE SMOOTH",
"193 110 OFFCURVE",
"176 125 OFFCURVE",
"176 176 CURVE",
"176 177 OFFCURVE",
"176 183 OFFCURVE",
"176 184 CURVE",
"176 200 OFFCURVE",
"169 205 OFFCURVE",
"155 205 CURVE SMOOTH",
"70 205 LINE SMOOTH",
"56 205 OFFCURVE",
"49 200 OFFCURVE",
"49 184 CURVE SMOOTH",
"49 180 OFFCURVE",
"49 168 OFFCURVE",
"49 164 CURVE SMOOTH"
);
}
);
width = 539;
},
{
layerId = "C14C6A9E-9E56-4950-A507-E7357A5C19D0";
paths = (
{
closed = 1;
nodes = (
"90 53 OFFCURVE",
"143 0 OFFCURVE",
"224 0 CURVE SMOOTH",
"344 0 LINE SMOOTH",
"425 0 OFFCURVE",
"478 53 OFFCURVE",
"478 136 CURVE SMOOTH",
"478 189 LINE SMOOTH",
"478 385 OFFCURVE",
"120 295 OFFCURVE",
"120 448 CURVE SMOOTH",
"120 506 LINE SMOOTH",
"120 574 OFFCURVE",
"157 615 OFFCURVE",
"224 615 CURVE SMOOTH",
"344 615 LINE SMOOTH",
"411 615 OFFCURVE",
"448 574 OFFCURVE",
"448 506 CURVE",
"448 506 OFFCURVE",
"448 477 OFFCURVE",
"448 477 CURVE",
"448 470 OFFCURVE",
"451 468 OFFCURVE",
"456 468 CURVE SMOOTH",
"470 468 LINE SMOOTH",
"475 468 OFFCURVE",
"478 470 OFFCURVE",
"478 477 CURVE",
"478 477 OFFCURVE",
"478 507 OFFCURVE",
"478 507 CURVE",
"478 590 OFFCURVE",
"425 643 OFFCURVE",
"344 643 CURVE SMOOTH",
"224 643 LINE SMOOTH",
"143 643 OFFCURVE",
"90 590 OFFCURVE",
"90 507 CURVE SMOOTH",
"90 447 LINE SMOOTH",
"90 267 OFFCURVE",
"448 358 OFFCURVE",
"448 187 CURVE SMOOTH",
"448 137 LINE SMOOTH",
"448 69 OFFCURVE",
"411 28 OFFCURVE",
"344 28 CURVE SMOOTH",
"224 28 LINE SMOOTH",
"157 28 OFFCURVE",
"120 69 OFFCURVE",
"120 137 CURVE",
"120 137 OFFCURVE",
"120 176 OFFCURVE",
"120 176 CURVE",
"120 183 OFFCURVE",
"117 185 OFFCURVE",
"112 185 CURVE SMOOTH",
"98 185 LINE SMOOTH",
"93 185 OFFCURVE",
"90 183 OFFCURVE",
"90 176 CURVE",
"90 176 OFFCURVE",
"90 136 OFFCURVE",
"90 136 CURVE"
);
}
);
width = 568;
}
);
unicode = 0053;
},
{
glyphname = T;
layers = (
{
layerId = "B34F63BB-E885-4604-9CD3-F42791F97BAE";
paths = (
{
closed = 1;
nodes = (
"264 0 LINE SMOOTH",
"278 0 OFFCURVE",
"285 5 OFFCURVE",
"285 21 CURVE SMOOTH",
"285 522 LINE SMOOTH",
"285 530 OFFCURVE",
"289 533 OFFCURVE",
"297 533 CURVE SMOOTH",
"411 533 LINE SMOOTH",
"426 533 OFFCURVE",
"432 540 OFFCURVE",
"432 554 CURVE SMOOTH",
"432 622 LINE SMOOTH",
"432 636 OFFCURVE",
"426 643 OFFCURVE",
"411 643 CURVE SMOOTH",
"33 643 LINE SMOOTH",
"17 643 OFFCURVE",
"12 636 OFFCURVE",
"12 622 CURVE SMOOTH",
"12 554 LINE SMOOTH",
"12 540 OFFCURVE",
"17 533 OFFCURVE",
"33 533 CURVE SMOOTH",
"147 533 LINE SMOOTH",
"155 533 OFFCURVE",
"158 530 OFFCURVE",
"158 522 CURVE SMOOTH",
"158 21 LINE SMOOTH",
"158 5 OFFCURVE",
"165 0 OFFCURVE",
"180 0 CURVE SMOOTH"
);
}
);
width = 443;
},
{
layerId = "C14C6A9E-9E56-4950-A507-E7357A5C19D0";
paths = (
{
closed = 1;
nodes = (
"214 0 LINE",
"219 0 OFFCURVE",
"222 2 OFFCURVE",
"222 9 CURVE SMOOTH",
"222 607 LINE SMOOTH",
"222 612 OFFCURVE",
"224 615 OFFCURVE",
"231 615 CURVE SMOOTH",
"385 615 LINE SMOOTH",
"392 615 OFFCURVE",
"394 618 OFFCURVE",
"394 623 CURVE SMOOTH",
"394 635 LINE SMOOTH",
"394 640 OFFCURVE",
"392 643 OFFCURVE",
"385 643 CURVE SMOOTH",
"29 643 LINE SMOOTH",
"22 643 OFFCURVE",
"20 640 OFFCURVE",
"20 635 CURVE SMOOTH",
"20 623 LINE SMOOTH",
"20 618 OFFCURVE",
"22 615 OFFCURVE",
"29 615 CURVE SMOOTH",
"183 615 LINE SMOOTH",
"190 615 OFFCURVE",
"192 612 OFFCURVE",
"192 607 CURVE SMOOTH",
"192 9 LINE SMOOTH",
"192 2 OFFCURVE",
"195 0 OFFCURVE",
"200 0 CURVE SMOOTH"
);
}
);
width = 414;
}
);
unicode = 0054;
},
{
glyphname = U;
layers = (
{
layerId = "B34F63BB-E885-4604-9CD3-F42791F97BAE";
paths = (
{
closed = 1;
nodes = (
"394 643 LINE SMOOTH",
"380 643 OFFCURVE",
"373 638 OFFCURVE",
"373 622 CURVE SMOOTH",
"373 169 LINE SMOOTH",
"373 127 OFFCURVE",
"357 110 OFFCURVE",
"314 110 CURVE SMOOTH",
"245 110 LINE SMOOTH",
"203 110 OFFCURVE",
"187 127 OFFCURVE",
"187 169 CURVE SMOOTH",
"187 622 LINE SMOOTH",
"187 638 OFFCURVE",
"180 643 OFFCURVE",
"166 643 CURVE SMOOTH",
"81 643 LINE SMOOTH",
"67 643 OFFCURVE",
"60 638 OFFCURVE",
"60 622 CURVE SMOOTH",
"60 163 LINE SMOOTH",
"60 58 OFFCURVE",
"120 0 OFFCURVE",
"225 0 CURVE SMOOTH",
"335 0 LINE SMOOTH",
"439 0 OFFCURVE",
"500 58 OFFCURVE",
"500 163 CURVE SMOOTH",
"500 623 LINE SMOOTH",
"500 638 OFFCURVE",
"493 643 OFFCURVE",
"478 643 CURVE SMOOTH"
);
}
);
width = 560;
},
{
layerId = "C14C6A9E-9E56-4950-A507-E7357A5C19D0";
paths = (
{
closed = 1;
nodes = (
"443 643 LINE",
"438 643 OFFCURVE",
"435 640 OFFCURVE",
"435 634 CURVE SMOOTH",
"435 137 LINE SMOOTH",
"435 69 OFFCURVE",
"398 28 OFFCURVE",
"331 28 CURVE SMOOTH",
"219 28 LINE SMOOTH",
"152 28 OFFCURVE",
"115 69 OFFCURVE",
"115 137 CURVE SMOOTH",
"115 634 LINE SMOOTH",
"115 641 OFFCURVE",
"112 643 OFFCURVE",
"107 643 CURVE SMOOTH",
"93 643 LINE SMOOTH",
"88 643 OFFCURVE",
"85 641 OFFCURVE",
"85 634 CURVE SMOOTH",
"85 136 LINE SMOOTH",
"85 53 OFFCURVE",
"138 0 OFFCURVE",
"219 0 CURVE SMOOTH",
"331 0 LINE SMOOTH",
"412 0 OFFCURVE",
"465 53 OFFCURVE",
"465 136 CURVE SMOOTH",
"465 635 LINE SMOOTH",
"465 640 OFFCURVE",
"462 643 OFFCURVE",
"457 643 CURVE SMOOTH"
);
}
);
width = 550;
}
);
unicode = 0055;
},
{
glyphname = V;
layers = (
{
layerId = "B34F63BB-E885-4604-9CD3-F42791F97BAE";
paths = (
{
closed = 1;
nodes = (
"327 0 LINE SMOOTH",
"339 0 OFFCURVE",
"347 5 OFFCURVE",
"351 21 CURVE SMOOTH",
"506 620 LINE",
"509 634 OFFCURVE",
"502 643 OFFCURVE",
"486 643 CURVE SMOOTH",
"392 643 LINE SMOOTH",
"377 643 OFFCURVE",
"371 638 OFFCURVE",
"368 622 CURVE SMOOTH",
"263 130 LINE",
"263 130 OFFCURVE",
"259 130 OFFCURVE",
"259 130 CURVE",
"154 622 LINE SMOOTH",
"151 638 OFFCURVE",
"145 643 OFFCURVE",
"130 643 CURVE SMOOTH",
"36 643 LINE SMOOTH",
"19 643 OFFCURVE",
"12 634 OFFCURVE",
"16 620 CURVE SMOOTH",
"171 21 LINE",
"174 5 OFFCURVE",
"183 0 OFFCURVE",
"196 0 CURVE SMOOTH"
);
}
);
width = 521;
},
{
layerId = "C14C6A9E-9E56-4950-A507-E7357A5C19D0";
paths = (
{
closed = 1;
nodes = (
"259 0 LINE SMOOTH",
"264 0 OFFCURVE",
"267 2 OFFCURVE",
"269 9 CURVE SMOOTH",
"463 634 LINE SMOOTH",
"465 641 OFFCURVE",
"462 643 OFFCURVE",
"457 643 CURVE SMOOTH",
"442 643 LINE SMOOTH",
"437 643 OFFCURVE",
"434 641 OFFCURVE",
"432 634 CURVE SMOOTH",
"249 44 LINE",
"248 44 OFFCURVE",
"246 44 OFFCURVE",
"245 44 CURVE",
"62 634 LINE SMOOTH",
"60 641 OFFCURVE",
"57 643 OFFCURVE",
"52 643 CURVE SMOOTH",
"37 643 LINE SMOOTH",
"32 643 OFFCURVE",
"29 641 OFFCURVE",
"31 634 CURVE SMOOTH",
"225 9 LINE SMOOTH",
"227 2 OFFCURVE",
"230 0 OFFCURVE",
"235 0 CURVE SMOOTH"
);
}
);
width = 494;
}
);
unicode = 0056;
},
{
glyphname = W;
layers = (
{
layerId = "B34F63BB-E885-4604-9CD3-F42791F97BAE";
paths = (
{
closed = 1;
nodes = (
"287 0 LINE SMOOTH",
"299 0 OFFCURVE",
"308 6 OFFCURVE",
"311 21 CURVE SMOOTH",
"402 490 LINE",
"406 490 LINE",
"496 21 LINE",
"498 7 OFFCURVE",
"506 0 OFFCURVE",
"520 0 CURVE SMOOTH",
"661 0 LINE SMOOTH",
"675 0 OFFCURVE",
"682 7 OFFCURVE",
"684 21 CURVE",
"792 621 LINE",
"794 635 OFFCURVE",
"787 643 OFFCURVE",
"771 643 CURVE SMOOTH",
"667 643 LINE SMOOTH",
"653 643 OFFCURVE",
"644 636 OFFCURVE",
"643 621 CURVE",
"586 129 LINE",
"578 129 LINE",
"480 626 LINE",
"478 639 OFFCURVE",
"469 643 OFFCURVE",
"458 643 CURVE SMOOTH",
"346 643 LINE SMOOTH",
"337 643 OFFCURVE",
"327 639 OFFCURVE",
"325 625 CURVE",
"229 129 LINE",
"222 129 LINE",
"164 622 LINE",
"163 639 OFFCURVE",
"154 643 OFFCURVE",
"140 643 CURVE SMOOTH",
"36 643 LINE SMOOTH",
"21 643 OFFCURVE",
"13 636 OFFCURVE",
"15 622 CURVE SMOOTH",
"122 21 LINE",
"124 5 OFFCURVE",
"133 0 OFFCURVE",
"147 0 CURVE SMOOTH"
);
}
);
width = 807;
},
{
layerId = "C14C6A9E-9E56-4950-A507-E7357A5C19D0";
paths = (
{
closed = 1;
nodes = (
"219 0 LINE",
"224 0 OFFCURVE",
"227 3 OFFCURVE",
"229 9 CURVE",
"393 599 LINE",
"397 599 LINE",
"561 9 LINE",
"563 3 OFFCURVE",
"567 0 OFFCURVE",
"572 0 CURVE SMOOTH",
"599 0 LINE SMOOTH",
"604 0 OFFCURVE",
"607 1 OFFCURVE",
"609 9 CURVE SMOOTH",
"754 634 LINE",
"756 641 OFFCURVE",
"753 643 OFFCURVE",
"748 643 CURVE SMOOTH",
"733 643 LINE SMOOTH",
"728 643 OFFCURVE",
"724 642 OFFCURVE",
"722 634 CURVE SMOOTH",
"587 38 LINE",
"583 38 LINE",
"415 634 LINE SMOOTH",
"413 641 OFFCURVE",
"410 643 OFFCURVE",
"404 643 CURVE SMOOTH",
"385 643 LINE SMOOTH",
"379 643 OFFCURVE",
"376 641 OFFCURVE",
"374 634 CURVE SMOOTH",
"207 38 LINE",
"203 38 LINE",
"68 634 LINE",
"66 641 OFFCURVE",
"63 643 OFFCURVE",
"58 643 CURVE SMOOTH",
"44 643 LINE SMOOTH",
"37 643 OFFCURVE",
"35 640 OFFCURVE",
"36 634 CURVE",
"181 9 LINE",
"183 2 OFFCURVE",
"187 0 OFFCURVE",
"192 0 CURVE SMOOTH"
);
}
);
width = 790;
}
);
unicode = 0057;
},
{
glyphname = X;
layers = (
{
layerId = "B34F63BB-E885-4604-9CD3-F42791F97BAE";
paths = (
{
closed = 1;
nodes = (
"371 20 LINE",
"377 5 OFFCURVE",
"387 0 OFFCURVE",
"400 0 CURVE SMOOTH",
"500 0 LINE SMOOTH",
"514 0 OFFCURVE",
"521 10 OFFCURVE",
"514 23 CURVE SMOOTH",
"359 329 LINE",
"511 620 LINE SMOOTH",
"516 630 OFFCURVE",
"510 643 OFFCURVE",
"496 643 CURVE SMOOTH",
"398 643 LINE SMOOTH",
"384 643 OFFCURVE",
"374 638 OFFCURVE",
"366 622 CURVE",
"272 407 LINE",
"268 407 LINE",
"173 622 LINE",
"167 638 OFFCURVE",
"154 643 OFFCURVE",
"140 643 CURVE SMOOTH",
"44 643 LINE SMOOTH",
"31 643 OFFCURVE",
"24 632 OFFCURVE",
"30 621 CURVE SMOOTH",
"180 329 LINE",
"25 22 LINE SMOOTH",
"19 10 OFFCURVE",
"26 0 OFFCURVE",
"39 0 CURVE SMOOTH",
"138 0 LINE SMOOTH",
"152 0 OFFCURVE",
"161 5 OFFCURVE",
"168 20 CURVE SMOOTH",
"268 236 LINE",
"272 236 LINE"
);
}
);
width = 540;
},
{
layerId = "C14C6A9E-9E56-4950-A507-E7357A5C19D0";
paths = (
{
closed = 1;
nodes = (
"426 7 LINE",
"429 2 OFFCURVE",
"432 0 OFFCURVE",
"437 0 CURVE SMOOTH",
"453 0 LINE SMOOTH",
"459 0 OFFCURVE",
"460 4 OFFCURVE",
"457 9 CURVE SMOOTH",
"268 343 LINE",
"446 634 LINE",
"450 641 OFFCURVE",
"447 643 OFFCURVE",
"442 643 CURVE SMOOTH",
"426 643 LINE SMOOTH",
"420 643 OFFCURVE",
"417 641 OFFCURVE",
"413 634 CURVE SMOOTH",
"250 365 LINE",
"246 365 LINE",
"82 634 LINE",
"78 641 OFFCURVE",
"74 643 OFFCURVE",
"68 643 CURVE SMOOTH",
"54 643 LINE SMOOTH",
"49 643 OFFCURVE",
"46 639 OFFCURVE",
"49 634 CURVE SMOOTH",
"228 342 LINE",
"38 9 LINE SMOOTH",
"35 4 OFFCURVE",
"36 0 OFFCURVE",
"42 0 CURVE SMOOTH",
"58 0 LINE SMOOTH",
"63 0 OFFCURVE",
"66 2 OFFCURVE",
"69 7 CURVE SMOOTH",
"245 317 LINE",
"249 317 LINE"
);
}
);
width = 494;
}
);
unicode = 0058;
},
{
glyphname = Y;
layers = (
{
layerId = "B34F63BB-E885-4604-9CD3-F42791F97BAE";
paths = (
{
closed = 1;
nodes = (
"301 0 LINE SMOOTH",
"315 0 OFFCURVE",
"322 5 OFFCURVE",
"322 21 CURVE SMOOTH",
"322 235 LINE",
"505 621 LINE",
"512 634 OFFCURVE",
"504 643 OFFCURVE",
"491 643 CURVE SMOOTH",
"385 643 LINE SMOOTH",
"372 643 OFFCURVE",
"366 637 OFFCURVE",
"361 622 CURVE",
"263 379 LINE",
"256 379 LINE",
"156 622 LINE SMOOTH",
"150 637 OFFCURVE",
"145 643 OFFCURVE",
"132 643 CURVE SMOOTH",
"26 643 LINE SMOOTH",
"15 643 OFFCURVE",
"6 634 OFFCURVE",
"12 621 CURVE SMOOTH",
"195 235 LINE",
"195 21 LINE SMOOTH",
"195 5 OFFCURVE",
"202 0 OFFCURVE",
"216 0 CURVE SMOOTH"
);
}
);
width = 517;
},
{
layerId = "C14C6A9E-9E56-4950-A507-E7357A5C19D0";
paths = (
{
closed = 1;
nodes = (
"250 0 LINE SMOOTH",
"255 0 OFFCURVE",
"258 2 OFFCURVE",
"258 9 CURVE SMOOTH",
"258 245 LINE",
"455 634 LINE SMOOTH",
"458 640 OFFCURVE",
"455 643 OFFCURVE",
"450 643 CURVE SMOOTH",
"432 643 LINE SMOOTH",
"427 643 OFFCURVE",
"424 641 OFFCURVE",
"421 634 CURVE",
"245 284 LINE",
"241 284 LINE",
"65 634 LINE",
"62 641 OFFCURVE",
"59 643 OFFCURVE",
"54 643 CURVE SMOOTH",
"36 643 LINE SMOOTH",
"31 643 OFFCURVE",
"28 640 OFFCURVE",
"31 634 CURVE SMOOTH",
"228 245 LINE",
"228 9 LINE SMOOTH",
"228 2 OFFCURVE",
"231 0 OFFCURVE",
"236 0 CURVE SMOOTH"
);
}
);
width = 486;
}
);
unicode = 0059;
},
{
glyphname = Z;
layers = (
{
layerId = "B34F63BB-E885-4604-9CD3-F42791F97BAE";
paths = (
{
closed = 1;
nodes = (
"48 21 LINE SMOOTH",
"48 7 OFFCURVE",
"53 0 OFFCURVE",
"69 0 CURVE SMOOTH",
"452 0 LINE SMOOTH",
"467 0 OFFCURVE",
"472 9 OFFCURVE",
"472 23 CURVE SMOOTH",
"472 99 LINE SMOOTH",
"472 113 OFFCURVE",
"467 118 OFFCURVE",
"452 118 CURVE SMOOTH",
"198 118 LINE",
"198 122 LINE",
"447 484 LINE SMOOTH",
"458 500 OFFCURVE",
"462 511 OFFCURVE",
"462 536 CURVE SMOOTH",
"462 622 LINE SMOOTH",
"462 636 OFFCURVE",
"457 643 OFFCURVE",
"442 643 CURVE SMOOTH",
"87 643 LINE SMOOTH",
"72 643 OFFCURVE",
"66 636 OFFCURVE",
"66 622 CURVE SMOOTH",
"66 546 LINE SMOOTH",
"66 532 OFFCURVE",
"72 525 OFFCURVE",
"87 525 CURVE SMOOTH",
"326 525 LINE",
"326 521 LINE",
"61 130 LINE",
"49 115 OFFCURVE",
"48 99 OFFCURVE",
"48 81 CURVE SMOOTH"
);
}
);
width = 521;
},
{
layerId = "C14C6A9E-9E56-4950-A507-E7357A5C19D0";
paths = (
{
closed = 1;
nodes = (
"40 8 LINE",
"40 3 OFFCURVE",
"42 0 OFFCURVE",
"49 0 CURVE SMOOTH",
"422 0 LINE SMOOTH",
"429 0 OFFCURVE",
"431 3 OFFCURVE",
"431 8 CURVE SMOOTH",
"431 20 LINE SMOOTH",
"431 25 OFFCURVE",
"429 28 OFFCURVE",
"422 28 CURVE SMOOTH",
"75 28 LINE",
"75 32 LINE",
"419 608 LINE",
"421 611 OFFCURVE",
"421 614 OFFCURVE",
"421 616 CURVE",
"421 635 LINE SMOOTH",
"421 640 OFFCURVE",
"419 643 OFFCURVE",
"412 643 CURVE SMOOTH",
"59 643 LINE SMOOTH",
"52 643 OFFCURVE",
"50 640 OFFCURVE",
"50 635 CURVE SMOOTH",
"50 623 LINE SMOOTH",
"50 618 OFFCURVE",
"52 615 OFFCURVE",
"59 615 CURVE SMOOTH",
"386 615 LINE",
"386 611 LINE",
"42 34 LINE",
"40 31 OFFCURVE",
"40 29 OFFCURVE",
"40 25 CURVE SMOOTH"
);
}
);
width = 471;
}
);
unicode = 005A;
},
{
glyphname = bracketleft;
layers = (
{
layerId = "B34F63BB-E885-4604-9CD3-F42791F97BAE";
paths = (
{
closed = 1;
nodes = (
"241 -98 LINE SMOOTH",
"256 -98 OFFCURVE",
"261 -91 OFFCURVE",
"261 -77 CURVE SMOOTH",
"261 -34 LINE SMOOTH",
"261 -20 OFFCURVE",
"256 -13 OFFCURVE",
"241 -13 CURVE SMOOTH",
"191 -13 LINE SMOOTH",
"183 -13 OFFCURVE",
"179 -10 OFFCURVE",
"179 -1 CURVE SMOOTH",
"179 546 LINE SMOOTH",
"179 555 OFFCURVE",
"183 558 OFFCURVE",
"191 558 CURVE SMOOTH",
"241 558 LINE SMOOTH",
"256 558 OFFCURVE",
"261 565 OFFCURVE",
"261 579 CURVE SMOOTH",
"261 622 LINE SMOOTH",
"261 636 OFFCURVE",
"256 643 OFFCURVE",
"241 643 CURVE SMOOTH",
"97 643 LINE SMOOTH",
"82 643 OFFCURVE",
"77 636 OFFCURVE",
"77 622 CURVE SMOOTH",
"77 -76 LINE SMOOTH",
"77 -91 OFFCURVE",
"82 -98 OFFCURVE",
"97 -98 CURVE SMOOTH"
);
}
);
width = 323;
},
{
layerId = "C14C6A9E-9E56-4950-A507-E7357A5C19D0";
paths = (
{
closed = 1;
nodes = (
"198 -102 LINE SMOOTH",
"205 -102 OFFCURVE",
"207 -99 OFFCURVE",
"207 -94 CURVE SMOOTH",
"207 -82 LINE SMOOTH",
"207 -77 OFFCURVE",
"205 -74 OFFCURVE",
"198 -74 CURVE SMOOTH",
"99 -74 LINE SMOOTH",
"92 -74 OFFCURVE",
"90 -71 OFFCURVE",
"90 -66 CURVE SMOOTH",
"90 607 LINE SMOOTH",
"90 612 OFFCURVE",
"92 615 OFFCURVE",
"99 615 CURVE SMOOTH",
"198 615 LINE SMOOTH",
"205 615 OFFCURVE",
"207 618 OFFCURVE",
"207 623 CURVE SMOOTH",
"207 635 LINE SMOOTH",
"207 640 OFFCURVE",
"205 643 OFFCURVE",
"198 643 CURVE SMOOTH",
"68 643 LINE SMOOTH",
"63 643 OFFCURVE",
"60 641 OFFCURVE",
"60 634 CURVE SMOOTH",
"60 -93 LINE SMOOTH",
"60 -100 OFFCURVE",
"63 -102 OFFCURVE",
"68 -102 CURVE SMOOTH"
);
}
);
width = 277;
}
);
unicode = 005B;
},
{
glyphname = backslash;
layers = (
{
layerId = "B34F63BB-E885-4604-9CD3-F42791F97BAE";
paths = (
{
closed = 1;
nodes = (
"259 21 LINE SMOOTH",
"265 5 OFFCURVE",
"272 0 OFFCURVE",
"286 0 CURVE SMOOTH",
"363 0 LINE SMOOTH",
"377 0 OFFCURVE",
"385 6 OFFCURVE",
"379 21 CURVE SMOOTH",
"315 186 OFFCURVE",
"215 457 OFFCURVE",
"151 622 CURVE SMOOTH",
"145 636 OFFCURVE",
"139 643 OFFCURVE",
"124 643 CURVE SMOOTH",
"46 643 LINE SMOOTH",
"32 643 OFFCURVE",
"25 637 OFFCURVE",
"31 622 CURVE SMOOTH"
);
}
);
width = 409;
},
{
layerId = "C14C6A9E-9E56-4950-A507-E7357A5C19D0";
paths = (
{
closed = 1;
nodes = (
"288 11 LINE",
"291 3 OFFCURVE",
"295 0 OFFCURVE",
"301 0 CURVE SMOOTH",
"314 0 LINE SMOOTH",
"320 0 OFFCURVE",
"325 4 OFFCURVE",
"322 12 CURVE",
"322 12 OFFCURVE",
"104 632 OFFCURVE",
"104 632 CURVE",
"101 640 OFFCURVE",
"98 643 OFFCURVE",
"91 643 CURVE SMOOTH",
"77 643 LINE SMOOTH",
"70 643 OFFCURVE",
"68 637 OFFCURVE",
"71 629 CURVE SMOOTH"
);
}
);
width = 393;
}
);
unicode = 005C;
},
{
glyphname = bracketright;
layers = (
{
layerId = "B34F63BB-E885-4604-9CD3-F42791F97BAE";
paths = (
{
closed = 1;
nodes = (
"60 -77 LINE SMOOTH",
"60 -91 OFFCURVE",
"65 -98 OFFCURVE",
"81 -98 CURVE SMOOTH",
"224 -98 LINE SMOOTH",
"239 -98 OFFCURVE",
"244 -91 OFFCURVE",
"244 -76 CURVE SMOOTH",
"244 622 LINE SMOOTH",
"244 636 OFFCURVE",
"239 643 OFFCURVE",
"224 643 CURVE SMOOTH",
"81 643 LINE SMOOTH",
"65 643 OFFCURVE",
"60 636 OFFCURVE",
"60 622 CURVE SMOOTH",
"60 579 LINE SMOOTH",
"60 565 OFFCURVE",
"65 558 OFFCURVE",
"81 558 CURVE SMOOTH",
"131 558 LINE SMOOTH",
"138 558 OFFCURVE",
"142 555 OFFCURVE",
"142 546 CURVE SMOOTH",
"142 -1 LINE SMOOTH",
"142 -10 OFFCURVE",
"138 -13 OFFCURVE",
"131 -13 CURVE SMOOTH",
"81 -13 LINE SMOOTH",
"65 -13 OFFCURVE",
"60 -20 OFFCURVE",
"60 -34 CURVE SMOOTH"
);
}
);
width = 323;
},
{
layerId = "C14C6A9E-9E56-4950-A507-E7357A5C19D0";
paths = (
{
closed = 1;
nodes = (
"60 -94 LINE",
"60 -99 OFFCURVE",
"62 -102 OFFCURVE",
"69 -102 CURVE SMOOTH",
"199 -102 LINE SMOOTH",
"204 -102 OFFCURVE",
"207 -100 OFFCURVE",
"207 -93 CURVE SMOOTH",
"207 634 LINE SMOOTH",
"207 641 OFFCURVE",
"204 643 OFFCURVE",
"199 643 CURVE SMOOTH",
"69 643 LINE SMOOTH",
"62 643 OFFCURVE",
"60 640 OFFCURVE",
"60 635 CURVE SMOOTH",
"60 623 LINE SMOOTH",
"60 618 OFFCURVE",
"62 615 OFFCURVE",
"69 615 CURVE SMOOTH",
"168 615 LINE SMOOTH",
"175 615 OFFCURVE",
"177 612 OFFCURVE",
"177 607 CURVE SMOOTH",
"177 -66 LINE SMOOTH",
"177 -71 OFFCURVE",
"175 -74 OFFCURVE",
"168 -74 CURVE SMOOTH",
"69 -74 LINE SMOOTH",
"62 -74 OFFCURVE",
"60 -77 OFFCURVE",
"60 -82 CURVE SMOOTH"
);
}
);
width = 277;
}
);
unicode = 005D;
},
{
glyphname = asciicircum;
layers = (
{
layerId = "B34F63BB-E885-4604-9CD3-F42791F97BAE";
paths = (
{
closed = 1;
nodes = (
"345 382 LINE SMOOTH",
"352 368 OFFCURVE",
"358 362 OFFCURVE",
"372 362 CURVE SMOOTH",
"449 362 LINE SMOOTH",
"463 362 OFFCURVE",
"472 368 OFFCURVE",
"464 383 CURVE SMOOTH",
"344 612 LINE SMOOTH",
"332 636 OFFCURVE",
"323 643 OFFCURVE",
"300 643 CURVE SMOOTH",
"210 643 LINE SMOOTH",
"187 643 OFFCURVE",
"178 636 OFFCURVE",
"166 612 CURVE SMOOTH",
"46 383 LINE SMOOTH",
"38 368 OFFCURVE",
"47 362 OFFCURVE",
"61 362 CURVE SMOOTH",
"138 362 LINE SMOOTH",
"152 362 OFFCURVE",
"158 368 OFFCURVE",
"165 382 CURVE SMOOTH",
"255 561 LINE"
);
}
);
width = 511;
},
{
layerId = "C14C6A9E-9E56-4950-A507-E7357A5C19D0";
paths = (
{
closed = 1;
nodes = (
"360 374 LINE",
"364 368 OFFCURVE",
"367 365 OFFCURVE",
"374 365 CURVE SMOOTH",
"384 365 LINE SMOOTH",
"392 365 OFFCURVE",
"395 370 OFFCURVE",
"391 377 CURVE",
"257 632 LINE",
"253 639 OFFCURVE",
"248 643 OFFCURVE",
"238 643 CURVE SMOOTH",
"215 643 LINE SMOOTH",
"205 643 OFFCURVE",
"200 639 OFFCURVE",
"196 632 CURVE",
"62 377 LINE",
"58 370 OFFCURVE",
"61 365 OFFCURVE",
"69 365 CURVE SMOOTH",
"79 365 LINE SMOOTH",
"86 365 OFFCURVE",
"89 368 OFFCURVE",
"93 374 CURVE",
"226 626 LINE"
);
}
);
width = 453;
}
);
unicode = 005E;
},
{
glyphname = underscore;
layers = (
{
layerId = "B34F63BB-E885-4604-9CD3-F42791F97BAE";
paths = (
{
closed = 1;
nodes = (
"351 -112 LINE SMOOTH",
"367 -112 OFFCURVE",
"372 -105 OFFCURVE",
"372 -90 CURVE SMOOTH",
"372 -64 LINE SMOOTH",
"372 -50 OFFCURVE",
"367 -43 OFFCURVE",
"351 -43 CURVE SMOOTH",
"21 -43 LINE SMOOTH",
"5 -43 OFFCURVE",
"0 -50 OFFCURVE",
"0 -64 CURVE SMOOTH",
"0 -90 LINE SMOOTH",
"0 -105 OFFCURVE",
"5 -112 OFFCURVE",
"21 -112 CURVE SMOOTH"
);
}
);
width = 372;
},
{
layerId = "C14C6A9E-9E56-4950-A507-E7357A5C19D0";
paths = (
{
closed = 1;
nodes = (
"363 -96 LINE",
"370 -96 OFFCURVE",
"372 -93 OFFCURVE",
"372 -88 CURVE SMOOTH",
"372 -76 LINE SMOOTH",
"372 -71 OFFCURVE",
"370 -68 OFFCURVE",
"363 -68 CURVE SMOOTH",
"9 -68 LINE SMOOTH",
"2 -68 OFFCURVE",
"0 -71 OFFCURVE",
"0 -76 CURVE SMOOTH",
"0 -88 LINE SMOOTH",
"0 -93 OFFCURVE",
"2 -96 OFFCURVE",
"9 -96 CURVE SMOOTH"
);
}
);
width = 372;
}
);
unicode = 005F;
},
{
glyphname = grave;
layers = (
{
layerId = "B34F63BB-E885-4604-9CD3-F42791F97BAE";
paths = (
{
closed = 1;
nodes = (
"197 684 LINE",
"189 698 OFFCURVE",
"179 703 OFFCURVE",
"167 703 CURVE SMOOTH",
"68 703 LINE SMOOTH",
"54 703 OFFCURVE",
"49 694 OFFCURVE",
"58 683 CURVE SMOOTH",
"139 587 LINE SMOOTH",
"146 579 OFFCURVE",
"156 574 OFFCURVE",
"166 574 CURVE SMOOTH",
"231 574 LINE SMOOTH",
"244 574 OFFCURVE",
"249 580 OFFCURVE",
"241 595 CURVE SMOOTH"
);
}
);
width = 298;
},
{
layerId = "C14C6A9E-9E56-4950-A507-E7357A5C19D0";
paths = (
{
closed = 1;
nodes = (
"121 694 LINE",
"118 700 OFFCURVE",
"113 703 OFFCURVE",
"106 703 CURVE SMOOTH",
"76 703 LINE SMOOTH",
"71 703 OFFCURVE",
"68 699 OFFCURVE",
"72 694 CURVE SMOOTH",
"164 582 LINE SMOOTH",
"168 577 OFFCURVE",
"173 574 OFFCURVE",
"178 574 CURVE SMOOTH",
"186 574 LINE SMOOTH",
"191 574 OFFCURVE",
"192 578 OFFCURVE",
"189 583 CURVE SMOOTH"
);
}
);
width = 261;
}
);
unicode = 0060;
},
{
glyphname = a;
layers = (
{
layerId = "B34F63BB-E885-4604-9CD3-F42791F97BAE";
paths = (
{
closed = 1;
nodes = (
"336 186 LINE SMOOTH",
"336 143 OFFCURVE",
"322 110 OFFCURVE",
"267 110 CURVE SMOOTH",
"230 110 LINE SMOOTH",
"187 110 OFFCURVE",
"172 127 OFFCURVE",
"172 169 CURVE SMOOTH",
"172 341 LINE SMOOTH",
"172 383 OFFCURVE",
"187 400 OFFCURVE",
"230 400 CURVE SMOOTH",
"324 400 LINE SMOOTH",
"332 400 OFFCURVE",
"336 397 OFFCURVE",
"336 389 CURVE SMOOTH"
);
},
{
closed = 1;
nodes = (
"234 0 LINE SMOOTH",
"271 0 OFFCURVE",
"316 15 OFFCURVE",
"332 54 CURVE",
"336 54 LINE",
"336 21 LINE SMOOTH",
"336 5 OFFCURVE",
"343 0 OFFCURVE",
"357 0 CURVE SMOOTH",
"441 0 LINE SMOOTH",
"456 0 OFFCURVE",
"463 5 OFFCURVE",
"463 21 CURVE SMOOTH",
"463 489 LINE SMOOTH",
"463 505 OFFCURVE",
"456 510 OFFCURVE",
"441 510 CURVE SMOOTH",
"210 510 LINE SMOOTH",
"105 510 OFFCURVE",
"45 452 OFFCURVE",
"45 347 CURVE SMOOTH",
"45 163 LINE SMOOTH",
"45 58 OFFCURVE",
"105 0 OFFCURVE",
"210 0 CURVE SMOOTH"
);
}
);
width = 518;
},
{
layerId = "C14C6A9E-9E56-4950-A507-E7357A5C19D0";
paths = (
{
closed = 1;
nodes = (
"388 132 LINE",
"388 63 OFFCURVE",
"341 28 OFFCURVE",
"276 28 CURVE SMOOTH",
"204 28 LINE SMOOTH",
"137 28 OFFCURVE",
"100 69 OFFCURVE",
"100 137 CURVE SMOOTH",
"100 373 LINE SMOOTH",
"100 441 OFFCURVE",
"137 482 OFFCURVE",
"204 482 CURVE SMOOTH",
"379 482 LINE SMOOTH",
"386 482 OFFCURVE",
"388 479 OFFCURVE",
"388 474 CURVE SMOOTH"
);
},
{
closed = 1;
nodes = (
"278 0 LINE SMOOTH",
"341 0 OFFCURVE",
"370 26 OFFCURVE",
"384 52 CURVE",
"388 52 LINE",
"388 9 LINE SMOOTH",
"388 2 OFFCURVE",
"391 0 OFFCURVE",
"396 0 CURVE SMOOTH",
"410 0 LINE SMOOTH",
"415 0 OFFCURVE",
"418 2 OFFCURVE",
"418 9 CURVE SMOOTH",
"418 501 LINE SMOOTH",
"418 508 OFFCURVE",
"415 510 OFFCURVE",
"410 510 CURVE SMOOTH",
"204 510 LINE SMOOTH",
"123 510 OFFCURVE",
"70 457 OFFCURVE",
"70 374 CURVE SMOOTH",
"70 136 LINE SMOOTH",
"70 53 OFFCURVE",
"123 0 OFFCURVE",
"204 0 CURVE SMOOTH"
);
}
);
width = 498;
}
);
unicode = 0061;
},
{
glyphname = b;
layers = (
{
layerId = "B34F63BB-E885-4604-9CD3-F42791F97BAE";
paths = (
{
closed = 1;
nodes = (
"55 21 LINE SMOOTH",
"55 5 OFFCURVE",
"62 0 OFFCURVE",
"76 0 CURVE SMOOTH",
"316 0 LINE SMOOTH",
"421 0 OFFCURVE",
"481 58 OFFCURVE",
"481 163 CURVE SMOOTH",
"481 349 LINE SMOOTH",
"481 454 OFFCURVE",
"421 512 OFFCURVE",
"316 512 CURVE SMOOTH",
"284 512 LINE SMOOTH",
"247 512 OFFCURVE",
"202 496 OFFCURVE",
"186 457 CURVE",
"182 457 LINE",
"182 682 LINE SMOOTH",
"182 698 OFFCURVE",
"175 703 OFFCURVE",
"161 703 CURVE SMOOTH",
"76 703 LINE SMOOTH",
"62 703 OFFCURVE",
"55 698 OFFCURVE",
"55 682 CURVE SMOOTH"
);
},
{
closed = 1;
nodes = (
"193 110 LINE SMOOTH",
"186 110 OFFCURVE",
"182 113 OFFCURVE",
"182 121 CURVE SMOOTH",
"182 326 LINE SMOOTH",
"182 369 OFFCURVE",
"196 402 OFFCURVE",
"251 402 CURVE SMOOTH",
"295 402 LINE SMOOTH",
"338 402 OFFCURVE",
"354 385 OFFCURVE",
"354 343 CURVE SMOOTH",
"354 169 LINE SMOOTH",
"354 127 OFFCURVE",
"338 110 OFFCURVE",
"295 110 CURVE SMOOTH"
);
}
);
width = 526;
},
{
layerId = "C14C6A9E-9E56-4950-A507-E7357A5C19D0";
paths = (
{
closed = 1;
nodes = (
"80 9 LINE",
"80 2 OFFCURVE",
"83 0 OFFCURVE",
"88 0 CURVE SMOOTH",
"294 0 LINE SMOOTH",
"375 0 OFFCURVE",
"428 53 OFFCURVE",
"428 136 CURVE SMOOTH",
"428 384 LINE SMOOTH",
"428 467 OFFCURVE",
"375 520 OFFCURVE",
"294 520 CURVE SMOOTH",
"220 520 LINE SMOOTH",
"157 520 OFFCURVE",
"128 494 OFFCURVE",
"114 468 CURVE",
"110 468 LINE",
"110 694 LINE SMOOTH",
"110 701 OFFCURVE",
"107 703 OFFCURVE",
"102 703 CURVE SMOOTH",
"88 703 LINE SMOOTH",
"83 703 OFFCURVE",
"80 701 OFFCURVE",
"80 694 CURVE SMOOTH"
);
},
{
closed = 1;
nodes = (
"119 28 LINE SMOOTH",
"112 28 OFFCURVE",
"110 31 OFFCURVE",
"110 36 CURVE SMOOTH",
"110 388 LINE SMOOTH",
"110 457 OFFCURVE",
"157 492 OFFCURVE",
"222 492 CURVE SMOOTH",
"294 492 LINE SMOOTH",
"361 492 OFFCURVE",
"398 451 OFFCURVE",
"398 383 CURVE SMOOTH",
"398 137 LINE SMOOTH",
"398 69 OFFCURVE",
"361 28 OFFCURVE",
"294 28 CURVE SMOOTH"
);
}
);
width = 498;
}
);
unicode = 0062;
},
{
glyphname = c;
layers = (
{
layerId = "B34F63BB-E885-4604-9CD3-F42791F97BAE";
paths = (
{
closed = 1;
nodes = (
"380 89 LINE SMOOTH",
"380 103 OFFCURVE",
"374 110 OFFCURVE",
"359 110 CURVE SMOOTH",
"230 110 LINE SMOOTH",
"188 110 OFFCURVE",
"172 127 OFFCURVE",
"172 169 CURVE SMOOTH",
"172 341 LINE SMOOTH",
"172 383 OFFCURVE",
"188 400 OFFCURVE",
"230 400 CURVE SMOOTH",
"359 400 LINE SMOOTH",
"375 400 OFFCURVE",
"380 405 OFFCURVE",
"380 420 CURVE SMOOTH",
"380 489 LINE SMOOTH",
"380 503 OFFCURVE",
"374 510 OFFCURVE",
"359 510 CURVE SMOOTH",
"210 510 LINE SMOOTH",
"105 510 OFFCURVE",
"45 452 OFFCURVE",
"45 347 CURVE SMOOTH",
"45 163 LINE SMOOTH",
"45 58 OFFCURVE",
"105 0 OFFCURVE",
"210 0 CURVE SMOOTH",
"359 0 LINE SMOOTH",
"375 0 OFFCURVE",
"380 5 OFFCURVE",
"380 20 CURVE SMOOTH"
);
}
);
width = 411;
},
{
layerId = "C14C6A9E-9E56-4950-A507-E7357A5C19D0";
paths = (
{
closed = 1;
nodes = (
"355 20 LINE",
"355 25 OFFCURVE",
"353 28 OFFCURVE",
"346 28 CURVE SMOOTH",
"204 28 LINE SMOOTH",
"137 28 OFFCURVE",
"100 69 OFFCURVE",
"100 137 CURVE SMOOTH",
"100 373 LINE SMOOTH",
"100 441 OFFCURVE",
"137 482 OFFCURVE",
"204 482 CURVE SMOOTH",
"346 482 LINE SMOOTH",
"353 482 OFFCURVE",
"355 485 OFFCURVE",
"355 490 CURVE SMOOTH",
"355 502 LINE SMOOTH",
"355 507 OFFCURVE",
"353 510 OFFCURVE",
"346 510 CURVE SMOOTH",
"204 510 LINE SMOOTH",
"123 510 OFFCURVE",
"70 457 OFFCURVE",
"70 374 CURVE SMOOTH",
"70 136 LINE SMOOTH",
"70 53 OFFCURVE",
"123 0 OFFCURVE",
"204 0 CURVE SMOOTH",
"346 0 LINE SMOOTH",
"353 0 OFFCURVE",
"355 3 OFFCURVE",
"355 8 CURVE SMOOTH"
);
}
);
width = 390;
}
);
unicode = 0063;
},
{
glyphname = d;
layers = (
{
layerId = "B34F63BB-E885-4604-9CD3-F42791F97BAE";
paths = (
{
closed = 1;
nodes = (
"344 186 LINE SMOOTH",
"344 143 OFFCURVE",
"330 110 OFFCURVE",
"275 110 CURVE SMOOTH",
"230 110 LINE SMOOTH",
"187 110 OFFCURVE",
"172 127 OFFCURVE",
"172 169 CURVE SMOOTH",
"172 341 LINE SMOOTH",
"172 383 OFFCURVE",
"187 400 OFFCURVE",
"230 400 CURVE SMOOTH",
"275 400 LINE SMOOTH",
"330 400 OFFCURVE",
"344 367 OFFCURVE",
"344 324 CURVE SMOOTH"
);
},
{
closed = 1;
nodes = (
"242 0 LINE SMOOTH",
"279 0 OFFCURVE",
"324 15 OFFCURVE",
"340 54 CURVE",
"344 54 LINE",
"344 21 LINE SMOOTH",
"344 5 OFFCURVE",
"351 0 OFFCURVE",
"365 0 CURVE SMOOTH",
"450 0 LINE SMOOTH",
"464 0 OFFCURVE",
"471 5 OFFCURVE",
"471 21 CURVE SMOOTH",
"471 682 LINE SMOOTH",
"471 698 OFFCURVE",
"464 703 OFFCURVE",
"450 703 CURVE SMOOTH",
"365 703 LINE SMOOTH",
"351 703 OFFCURVE",
"344 698 OFFCURVE",
"344 682 CURVE SMOOTH",
"344 456 LINE",
"340 456 LINE",
"324 495 OFFCURVE",
"279 510 OFFCURVE",
"242 510 CURVE SMOOTH",
"201 510 LINE SMOOTH",
"97 510 OFFCURVE",
"45 452 OFFCURVE",
"45 347 CURVE SMOOTH",
"45 163 LINE SMOOTH",
"45 58 OFFCURVE",
"97 0 OFFCURVE",
"201 0 CURVE SMOOTH"
);
}
);
width = 526;
},
{
layerId = "C14C6A9E-9E56-4950-A507-E7357A5C19D0";
paths = (
{
closed = 1;
nodes = (
"388 132 LINE",
"388 63 OFFCURVE",
"341 28 OFFCURVE",
"276 28 CURVE SMOOTH",
"204 28 LINE SMOOTH",
"137 28 OFFCURVE",
"100 69 OFFCURVE",
"100 137 CURVE SMOOTH",
"100 373 LINE SMOOTH",
"100 441 OFFCURVE",
"137 482 OFFCURVE",
"204 482 CURVE SMOOTH",
"276 482 LINE SMOOTH",
"341 482 OFFCURVE",
"388 447 OFFCURVE",
"388 378 CURVE SMOOTH"
);
},
{
closed = 1;
nodes = (
"278 0 LINE SMOOTH",
"341 0 OFFCURVE",
"370 26 OFFCURVE",
"384 52 CURVE",
"388 52 LINE",
"388 9 LINE SMOOTH",
"388 2 OFFCURVE",
"391 0 OFFCURVE",
"396 0 CURVE SMOOTH",
"410 0 LINE SMOOTH",
"415 0 OFFCURVE",
"418 2 OFFCURVE",
"418 9 CURVE SMOOTH",
"418 694 LINE SMOOTH",
"418 701 OFFCURVE",
"415 703 OFFCURVE",
"410 703 CURVE SMOOTH",
"396 703 LINE SMOOTH",
"391 703 OFFCURVE",
"388 701 OFFCURVE",
"388 694 CURVE SMOOTH",
"388 458 LINE",
"384 458 LINE",
"370 484 OFFCURVE",
"341 510 OFFCURVE",
"278 510 CURVE SMOOTH",
"204 510 LINE SMOOTH",
"123 510 OFFCURVE",
"70 457 OFFCURVE",
"70 374 CURVE SMOOTH",
"70 136 LINE SMOOTH",
"70 53 OFFCURVE",
"123 0 OFFCURVE",
"204 0 CURVE SMOOTH"
);
}
);
width = 498;
}
);
unicode = 0064;
},
{
glyphname = e;
layers = (
{
layerId = "B34F63BB-E885-4604-9CD3-F42791F97BAE";
paths = (
{
closed = 1;
nodes = (
"182 284 LINE SMOOTH",
"175 284 OFFCURVE",
"171 287 OFFCURVE",
"171 295 CURVE SMOOTH",
"171 343 LINE SMOOTH",
"171 385 OFFCURVE",
"186 401 OFFCURVE",
"229 401 CURVE SMOOTH",
"271 401 LINE SMOOTH",
"314 401 OFFCURVE",
"329 385 OFFCURVE",
"329 343 CURVE SMOOTH",
"329 295 LINE SMOOTH",
"329 287 OFFCURVE",
"326 284 OFFCURVE",
"318 284 CURVE SMOOTH"
);
},
{
closed = 1;
nodes = (
"431 0 LINE SMOOTH",
"447 0 OFFCURVE",
"452 5 OFFCURVE",
"452 20 CURVE SMOOTH",
"452 86 LINE SMOOTH",
"452 101 OFFCURVE",
"447 108 OFFCURVE",
"431 108 CURVE SMOOTH",
"229 108 LINE SMOOTH",
"186 108 OFFCURVE",
"170 125 OFFCURVE",
"170 166 CURVE SMOOTH",
"170 188 LINE SMOOTH",
"170 196 OFFCURVE",
"174 199 OFFCURVE",
"182 199 CURVE SMOOTH",
"433 199 LINE SMOOTH",
"447 199 OFFCURVE",
"454 204 OFFCURVE",
"454 220 CURVE SMOOTH",
"454 347 LINE SMOOTH",
"454 452 OFFCURVE",
"394 510 OFFCURVE",
"289 510 CURVE SMOOTH",
"210 510 LINE SMOOTH",
"105 510 OFFCURVE",
"45 452 OFFCURVE",
"45 347 CURVE SMOOTH",
"45 163 LINE SMOOTH",
"45 58 OFFCURVE",
"105 0 OFFCURVE",
"210 0 CURVE SMOOTH"
);
}
);
width = 494;
},
{
layerId = "C14C6A9E-9E56-4950-A507-E7357A5C19D0";
paths = (
{
closed = 1;
nodes = (
"109 265 LINE SMOOTH",
"102 265 OFFCURVE",
"100 268 OFFCURVE",
"100 273 CURVE SMOOTH",
"100 373 LINE SMOOTH",
"100 441 OFFCURVE",
"137 482 OFFCURVE",
"204 482 CURVE SMOOTH",
"292 482 LINE SMOOTH",
"359 482 OFFCURVE",
"396 441 OFFCURVE",
"396 373 CURVE SMOOTH",
"396 273 LINE SMOOTH",
"396 268 OFFCURVE",
"394 265 OFFCURVE",
"387 265 CURVE SMOOTH"
);
},
{
closed = 1;
nodes = (
"409 0 LINE",
"416 0 OFFCURVE",
"418 3 OFFCURVE",
"418 8 CURVE SMOOTH",
"418 20 LINE SMOOTH",
"418 25 OFFCURVE",
"416 28 OFFCURVE",
"409 28 CURVE SMOOTH",
"204 28 LINE SMOOTH",
"137 28 OFFCURVE",
"100 69 OFFCURVE",
"100 137 CURVE SMOOTH",
"100 229 LINE SMOOTH",
"100 234 OFFCURVE",
"102 237 OFFCURVE",
"109 237 CURVE SMOOTH",
"417 237 LINE SMOOTH",
"424 237 OFFCURVE",
"426 240 OFFCURVE",
"426 247 CURVE SMOOTH",
"426 374 LINE SMOOTH",
"426 457 OFFCURVE",
"373 510 OFFCURVE",
"292 510 CURVE SMOOTH",
"204 510 LINE SMOOTH",
"123 510 OFFCURVE",
"70 457 OFFCURVE",
"70 374 CURVE SMOOTH",
"70 136 LINE SMOOTH",
"70 53 OFFCURVE",
"123 0 OFFCURVE",
"204 0 CURVE SMOOTH"
);
}
);
width = 491;
}
);
unicode = 0065;
},
{
glyphname = f;
layers = (
{
layerId = "B34F63BB-E885-4604-9CD3-F42791F97BAE";
paths = (
{
closed = 1;
nodes = (
"240 510 LINE SMOOTH",
"232 510 OFFCURVE",
"229 513 OFFCURVE",
"229 521 CURVE SMOOTH",
"229 534 LINE SMOOTH",
"229 576 OFFCURVE",
"241 593 OFFCURVE",
"284 593 CURVE SMOOTH",
"321 593 LINE SMOOTH",
"336 593 OFFCURVE",
"341 600 OFFCURVE",
"341 614 CURVE SMOOTH",
"341 683 LINE SMOOTH",
"341 698 OFFCURVE",
"337 703 OFFCURVE",
"321 703 CURVE SMOOTH",
"264 703 LINE SMOOTH",
"159 703 OFFCURVE",
"102 645 OFFCURVE",
"102 540 CURVE SMOOTH",
"102 521 LINE SMOOTH",
"102 513 OFFCURVE",
"98 510 OFFCURVE",
"90 510 CURVE SMOOTH",
"44 510 LINE SMOOTH",
"27 510 OFFCURVE",
"23 505 OFFCURVE",
"23 490 CURVE SMOOTH",
"23 421 LINE SMOOTH",
"23 407 OFFCURVE",
"28 400 OFFCURVE",
"44 400 CURVE SMOOTH",
"90 400 LINE SMOOTH",
"98 400 OFFCURVE",
"102 397 OFFCURVE",
"102 389 CURVE SMOOTH",
"102 21 LINE SMOOTH",
"102 5 OFFCURVE",
"109 0 OFFCURVE",
"123 0 CURVE SMOOTH",
"207 0 LINE SMOOTH",
"221 0 OFFCURVE",
"229 5 OFFCURVE",
"229 21 CURVE SMOOTH",
"229 389 LINE SMOOTH",
"229 397 OFFCURVE",
"232 400 OFFCURVE",
"240 400 CURVE SMOOTH",
"320 400 LINE SMOOTH",
"335 400 OFFCURVE",
"341 407 OFFCURVE",
"341 421 CURVE SMOOTH",
"341 490 LINE SMOOTH",
"341 505 OFFCURVE",
"336 510 OFFCURVE",
"320 510 CURVE SMOOTH"
);
}
);
width = 354;
},
{
layerId = "C14C6A9E-9E56-4950-A507-E7357A5C19D0";
paths = (
{
closed = 1;
nodes = (
"164 510 LINE SMOOTH",
"157 510 OFFCURVE",
"155 513 OFFCURVE",
"155 518 CURVE SMOOTH",
"155 568 LINE SMOOTH",
"155 636 OFFCURVE",
"176 675 OFFCURVE",
"243 675 CURVE SMOOTH",
"258 675 LINE SMOOTH",
"265 675 OFFCURVE",
"267 678 OFFCURVE",
"267 683 CURVE SMOOTH",
"267 695 LINE SMOOTH",
"267 700 OFFCURVE",
"265 703 OFFCURVE",
"258 703 CURVE SMOOTH",
"243 703 LINE SMOOTH",
"162 703 OFFCURVE",
"125 652 OFFCURVE",
"125 569 CURVE SMOOTH",
"125 518 LINE SMOOTH",
"125 513 OFFCURVE",
"123 510 OFFCURVE",
"116 510 CURVE SMOOTH",
"48 510 LINE SMOOTH",
"41 510 OFFCURVE",
"39 507 OFFCURVE",
"39 502 CURVE SMOOTH",
"39 490 LINE SMOOTH",
"39 485 OFFCURVE",
"41 482 OFFCURVE",
"48 482 CURVE SMOOTH",
"116 482 LINE SMOOTH",
"123 482 OFFCURVE",
"125 479 OFFCURVE",
"125 474 CURVE SMOOTH",
"125 9 LINE SMOOTH",
"125 2 OFFCURVE",
"128 0 OFFCURVE",
"133 0 CURVE SMOOTH",
"147 0 LINE SMOOTH",
"152 0 OFFCURVE",
"155 2 OFFCURVE",
"155 9 CURVE SMOOTH",
"155 474 LINE SMOOTH",
"155 479 OFFCURVE",
"157 482 OFFCURVE",
"164 482 CURVE SMOOTH",
"258 482 LINE SMOOTH",
"265 482 OFFCURVE",
"267 485 OFFCURVE",
"267 490 CURVE SMOOTH",
"267 502 LINE SMOOTH",
"267 507 OFFCURVE",
"265 510 OFFCURVE",
"258 510 CURVE SMOOTH"
);
}
);
width = 290;
}
);
unicode = 0066;
},
{
glyphname = g;
layers = (
{
layerId = "B34F63BB-E885-4604-9CD3-F42791F97BAE";
paths = (
{
closed = 1;
nodes = (
"337 209 LINE SMOOTH",
"337 166 OFFCURVE",
"323 134 OFFCURVE",
"268 134 CURVE SMOOTH",
"231 134 LINE SMOOTH",
"188 134 OFFCURVE",
"173 150 OFFCURVE",
"173 192 CURVE SMOOTH",
"173 341 LINE SMOOTH",
"173 383 OFFCURVE",
"188 400 OFFCURVE",
"231 400 CURVE SMOOTH",
"325 400 LINE SMOOTH",
"333 400 OFFCURVE",
"337 397 OFFCURVE",
"337 389 CURVE SMOOTH"
);
},
{
closed = 1;
nodes = (
"235 23 LINE SMOOTH",
"272 23 OFFCURVE",
"317 39 OFFCURVE",
"333 78 CURVE",
"337 78 LINE",
"337 2 LINE SMOOTH",
"337 -39 OFFCURVE",
"321 -56 OFFCURVE",
"278 -56 CURVE SMOOTH",
"107 -56 LINE SMOOTH",
"91 -56 OFFCURVE",
"86 -63 OFFCURVE",
"86 -77 CURVE SMOOTH",
"86 -146 LINE SMOOTH",
"86 -161 OFFCURVE",
"91 -166 OFFCURVE",
"107 -166 CURVE SMOOTH",
"299 -166 LINE SMOOTH",
"403 -166 OFFCURVE",
"464 -108 OFFCURVE",
"464 -4 CURVE SMOOTH",
"464 489 LINE SMOOTH",
"464 505 OFFCURVE",
"457 510 OFFCURVE",
"442 510 CURVE SMOOTH",
"211 510 LINE SMOOTH",
"106 510 OFFCURVE",
"46 452 OFFCURVE",
"46 347 CURVE SMOOTH",
"46 186 LINE SMOOTH",
"46 81 OFFCURVE",
"98 23 OFFCURVE",
"202 23 CURVE SMOOTH"
);
}
);
width = 519;
},
{
layerId = "C14C6A9E-9E56-4950-A507-E7357A5C19D0";
paths = (
{
closed = 1;
nodes = (
"393 162 LINE",
"393 93 OFFCURVE",
"346 58 OFFCURVE",
"281 58 CURVE SMOOTH",
"209 58 LINE SMOOTH",
"142 58 OFFCURVE",
"105 99 OFFCURVE",
"105 167 CURVE SMOOTH",
"105 373 LINE SMOOTH",
"105 441 OFFCURVE",
"142 482 OFFCURVE",
"209 482 CURVE SMOOTH",
"384 482 LINE SMOOTH",
"391 482 OFFCURVE",
"393 479 OFFCURVE",
"393 474 CURVE SMOOTH"
);
},
{
closed = 1;
nodes = (
"283 30 LINE SMOOTH",
"346 30 OFFCURVE",
"375 56 OFFCURVE",
"389 82 CURVE",
"393 82 LINE",
"393 4 LINE SMOOTH",
"393 -64 OFFCURVE",
"356 -105 OFFCURVE",
"289 -105 CURVE SMOOTH",
"110 -105 LINE SMOOTH",
"103 -105 OFFCURVE",
"101 -108 OFFCURVE",
"101 -113 CURVE SMOOTH",
"101 -125 LINE SMOOTH",
"101 -130 OFFCURVE",
"103 -133 OFFCURVE",
"110 -133 CURVE SMOOTH",
"289 -133 LINE SMOOTH",
"370 -133 OFFCURVE",
"423 -80 OFFCURVE",
"423 3 CURVE SMOOTH",
"423 501 LINE SMOOTH",
"423 508 OFFCURVE",
"420 510 OFFCURVE",
"415 510 CURVE SMOOTH",
"209 510 LINE SMOOTH",
"128 510 OFFCURVE",
"75 457 OFFCURVE",
"75 374 CURVE SMOOTH",
"75 166 LINE SMOOTH",
"75 83 OFFCURVE",
"128 30 OFFCURVE",
"209 30 CURVE SMOOTH"
);
}
);
width = 503;
}
);
unicode = 0067;
},
{
glyphname = h;
layers = (
{
layerId = "B34F63BB-E885-4604-9CD3-F42791F97BAE";
paths = (
{
closed = 1;
nodes = (
"161 0 LINE SMOOTH",
"175 0 OFFCURVE",
"182 5 OFFCURVE",
"182 21 CURVE SMOOTH",
"182 324 LINE SMOOTH",
"182 367 OFFCURVE",
"196 400 OFFCURVE",
"251 400 CURVE SMOOTH",
"287 400 LINE SMOOTH",
"330 400 OFFCURVE",
"346 383 OFFCURVE",
"346 341 CURVE SMOOTH",
"346 21 LINE SMOOTH",
"346 5 OFFCURVE",
"353 0 OFFCURVE",
"367 0 CURVE SMOOTH",
"451 0 LINE SMOOTH",
"466 0 OFFCURVE",
"473 5 OFFCURVE",
"473 21 CURVE SMOOTH",
"473 347 LINE SMOOTH",
"473 452 OFFCURVE",
"421 510 OFFCURVE",
"316 510 CURVE SMOOTH",
"284 510 LINE SMOOTH",
"243 510 OFFCURVE",
"202 495 OFFCURVE",
"186 456 CURVE",
"182 456 LINE",
"182 682 LINE SMOOTH",
"182 698 OFFCURVE",
"175 703 OFFCURVE",
"161 703 CURVE SMOOTH",
"76 703 LINE SMOOTH",
"62 703 OFFCURVE",
"55 698 OFFCURVE",
"55 682 CURVE SMOOTH",
"55 21 LINE SMOOTH",
"55 5 OFFCURVE",
"62 0 OFFCURVE",
"76 0 CURVE SMOOTH"
);
}
);
width = 523;
},
{
layerId = "C14C6A9E-9E56-4950-A507-E7357A5C19D0";
paths = (
{
closed = 1;
nodes = (
"102 0 LINE",
"107 0 OFFCURVE",
"110 2 OFFCURVE",
"110 9 CURVE SMOOTH",
"110 378 LINE SMOOTH",
"110 447 OFFCURVE",
"157 482 OFFCURVE",
"222 482 CURVE SMOOTH",
"294 482 LINE SMOOTH",
"361 482 OFFCURVE",
"398 441 OFFCURVE",
"398 373 CURVE SMOOTH",
"398 9 LINE SMOOTH",
"398 2 OFFCURVE",
"401 0 OFFCURVE",
"406 0 CURVE SMOOTH",
"420 0 LINE SMOOTH",
"425 0 OFFCURVE",
"428 2 OFFCURVE",
"428 9 CURVE SMOOTH",
"428 374 LINE SMOOTH",
"428 457 OFFCURVE",
"375 510 OFFCURVE",
"294 510 CURVE SMOOTH",
"220 510 LINE SMOOTH",
"157 510 OFFCURVE",
"128 484 OFFCURVE",
"114 458 CURVE",
"110 458 LINE",
"110 694 LINE SMOOTH",
"110 701 OFFCURVE",
"107 703 OFFCURVE",
"102 703 CURVE SMOOTH",
"88 703 LINE SMOOTH",
"83 703 OFFCURVE",
"80 701 OFFCURVE",
"80 694 CURVE SMOOTH",
"80 9 LINE SMOOTH",
"80 2 OFFCURVE",
"83 0 OFFCURVE",
"88 0 CURVE SMOOTH"
);
}
);
width = 503;
}
);
unicode = 0068;
},
{
glyphname = i;
layers = (
{
layerId = "B34F63BB-E885-4604-9CD3-F42791F97BAE";
paths = (
{
closed = 1;
nodes = (
"60 21 LINE SMOOTH",
"60 5 OFFCURVE",
"67 0 OFFCURVE",
"81 0 CURVE SMOOTH",
"167 0 LINE SMOOTH",
"182 0 OFFCURVE",
"187 4 OFFCURVE",
"187 21 CURVE SMOOTH",
"187 489 LINE SMOOTH",
"187 505 OFFCURVE",
"180 510 OFFCURVE",
"166 510 CURVE SMOOTH",
"80 510 LINE SMOOTH",
"66 510 OFFCURVE",
"60 505 OFFCURVE",
"60 489 CURVE SMOOTH"
);
},
{
closed = 1;
nodes = (
"60 596 LINE SMOOTH",
"60 583 OFFCURVE",
"66 576 OFFCURVE",
"80 576 CURVE SMOOTH",
"167 576 LINE SMOOTH",
"181 576 OFFCURVE",
"187 583 OFFCURVE",
"187 596 CURVE SMOOTH",
"187 684 LINE SMOOTH",
"187 697 OFFCURVE",
"180 703 OFFCURVE",
"167 703 CURVE SMOOTH",
"80 703 LINE SMOOTH",
"66 703 OFFCURVE",
"60 697 OFFCURVE",
"60 683 CURVE SMOOTH"
);
}
);
width = 247;
},
{
layerId = "C14C6A9E-9E56-4950-A507-E7357A5C19D0";
paths = (
{
closed = 1;
nodes = (
"85 9 LINE",
"85 2 OFFCURVE",
"88 0 OFFCURVE",
"93 0 CURVE SMOOTH",
"107 0 LINE SMOOTH",
"112 0 OFFCURVE",
"115 2 OFFCURVE",
"115 9 CURVE SMOOTH",
"115 501 LINE SMOOTH",
"115 508 OFFCURVE",
"112 510 OFFCURVE",
"107 510 CURVE SMOOTH",
"93 510 LINE SMOOTH",
"88 510 OFFCURVE",
"85 508 OFFCURVE",
"85 501 CURVE SMOOTH"
);
},
{
closed = 1;
nodes = (
"85 593 LINE",
"85 586 OFFCURVE",
"88 584 OFFCURVE",
"93 584 CURVE SMOOTH",
"107 584 LINE SMOOTH",
"112 584 OFFCURVE",
"115 586 OFFCURVE",
"115 593 CURVE SMOOTH",
"115 692 LINE SMOOTH",
"115 699 OFFCURVE",
"112 701 OFFCURVE",
"107 701 CURVE SMOOTH",
"93 701 LINE SMOOTH",
"88 701 OFFCURVE",
"85 699 OFFCURVE",
"85 692 CURVE SMOOTH"
);
}
);
width = 200;
}
);
unicode = 0069;
},
{
glyphname = j;
layers = (
{
layerId = "B34F63BB-E885-4604-9CD3-F42791F97BAE";
paths = (
{
closed = 1;
nodes = (
"21 -166 LINE SMOOTH",
"125 -166 OFFCURVE",
"187 -107 OFFCURVE",
"187 -2 CURVE SMOOTH",
"187 489 LINE SMOOTH",
"187 505 OFFCURVE",
"180 510 OFFCURVE",
"166 510 CURVE SMOOTH",
"81 510 LINE SMOOTH",
"67 510 OFFCURVE",
"60 505 OFFCURVE",
"60 489 CURVE SMOOTH",
"60 21 LINE SMOOTH",
"60 -39 OFFCURVE",
"42 -56 OFFCURVE",
"-18 -56 CURVE SMOOTH",
"-46 -56 LINE SMOOTH",
"-61 -56 OFFCURVE",
"-67 -63 OFFCURVE",
"-67 -77 CURVE SMOOTH",
"-67 -145 LINE SMOOTH",
"-67 -159 OFFCURVE",
"-61 -166 OFFCURVE",
"-46 -166 CURVE SMOOTH"
);
},
{
closed = 1;
nodes = (
"60 596 LINE SMOOTH",
"60 583 OFFCURVE",
"66 576 OFFCURVE",
"80 576 CURVE SMOOTH",
"167 576 LINE SMOOTH",
"181 576 OFFCURVE",
"187 583 OFFCURVE",
"187 596 CURVE SMOOTH",
"187 684 LINE SMOOTH",
"187 697 OFFCURVE",
"180 703 OFFCURVE",
"167 703 CURVE SMOOTH",
"80 703 LINE SMOOTH",
"66 703 OFFCURVE",
"60 697 OFFCURVE",
"60 683 CURVE SMOOTH"
);
}
);
width = 247;
},
{
layerId = "C14C6A9E-9E56-4950-A507-E7357A5C19D0";
paths = (
{
closed = 1;
nodes = (
"-19 -133 LINE SMOOTH",
"62 -133 OFFCURVE",
"115 -80 OFFCURVE",
"115 3 CURVE SMOOTH",
"115 501 LINE SMOOTH",
"115 508 OFFCURVE",
"112 510 OFFCURVE",
"107 510 CURVE SMOOTH",
"93 510 LINE SMOOTH",
"88 510 OFFCURVE",
"85 508 OFFCURVE",
"85 501 CURVE SMOOTH",
"85 4 LINE SMOOTH",
"85 -64 OFFCURVE",
"48 -105 OFFCURVE",
"-19 -105 CURVE SMOOTH",
"-39 -105 LINE SMOOTH",
"-46 -105 OFFCURVE",
"-48 -108 OFFCURVE",
"-48 -113 CURVE SMOOTH",
"-48 -125 LINE SMOOTH",
"-48 -130 OFFCURVE",
"-46 -133 OFFCURVE",
"-39 -133 CURVE SMOOTH"
);
},
{
closed = 1;
nodes = (
"85 593 LINE",
"85 586 OFFCURVE",
"88 584 OFFCURVE",
"93 584 CURVE SMOOTH",
"107 584 LINE SMOOTH",
"112 584 OFFCURVE",
"115 586 OFFCURVE",
"115 593 CURVE SMOOTH",
"115 692 LINE SMOOTH",
"115 699 OFFCURVE",
"112 701 OFFCURVE",
"107 701 CURVE SMOOTH",
"93 701 LINE SMOOTH",
"88 701 OFFCURVE",
"85 699 OFFCURVE",
"85 692 CURVE SMOOTH"
);
}
);
width = 200;
}
);
unicode = 006A;
},
{
glyphname = k;
layers = (
{
layerId = "B34F63BB-E885-4604-9CD3-F42791F97BAE";
paths = (
{
closed = 1;
nodes = (
"193 277 LINE SMOOTH",
"188 267 OFFCURVE",
"188 253 OFFCURVE",
"193 244 CURVE SMOOTH",
"320 21 LINE SMOOTH",
"330 4 OFFCURVE",
"337 0 OFFCURVE",
"360 0 CURVE SMOOTH",
"446 0 LINE SMOOTH",
"464 0 OFFCURVE",
"471 12 OFFCURVE",
"463 25 CURVE SMOOTH",
"324 262 LINE",
"324 266 LINE",
"457 485 LINE",
"467 500 OFFCURVE",
"459 510 OFFCURVE",
"444 510 CURVE SMOOTH",
"347 510 LINE SMOOTH",
"332 510 OFFCURVE",
"321 505 OFFCURVE",
"313 490 CURVE SMOOTH"
);
},
{
closed = 1;
nodes = (
"161 0 LINE SMOOTH",
"175 0 OFFCURVE",
"182 5 OFFCURVE",
"182 21 CURVE SMOOTH",
"182 59 OFFCURVE",
"182 644 OFFCURVE",
"182 682 CURVE SMOOTH",
"182 698 OFFCURVE",
"175 703 OFFCURVE",
"161 703 CURVE SMOOTH",
"76 703 LINE SMOOTH",
"62 703 OFFCURVE",
"55 698 OFFCURVE",
"55 682 CURVE SMOOTH",
"55 21 LINE SMOOTH",
"55 5 OFFCURVE",
"62 0 OFFCURVE",
"76 0 CURVE SMOOTH"
);
}
);
width = 472;
},
{
layerId = "C14C6A9E-9E56-4950-A507-E7357A5C19D0";
paths = (
{
closed = 1;
nodes = (
"192 270 LINE",
"190 267 OFFCURVE",
"190 261 OFFCURVE",
"192 258 CURVE SMOOTH",
"367 9 LINE",
"373 1 OFFCURVE",
"379 0 OFFCURVE",
"385 0 CURVE SMOOTH",
"402 0 LINE SMOOTH",
"406 0 OFFCURVE",
"410 3 OFFCURVE",
"405 9 CURVE",
"225 262 LINE",
"225 266 LINE",
"384 501 LINE",
"388 506 OFFCURVE",
"386 510 OFFCURVE",
"380 510 CURVE SMOOTH",
"366 510 LINE SMOOTH",
"358 510 OFFCURVE",
"354 509 OFFCURVE",
"350 503 CURVE SMOOTH"
);
},
{
closed = 1;
nodes = (
"102 0 LINE SMOOTH",
"107 0 OFFCURVE",
"110 2 OFFCURVE",
"110 9 CURVE SMOOTH",
"110 237 OFFCURVE",
"110 466 OFFCURVE",
"110 694 CURVE SMOOTH",
"110 701 OFFCURVE",
"107 703 OFFCURVE",
"102 703 CURVE SMOOTH",
"88 703 LINE SMOOTH",
"83 703 OFFCURVE",
"80 701 OFFCURVE",
"80 694 CURVE SMOOTH",
"80 9 LINE SMOOTH",
"80 2 OFFCURVE",
"83 0 OFFCURVE",
"88 0 CURVE SMOOTH"
);
}
);
width = 420;
}
);
unicode = 006B;
},
{
glyphname = l;
layers = (
{
layerId = "B34F63BB-E885-4604-9CD3-F42791F97BAE";
paths = (
{
closed = 1;
nodes = (
"166 0 LINE SMOOTH",
"180 0 OFFCURVE",
"187 5 OFFCURVE",
"187 21 CURVE SMOOTH",
"187 682 LINE SMOOTH",
"187 698 OFFCURVE",
"180 703 OFFCURVE",
"166 703 CURVE SMOOTH",
"81 703 LINE SMOOTH",
"67 703 OFFCURVE",
"60 698 OFFCURVE",
"60 682 CURVE SMOOTH",
"60 21 LINE SMOOTH",
"60 5 OFFCURVE",
"67 0 OFFCURVE",
"81 0 CURVE SMOOTH"
);
}
);
width = 247;
},
{
layerId = "C14C6A9E-9E56-4950-A507-E7357A5C19D0";
paths = (
{
closed = 1;
nodes = (
"107 0 LINE",
"112 0 OFFCURVE",
"115 2 OFFCURVE",
"115 9 CURVE SMOOTH",
"115 694 LINE SMOOTH",
"115 701 OFFCURVE",
"112 703 OFFCURVE",
"107 703 CURVE SMOOTH",
"93 703 LINE SMOOTH",
"88 703 OFFCURVE",
"85 701 OFFCURVE",
"85 694 CURVE SMOOTH",
"85 9 LINE SMOOTH",
"85 2 OFFCURVE",
"88 0 OFFCURVE",
"93 0 CURVE SMOOTH"
);
}
);
width = 200;
}
);
unicode = 006C;
},
{
glyphname = m;
layers = (
{
layerId = "B34F63BB-E885-4604-9CD3-F42791F97BAE";
paths = (
{
closed = 1;
nodes = (
"161 0 LINE SMOOTH",
"175 0 OFFCURVE",
"182 5 OFFCURVE",
"182 21 CURVE SMOOTH",
"182 324 LINE SMOOTH",
"182 367 OFFCURVE",
"196 400 OFFCURVE",
"251 400 CURVE SMOOTH",
"282 400 LINE SMOOTH",
"325 400 OFFCURVE",
"341 383 OFFCURVE",
"341 341 CURVE SMOOTH",
"341 21 LINE SMOOTH",
"341 5 OFFCURVE",
"348 0 OFFCURVE",
"362 0 CURVE SMOOTH",
"446 0 LINE SMOOTH",
"460 0 OFFCURVE",
"468 5 OFFCURVE",
"468 21 CURVE SMOOTH",
"468 323 LINE SMOOTH",
"468 366 OFFCURVE",
"481 400 OFFCURVE",
"537 400 CURVE SMOOTH",
"562 400 LINE SMOOTH",
"605 400 OFFCURVE",
"620 383 OFFCURVE",
"620 341 CURVE SMOOTH",
"620 21 LINE SMOOTH",
"620 5 OFFCURVE",
"627 0 OFFCURVE",
"641 0 CURVE SMOOTH",
"726 0 LINE SMOOTH",
"740 0 OFFCURVE",
"747 5 OFFCURVE",
"747 21 CURVE SMOOTH",
"747 347 LINE SMOOTH",
"747 452 OFFCURVE",
"695 510 OFFCURVE",
"591 510 CURVE SMOOTH",
"562 510 LINE SMOOTH",
"512 510 OFFCURVE",
"467 488 OFFCURVE",
"445 446 CURVE",
"420 488 OFFCURVE",
"383 510 OFFCURVE",
"320 510 CURVE SMOOTH",
"292 510 LINE SMOOTH",
"242 510 OFFCURVE",
"202 487 OFFCURVE",
"186 456 CURVE",
"182 456 LINE",
"182 489 LINE SMOOTH",
"182 505 OFFCURVE",
"175 510 OFFCURVE",
"161 510 CURVE SMOOTH",
"76 510 LINE SMOOTH",
"62 510 OFFCURVE",
"55 505 OFFCURVE",
"55 489 CURVE SMOOTH",
"55 21 LINE SMOOTH",
"55 5 OFFCURVE",
"62 0 OFFCURVE",
"76 0 CURVE SMOOTH"
);
}
);
width = 798;
},
{
layerId = "C14C6A9E-9E56-4950-A507-E7357A5C19D0";
paths = (
{
closed = 1;
nodes = (
"102 0 LINE",
"107 0 OFFCURVE",
"110 2 OFFCURVE",
"110 9 CURVE SMOOTH",
"110 378 LINE SMOOTH",
"110 447 OFFCURVE",
"157 482 OFFCURVE",
"222 482 CURVE SMOOTH",
"264 482 LINE SMOOTH",
"331 482 OFFCURVE",
"368 441 OFFCURVE",
"368 373 CURVE SMOOTH",
"368 9 LINE SMOOTH",
"368 2 OFFCURVE",
"371 0 OFFCURVE",
"376 0 CURVE SMOOTH",
"390 0 LINE SMOOTH",
"395 0 OFFCURVE",
"398 2 OFFCURVE",
"398 9 CURVE SMOOTH",
"398 373 LINE SMOOTH",
"398 441 OFFCURVE",
"445 482 OFFCURVE",
"512 482 CURVE SMOOTH",
"552 482 LINE SMOOTH",
"619 482 OFFCURVE",
"656 441 OFFCURVE",
"656 373 CURVE SMOOTH",
"656 9 LINE SMOOTH",
"656 2 OFFCURVE",
"659 0 OFFCURVE",
"664 0 CURVE SMOOTH",
"678 0 LINE SMOOTH",
"683 0 OFFCURVE",
"686 2 OFFCURVE",
"686 9 CURVE SMOOTH",
"686 374 LINE SMOOTH",
"686 457 OFFCURVE",
"633 510 OFFCURVE",
"552 510 CURVE SMOOTH",
"512 510 LINE SMOOTH",
"469 510 OFFCURVE",
"406 490 OFFCURVE",
"385 439 CURVE",
"364 484 OFFCURVE",
"321 510 OFFCURVE",
"264 510 CURVE SMOOTH",
"220 510 LINE SMOOTH",
"157 510 OFFCURVE",
"128 484 OFFCURVE",
"114 458 CURVE",
"110 458 LINE",
"110 501 LINE SMOOTH",
"110 508 OFFCURVE",
"107 510 OFFCURVE",
"102 510 CURVE SMOOTH",
"88 510 LINE SMOOTH",
"83 510 OFFCURVE",
"80 508 OFFCURVE",
"80 501 CURVE SMOOTH",
"80 9 LINE SMOOTH",
"80 2 OFFCURVE",
"83 0 OFFCURVE",
"88 0 CURVE SMOOTH"
);
}
);
width = 761;
}
);
unicode = 006D;
},
{
glyphname = n;
layers = (
{
layerId = "B34F63BB-E885-4604-9CD3-F42791F97BAE";
paths = (
{
closed = 1;
nodes = (
"161 0 LINE SMOOTH",
"175 0 OFFCURVE",
"182 5 OFFCURVE",
"182 21 CURVE SMOOTH",
"182 324 LINE SMOOTH",
"182 367 OFFCURVE",
"196 400 OFFCURVE",
"251 400 CURVE SMOOTH",
"287 400 LINE SMOOTH",
"330 400 OFFCURVE",
"346 383 OFFCURVE",
"346 341 CURVE SMOOTH",
"346 21 LINE SMOOTH",
"346 5 OFFCURVE",
"353 0 OFFCURVE",
"367 0 CURVE SMOOTH",
"451 0 LINE SMOOTH",
"466 0 OFFCURVE",
"473 5 OFFCURVE",
"473 21 CURVE SMOOTH",
"473 347 LINE SMOOTH",
"473 452 OFFCURVE",
"421 510 OFFCURVE",
"316 510 CURVE SMOOTH",
"284 510 LINE SMOOTH",
"243 510 OFFCURVE",
"202 495 OFFCURVE",
"186 456 CURVE",
"182 456 LINE",
"182 489 LINE SMOOTH",
"182 505 OFFCURVE",
"175 510 OFFCURVE",
"161 510 CURVE SMOOTH",
"76 510 LINE SMOOTH",
"62 510 OFFCURVE",
"55 505 OFFCURVE",
"55 489 CURVE SMOOTH",
"55 21 LINE SMOOTH",
"55 5 OFFCURVE",
"62 0 OFFCURVE",
"76 0 CURVE SMOOTH"
);
}
);
width = 523;
},
{
layerId = "C14C6A9E-9E56-4950-A507-E7357A5C19D0";
paths = (
{
closed = 1;
nodes = (
"102 0 LINE",
"107 0 OFFCURVE",
"110 2 OFFCURVE",
"110 9 CURVE SMOOTH",
"110 378 LINE SMOOTH",
"110 447 OFFCURVE",
"157 482 OFFCURVE",
"222 482 CURVE SMOOTH",
"294 482 LINE SMOOTH",
"361 482 OFFCURVE",
"398 441 OFFCURVE",
"398 373 CURVE SMOOTH",
"398 9 LINE SMOOTH",
"398 2 OFFCURVE",
"401 0 OFFCURVE",
"406 0 CURVE SMOOTH",
"420 0 LINE SMOOTH",
"425 0 OFFCURVE",
"428 2 OFFCURVE",
"428 9 CURVE SMOOTH",
"428 374 LINE SMOOTH",
"428 457 OFFCURVE",
"375 510 OFFCURVE",
"294 510 CURVE SMOOTH",
"220 510 LINE SMOOTH",
"157 510 OFFCURVE",
"128 484 OFFCURVE",
"114 458 CURVE",
"110 458 LINE",
"110 501 LINE SMOOTH",
"110 508 OFFCURVE",
"107 510 OFFCURVE",
"102 510 CURVE SMOOTH",
"88 510 LINE SMOOTH",
"83 510 OFFCURVE",
"80 508 OFFCURVE",
"80 501 CURVE SMOOTH",
"80 9 LINE SMOOTH",
"80 2 OFFCURVE",
"83 0 OFFCURVE",
"88 0 CURVE SMOOTH"
);
}
);
width = 503;
}
);
unicode = 006E;
},
{
glyphname = o;
layers = (
{
layerId = "B34F63BB-E885-4604-9CD3-F42791F97BAE";
paths = (
{
closed = 1;
nodes = (
"229 109 LINE SMOOTH",
"186 109 OFFCURVE",
"171 125 OFFCURVE",
"171 167 CURVE SMOOTH",
"171 343 LINE SMOOTH",
"171 385 OFFCURVE",
"186 401 OFFCURVE",
"229 401 CURVE SMOOTH",
"280 401 LINE SMOOTH",
"323 401 OFFCURVE",
"339 385 OFFCURVE",
"339 343 CURVE SMOOTH",
"339 167 LINE SMOOTH",
"339 125 OFFCURVE",
"323 109 OFFCURVE",
"280 109 CURVE SMOOTH"
);
},
{
closed = 1;
nodes = (
"299 0 LINE SMOOTH",
"403 0 OFFCURVE",
"464 58 OFFCURVE",
"464 163 CURVE SMOOTH",
"464 347 LINE SMOOTH",
"464 452 OFFCURVE",
"403 510 OFFCURVE",
"299 510 CURVE SMOOTH",
"210 510 LINE SMOOTH",
"105 510 OFFCURVE",
"45 452 OFFCURVE",
"45 347 CURVE SMOOTH",
"45 163 LINE SMOOTH",
"45 58 OFFCURVE",
"105 0 OFFCURVE",
"210 0 CURVE SMOOTH"
);
}
);
width = 509;
},
{
layerId = "C14C6A9E-9E56-4950-A507-E7357A5C19D0";
paths = (
{
closed = 1;
nodes = (
"204 28 LINE",
"137 28 OFFCURVE",
"100 69 OFFCURVE",
"100 137 CURVE SMOOTH",
"100 373 LINE SMOOTH",
"100 441 OFFCURVE",
"137 482 OFFCURVE",
"204 482 CURVE SMOOTH",
"289 482 LINE SMOOTH",
"356 482 OFFCURVE",
"393 441 OFFCURVE",
"393 373 CURVE SMOOTH",
"393 137 LINE SMOOTH",
"393 69 OFFCURVE",
"356 28 OFFCURVE",
"289 28 CURVE SMOOTH"
);
},
{
closed = 1;
nodes = (
"289 0 LINE",
"370 0 OFFCURVE",
"423 53 OFFCURVE",
"423 136 CURVE SMOOTH",
"423 374 LINE SMOOTH",
"423 457 OFFCURVE",
"370 510 OFFCURVE",
"289 510 CURVE SMOOTH",
"204 510 LINE SMOOTH",
"123 510 OFFCURVE",
"70 457 OFFCURVE",
"70 374 CURVE SMOOTH",
"70 136 LINE SMOOTH",
"70 53 OFFCURVE",
"123 0 OFFCURVE",
"204 0 CURVE SMOOTH"
);
}
);
width = 493;
}
);
unicode = 006F;
},
{
glyphname = p;
layers = (
{
layerId = "B34F63BB-E885-4604-9CD3-F42791F97BAE";
paths = (
{
closed = 1;
nodes = (
"251 110 LINE SMOOTH",
"196 110 OFFCURVE",
"182 143 OFFCURVE",
"182 186 CURVE SMOOTH",
"182 324 LINE SMOOTH",
"182 367 OFFCURVE",
"196 400 OFFCURVE",
"251 400 CURVE SMOOTH",
"295 400 LINE SMOOTH",
"338 400 OFFCURVE",
"354 383 OFFCURVE",
"354 341 CURVE SMOOTH",
"354 169 LINE SMOOTH",
"354 127 OFFCURVE",
"338 110 OFFCURVE",
"295 110 CURVE SMOOTH"
);
},
{
closed = 1;
nodes = (
"161 -136 LINE SMOOTH",
"175 -136 OFFCURVE",
"182 -131 OFFCURVE",
"182 -116 CURVE SMOOTH",
"182 54 LINE",
"186 54 LINE",
"202 15 OFFCURVE",
"247 0 OFFCURVE",
"284 0 CURVE SMOOTH",
"325 0 LINE SMOOTH",
"429 0 OFFCURVE",
"481 58 OFFCURVE",
"481 163 CURVE SMOOTH",
"481 347 LINE SMOOTH",
"481 452 OFFCURVE",
"429 510 OFFCURVE",
"325 510 CURVE SMOOTH",
"284 510 LINE SMOOTH",
"247 510 OFFCURVE",
"202 495 OFFCURVE",
"186 456 CURVE",
"182 456 LINE",
"182 489 LINE SMOOTH",
"182 505 OFFCURVE",
"175 510 OFFCURVE",
"161 510 CURVE SMOOTH",
"76 510 LINE SMOOTH",
"62 510 OFFCURVE",
"55 505 OFFCURVE",
"55 489 CURVE SMOOTH",
"55 -116 LINE SMOOTH",
"55 -131 OFFCURVE",
"62 -136 OFFCURVE",
"76 -136 CURVE SMOOTH"
);
}
);
width = 526;
},
{
layerId = "C14C6A9E-9E56-4950-A507-E7357A5C19D0";
paths = (
{
closed = 1;
nodes = (
"222 28 LINE SMOOTH",
"157 28 OFFCURVE",
"110 63 OFFCURVE",
"110 132 CURVE SMOOTH",
"110 378 LINE SMOOTH",
"110 447 OFFCURVE",
"157 482 OFFCURVE",
"222 482 CURVE SMOOTH",
"294 482 LINE SMOOTH",
"361 482 OFFCURVE",
"398 441 OFFCURVE",
"398 373 CURVE SMOOTH",
"398 137 LINE SMOOTH",
"398 69 OFFCURVE",
"361 28 OFFCURVE",
"294 28 CURVE SMOOTH"
);
},
{
closed = 1;
nodes = (
"102 -153 LINE",
"107 -153 OFFCURVE",
"110 -151 OFFCURVE",
"110 -144 CURVE SMOOTH",
"110 52 LINE",
"114 52 LINE",
"128 26 OFFCURVE",
"157 0 OFFCURVE",
"220 0 CURVE SMOOTH",
"294 0 LINE SMOOTH",
"375 0 OFFCURVE",
"428 53 OFFCURVE",
"428 136 CURVE SMOOTH",
"428 374 LINE SMOOTH",
"428 457 OFFCURVE",
"375 510 OFFCURVE",
"294 510 CURVE SMOOTH",
"220 510 LINE SMOOTH",
"157 510 OFFCURVE",
"128 484 OFFCURVE",
"114 458 CURVE",
"110 458 LINE",
"110 501 LINE SMOOTH",
"110 508 OFFCURVE",
"107 510 OFFCURVE",
"102 510 CURVE SMOOTH",
"88 510 LINE SMOOTH",
"83 510 OFFCURVE",
"80 508 OFFCURVE",
"80 501 CURVE SMOOTH",
"80 -144 LINE SMOOTH",
"80 -151 OFFCURVE",
"83 -153 OFFCURVE",
"88 -153 CURVE SMOOTH"
);
}
);
width = 498;
}
);
unicode = 0070;
},
{
glyphname = q;
layers = (
{
layerId = "B34F63BB-E885-4604-9CD3-F42791F97BAE";
paths = (
{
closed = 1;
nodes = (
"233 0 LINE SMOOTH",
"266 0 OFFCURVE",
"313 11 OFFCURVE",
"332 55 CURVE",
"336 55 LINE",
"336 -116 LINE SMOOTH",
"336 -131 OFFCURVE",
"343 -136 OFFCURVE",
"357 -136 CURVE SMOOTH",
"441 -136 LINE SMOOTH",
"456 -136 OFFCURVE",
"463 -131 OFFCURVE",
"463 -116 CURVE SMOOTH",
"463 489 LINE SMOOTH",
"463 505 OFFCURVE",
"456 510 OFFCURVE",
"441 510 CURVE SMOOTH",
"210 510 LINE SMOOTH",
"105 510 OFFCURVE",
"45 452 OFFCURVE",
"45 347 CURVE SMOOTH",
"45 163 LINE SMOOTH",
"45 58 OFFCURVE",
"105 0 OFFCURVE",
"210 0 CURVE SMOOTH"
);
},
{
closed = 1;
nodes = (
"336 187 LINE SMOOTH",
"336 144 OFFCURVE",
"322 110 OFFCURVE",
"266 110 CURVE SMOOTH",
"230 110 LINE SMOOTH",
"187 110 OFFCURVE",
"172 127 OFFCURVE",
"172 169 CURVE SMOOTH",
"172 341 LINE SMOOTH",
"172 383 OFFCURVE",
"187 400 OFFCURVE",
"230 400 CURVE SMOOTH",
"324 400 LINE SMOOTH",
"332 400 OFFCURVE",
"336 397 OFFCURVE",
"336 389 CURVE SMOOTH"
);
}
);
width = 518;
},
{
layerId = "C14C6A9E-9E56-4950-A507-E7357A5C19D0";
paths = (
{
closed = 1;
nodes = (
"274 0 LINE SMOOTH",
"309 0 OFFCURVE",
"353 0 OFFCURVE",
"384 54 CURVE",
"388 54 LINE",
"388 -144 LINE SMOOTH",
"388 -151 OFFCURVE",
"391 -153 OFFCURVE",
"396 -153 CURVE SMOOTH",
"410 -153 LINE SMOOTH",
"415 -153 OFFCURVE",
"418 -151 OFFCURVE",
"418 -144 CURVE SMOOTH",
"418 501 LINE SMOOTH",
"418 508 OFFCURVE",
"415 510 OFFCURVE",
"410 510 CURVE SMOOTH",
"204 510 LINE SMOOTH",
"123 510 OFFCURVE",
"70 457 OFFCURVE",
"70 374 CURVE SMOOTH",
"70 136 LINE SMOOTH",
"70 53 OFFCURVE",
"123 0 OFFCURVE",
"204 0 CURVE SMOOTH"
);
},
{
closed = 1;
nodes = (
"388 137 LINE",
"388 69 OFFCURVE",
"341 28 OFFCURVE",
"274 28 CURVE SMOOTH",
"204 28 LINE SMOOTH",
"137 28 OFFCURVE",
"100 69 OFFCURVE",
"100 137 CURVE SMOOTH",
"100 373 LINE SMOOTH",
"100 441 OFFCURVE",
"137 482 OFFCURVE",
"204 482 CURVE SMOOTH",
"379 482 LINE SMOOTH",
"386 482 OFFCURVE",
"388 479 OFFCURVE",
"388 474 CURVE SMOOTH"
);
}
);
width = 498;
}
);
unicode = 0071;
},
{
glyphname = r;
layers = (
{
layerId = "B34F63BB-E885-4604-9CD3-F42791F97BAE";
paths = (
{
closed = 1;
nodes = (
"161 0 LINE SMOOTH",
"175 0 OFFCURVE",
"182 5 OFFCURVE",
"182 21 CURVE SMOOTH",
"182 322 LINE SMOOTH",
"182 366 OFFCURVE",
"196 400 OFFCURVE",
"251 400 CURVE SMOOTH",
"320 400 LINE",
"335 398 OFFCURVE",
"340 405 OFFCURVE",
"340 420 CURVE SMOOTH",
"340 489 LINE SMOOTH",
"340 503 OFFCURVE",
"335 510 OFFCURVE",
"320 510 CURVE SMOOTH",
"284 510 LINE SMOOTH",
"247 510 OFFCURVE",
"201 493 OFFCURVE",
"186 455 CURVE",
"182 455 LINE",
"182 489 LINE SMOOTH",
"182 505 OFFCURVE",
"175 510 OFFCURVE",
"161 510 CURVE SMOOTH",
"76 510 LINE SMOOTH",
"62 510 OFFCURVE",
"55 505 OFFCURVE",
"55 489 CURVE SMOOTH",
"55 21 LINE SMOOTH",
"55 5 OFFCURVE",
"62 0 OFFCURVE",
"76 0 CURVE SMOOTH"
);
}
);
width = 349;
},
{
layerId = "C14C6A9E-9E56-4950-A507-E7357A5C19D0";
paths = (
{
closed = 1;
nodes = (
"102 0 LINE",
"107 0 OFFCURVE",
"110 2 OFFCURVE",
"110 9 CURVE SMOOTH",
"110 363 LINE SMOOTH",
"110 437 OFFCURVE",
"156 482 OFFCURVE",
"223 482 CURVE SMOOTH",
"264 482 LINE SMOOTH",
"271 482 OFFCURVE",
"273 485 OFFCURVE",
"273 490 CURVE SMOOTH",
"273 502 LINE SMOOTH",
"273 507 OFFCURVE",
"271 510 OFFCURVE",
"264 510 CURVE SMOOTH",
"224 510 LINE SMOOTH",
"158 510 OFFCURVE",
"125 476 OFFCURVE",
"114 456 CURVE",
"110 456 LINE",
"110 501 LINE SMOOTH",
"110 508 OFFCURVE",
"107 510 OFFCURVE",
"102 510 CURVE SMOOTH",
"88 510 LINE SMOOTH",
"83 510 OFFCURVE",
"80 508 OFFCURVE",
"80 501 CURVE SMOOTH",
"80 9 LINE SMOOTH",
"80 2 OFFCURVE",
"83 0 OFFCURVE",
"88 0 CURVE SMOOTH"
);
}
);
width = 303;
}
);
unicode = 0072;
},
{
glyphname = s;
layers = (
{
layerId = "B34F63BB-E885-4604-9CD3-F42791F97BAE";
paths = (
{
closed = 1;
nodes = (
"248 0 LINE SMOOTH",
"356 0 OFFCURVE",
"405 50 OFFCURVE",
"405 134 CURVE SMOOTH",
"405 199 OFFCURVE",
"380 232 OFFCURVE",
"311 269 CURVE",
"210 329 LINE",
"188 341 OFFCURVE",
"167 354 OFFCURVE",
"167 374 CURVE SMOOTH",
"167 379 LINE SMOOTH",
"167 395 OFFCURVE",
"185 404 OFFCURVE",
"216 404 CURVE SMOOTH",
"355 404 LINE SMOOTH",
"371 404 OFFCURVE",
"375 409 OFFCURVE",
"375 424 CURVE SMOOTH",
"375 489 LINE SMOOTH",
"375 503 OFFCURVE",
"370 510 OFFCURVE",
"355 510 CURVE SMOOTH",
"188 510 LINE SMOOTH",
"83 510 OFFCURVE",
"35 468 OFFCURVE",
"35 374 CURVE SMOOTH",
"35 308 OFFCURVE",
"70 274 OFFCURVE",
"134 241 CURVE",
"233 186 LINE SMOOTH",
"257 173 OFFCURVE",
"274 158 OFFCURVE",
"274 140 CURVE SMOOTH",
"274 135 LINE SMOOTH",
"274 114 OFFCURVE",
"255 105 OFFCURVE",
"225 105 CURVE SMOOTH",
"58 105 LINE SMOOTH",
"42 105 OFFCURVE",
"38 100 OFFCURVE",
"38 85 CURVE SMOOTH",
"38 21 LINE SMOOTH",
"38 7 OFFCURVE",
"43 0 OFFCURVE",
"58 0 CURVE SMOOTH"
);
}
);
width = 438;
},
{
layerId = "C14C6A9E-9E56-4950-A507-E7357A5C19D0";
paths = (
{
closed = 1;
nodes = (
"238 0 LINE",
"325 0 OFFCURVE",
"369 31 OFFCURVE",
"369 120 CURVE SMOOTH",
"369 182 OFFCURVE",
"362 238 OFFCURVE",
"284 260 CURVE",
"153 307 LINE SMOOTH",
"110 322 OFFCURVE",
"85 341 OFFCURVE",
"85 386 CURVE SMOOTH",
"85 413 LINE SMOOTH",
"85 444 OFFCURVE",
"109 482 OFFCURVE",
"176 482 CURVE SMOOTH",
"337 482 LINE SMOOTH",
"344 482 OFFCURVE",
"346 485 OFFCURVE",
"346 490 CURVE SMOOTH",
"346 502 LINE SMOOTH",
"346 507 OFFCURVE",
"344 510 OFFCURVE",
"337 510 CURVE SMOOTH",
"176 510 LINE SMOOTH",
"89 510 OFFCURVE",
"54 465 OFFCURVE",
"54 398 CURVE SMOOTH",
"54 335 OFFCURVE",
"77 303 OFFCURVE",
"147 279 CURVE SMOOTH",
"279 233 LINE SMOOTH",
"328 216 OFFCURVE",
"339 182 OFFCURVE",
"339 138 CURVE SMOOTH",
"339 108 LINE SMOOTH",
"339 54 OFFCURVE",
"305 28 OFFCURVE",
"238 28 CURVE SMOOTH",
"68 28 LINE SMOOTH",
"61 28 OFFCURVE",
"59 25 OFFCURVE",
"59 20 CURVE SMOOTH",
"59 8 LINE SMOOTH",
"59 3 OFFCURVE",
"61 0 OFFCURVE",
"68 0 CURVE SMOOTH"
);
}
);
width = 429;
}
);
unicode = 0073;
},
{
glyphname = t;
layers = (
{
layerId = "B34F63BB-E885-4604-9CD3-F42791F97BAE";
paths = (
{
closed = 1;
nodes = (
"66 400 LINE SMOOTH",
"74 400 OFFCURVE",
"77 397 OFFCURVE",
"77 389 CURVE SMOOTH",
"77 162 LINE SMOOTH",
"77 57 OFFCURVE",
"139 0 OFFCURVE",
"243 0 CURVE SMOOTH",
"304 0 LINE SMOOTH",
"320 0 OFFCURVE",
"325 5 OFFCURVE",
"325 20 CURVE SMOOTH",
"325 89 LINE SMOOTH",
"325 103 OFFCURVE",
"320 110 OFFCURVE",
"304 110 CURVE SMOOTH",
"264 110 LINE SMOOTH",
"221 110 OFFCURVE",
"204 127 OFFCURVE",
"204 168 CURVE SMOOTH",
"204 389 LINE SMOOTH",
"204 397 OFFCURVE",
"208 400 OFFCURVE",
"216 400 CURVE SMOOTH",
"294 400 LINE SMOOTH",
"310 400 OFFCURVE",
"315 405 OFFCURVE",
"315 420 CURVE SMOOTH",
"315 489 LINE SMOOTH",
"315 503 OFFCURVE",
"310 510 OFFCURVE",
"294 510 CURVE SMOOTH",
"216 510 LINE SMOOTH",
"208 510 OFFCURVE",
"204 513 OFFCURVE",
"204 521 CURVE SMOOTH",
"204 616 LINE SMOOTH",
"204 631 OFFCURVE",
"197 637 OFFCURVE",
"183 637 CURVE SMOOTH",
"99 637 LINE SMOOTH",
"85 637 OFFCURVE",
"77 631 OFFCURVE",
"77 616 CURVE SMOOTH",
"77 521 LINE SMOOTH",
"77 513 OFFCURVE",
"74 510 OFFCURVE",
"66 510 CURVE SMOOTH",
"26 510 LINE SMOOTH",
"10 510 OFFCURVE",
"5 503 OFFCURVE",
"5 489 CURVE SMOOTH",
"5 420 LINE SMOOTH",
"5 405 OFFCURVE",
"9 400 OFFCURVE",
"26 400 CURVE SMOOTH"
);
}
);
width = 353;
},
{
layerId = "C14C6A9E-9E56-4950-A507-E7357A5C19D0";
paths = (
{
closed = 1;
nodes = (
"105 482 LINE",
"112 482 OFFCURVE",
"114 479 OFFCURVE",
"114 474 CURVE SMOOTH",
"114 133 LINE SMOOTH",
"114 50 OFFCURVE",
"173 0 OFFCURVE",
"254 0 CURVE SMOOTH",
"292 0 LINE SMOOTH",
"299 0 OFFCURVE",
"301 3 OFFCURVE",
"301 8 CURVE SMOOTH",
"301 20 LINE SMOOTH",
"301 25 OFFCURVE",
"299 28 OFFCURVE",
"292 28 CURVE SMOOTH",
"254 28 LINE SMOOTH",
"187 28 OFFCURVE",
"144 66 OFFCURVE",
"144 134 CURVE SMOOTH",
"144 474 LINE SMOOTH",
"144 479 OFFCURVE",
"146 482 OFFCURVE",
"153 482 CURVE SMOOTH",
"282 482 LINE SMOOTH",
"289 482 OFFCURVE",
"291 485 OFFCURVE",
"291 490 CURVE SMOOTH",
"291 502 LINE SMOOTH",
"291 507 OFFCURVE",
"289 510 OFFCURVE",
"282 510 CURVE SMOOTH",
"153 510 LINE SMOOTH",
"146 510 OFFCURVE",
"144 513 OFFCURVE",
"144 518 CURVE SMOOTH",
"144 596 LINE SMOOTH",
"144 603 OFFCURVE",
"141 605 OFFCURVE",
"136 605 CURVE SMOOTH",
"122 605 LINE SMOOTH",
"117 605 OFFCURVE",
"114 603 OFFCURVE",
"114 596 CURVE SMOOTH",
"114 518 LINE SMOOTH",
"114 513 OFFCURVE",
"112 510 OFFCURVE",
"105 510 CURVE SMOOTH",
"39 510 LINE SMOOTH",
"32 510 OFFCURVE",
"30 507 OFFCURVE",
"30 502 CURVE SMOOTH",
"30 490 LINE SMOOTH",
"30 485 OFFCURVE",
"32 482 OFFCURVE",
"39 482 CURVE SMOOTH"
);
}
);
width = 346;
}
);
unicode = 0074;
},
{
glyphname = u;
layers = (
{
layerId = "B34F63BB-E885-4604-9CD3-F42791F97BAE";
paths = (
{
closed = 1;
nodes = (
"239 0 LINE SMOOTH",
"276 0 OFFCURVE",
"321 15 OFFCURVE",
"337 54 CURVE",
"341 54 LINE",
"341 21 LINE SMOOTH",
"341 5 OFFCURVE",
"348 0 OFFCURVE",
"362 0 CURVE SMOOTH",
"446 0 LINE SMOOTH",
"461 0 OFFCURVE",
"468 5 OFFCURVE",
"468 21 CURVE SMOOTH",
"468 489 LINE SMOOTH",
"468 505 OFFCURVE",
"461 510 OFFCURVE",
"446 510 CURVE SMOOTH",
"362 510 LINE SMOOTH",
"348 510 OFFCURVE",
"341 505 OFFCURVE",
"341 489 CURVE SMOOTH",
"341 186 LINE SMOOTH",
"341 143 OFFCURVE",
"327 110 OFFCURVE",
"272 110 CURVE SMOOTH",
"235 110 LINE SMOOTH",
"193 110 OFFCURVE",
"177 127 OFFCURVE",
"177 169 CURVE SMOOTH",
"177 489 LINE SMOOTH",
"177 505 OFFCURVE",
"170 510 OFFCURVE",
"156 510 CURVE SMOOTH",
"71 510 LINE SMOOTH",
"57 510 OFFCURVE",
"50 505 OFFCURVE",
"50 489 CURVE SMOOTH",
"50 163 LINE SMOOTH",
"50 58 OFFCURVE",
"102 0 OFFCURVE",
"206 0 CURVE SMOOTH"
);
}
);
width = 523;
},
{
layerId = "C14C6A9E-9E56-4950-A507-E7357A5C19D0";
paths = (
{
closed = 1;
nodes = (
"283 0 LINE SMOOTH",
"346 0 OFFCURVE",
"375 26 OFFCURVE",
"389 52 CURVE",
"393 52 LINE",
"393 9 LINE SMOOTH",
"393 2 OFFCURVE",
"396 0 OFFCURVE",
"401 0 CURVE SMOOTH",
"415 0 LINE SMOOTH",
"420 0 OFFCURVE",
"423 2 OFFCURVE",
"423 9 CURVE SMOOTH",
"423 501 LINE SMOOTH",
"423 508 OFFCURVE",
"420 510 OFFCURVE",
"415 510 CURVE SMOOTH",
"401 510 LINE SMOOTH",
"396 510 OFFCURVE",
"393 508 OFFCURVE",
"393 501 CURVE SMOOTH",
"393 132 LINE SMOOTH",
"393 63 OFFCURVE",
"346 28 OFFCURVE",
"281 28 CURVE SMOOTH",
"209 28 LINE SMOOTH",
"142 28 OFFCURVE",
"105 69 OFFCURVE",
"105 137 CURVE SMOOTH",
"105 501 LINE SMOOTH",
"105 508 OFFCURVE",
"102 510 OFFCURVE",
"97 510 CURVE SMOOTH",
"83 510 LINE SMOOTH",
"78 510 OFFCURVE",
"75 508 OFFCURVE",
"75 501 CURVE SMOOTH",
"75 136 LINE SMOOTH",
"75 53 OFFCURVE",
"128 0 OFFCURVE",
"209 0 CURVE SMOOTH"
);
}
);
width = 503;
}
);
unicode = 0075;
},
{
glyphname = v;
layers = (
{
layerId = "B34F63BB-E885-4604-9CD3-F42791F97BAE";
paths = (
{
closed = 1;
nodes = (
"143 22 LINE SMOOTH",
"147 7 OFFCURVE",
"156 0 OFFCURVE",
"170 0 CURVE SMOOTH",
"297 0 LINE SMOOTH",
"312 0 OFFCURVE",
"321 7 OFFCURVE",
"324 22 CURVE",
"450 489 LINE SMOOTH",
"454 504 OFFCURVE",
"449 510 OFFCURVE",
"435 510 CURVE SMOOTH",
"347 510 LINE SMOOTH",
"332 510 OFFCURVE",
"325 505 OFFCURVE",
"322 489 CURVE",
"238 113 LINE",
"231 113 LINE",
"145 489 LINE",
"142 505 OFFCURVE",
"135 510 OFFCURVE",
"121 510 CURVE SMOOTH",
"33 510 LINE SMOOTH",
"19 510 OFFCURVE",
"14 504 OFFCURVE",
"18 489 CURVE SMOOTH"
);
}
);
width = 468;
},
{
layerId = "C14C6A9E-9E56-4950-A507-E7357A5C19D0";
paths = (
{
closed = 1;
nodes = (
"179 9 LINE",
"181 2 OFFCURVE",
"184 0 OFFCURVE",
"190 0 CURVE SMOOTH",
"212 0 LINE SMOOTH",
"218 0 OFFCURVE",
"221 2 OFFCURVE",
"223 9 CURVE",
"381 501 LINE",
"383 508 OFFCURVE",
"380 510 OFFCURVE",
"375 510 CURVE SMOOTH",
"359 510 LINE SMOOTH",
"354 510 OFFCURVE",
"351 508 OFFCURVE",
"349 501 CURVE",
"203 41 LINE",
"199 41 LINE",
"53 501 LINE",
"51 508 OFFCURVE",
"48 510 OFFCURVE",
"43 510 CURVE SMOOTH",
"27 510 LINE SMOOTH",
"22 510 OFFCURVE",
"19 508 OFFCURVE",
"21 501 CURVE"
);
}
);
width = 402;
}
);
unicode = 0076;
},
{
glyphname = w;
layers = (
{
layerId = "B34F63BB-E885-4604-9CD3-F42791F97BAE";
paths = (
{
closed = 1;
nodes = (
"259 0 LINE SMOOTH",
"275 0 OFFCURVE",
"281 6 OFFCURVE",
"283 21 CURVE",
"343 359 LINE",
"351 359 LINE",
"412 21 LINE SMOOTH",
"415 5 OFFCURVE",
"421 0 OFFCURVE",
"436 0 CURVE SMOOTH",
"550 0 LINE SMOOTH",
"565 0 OFFCURVE",
"571 5 OFFCURVE",
"574 21 CURVE SMOOTH",
"674 489 LINE SMOOTH",
"677 502 OFFCURVE",
"672 510 OFFCURVE",
"659 510 CURVE SMOOTH",
"563 510 LINE SMOOTH",
"549 510 OFFCURVE",
"541 505 OFFCURVE",
"539 489 CURVE SMOOTH",
"493 147 LINE",
"485 147 LINE",
"416 489 LINE SMOOTH",
"413 505 OFFCURVE",
"405 510 OFFCURVE",
"391 510 CURVE SMOOTH",
"303 510 LINE SMOOTH",
"290 510 OFFCURVE",
"282 504 OFFCURVE",
"280 489 CURVE",
"209 147 LINE",
"201 147 LINE",
"156 489 LINE SMOOTH",
"154 506 OFFCURVE",
"146 510 OFFCURVE",
"132 510 CURVE SMOOTH",
"36 510 LINE SMOOTH",
"22 510 OFFCURVE",
"18 504 OFFCURVE",
"21 489 CURVE SMOOTH",
"121 21 LINE SMOOTH",
"124 7 OFFCURVE",
"131 0 OFFCURVE",
"145 0 CURVE SMOOTH"
);
}
);
width = 696;
},
{
layerId = "C14C6A9E-9E56-4950-A507-E7357A5C19D0";
paths = (
{
closed = 1;
nodes = (
"202 0 LINE",
"208 0 OFFCURVE",
"211 2 OFFCURVE",
"213 9 CURVE SMOOTH",
"337 454 LINE",
"341 454 LINE",
"465 9 LINE SMOOTH",
"467 2 OFFCURVE",
"470 0 OFFCURVE",
"476 0 CURVE SMOOTH",
"497 0 LINE SMOOTH",
"503 0 OFFCURVE",
"506 2 OFFCURVE",
"508 9 CURVE SMOOTH",
"658 501 LINE SMOOTH",
"660 508 OFFCURVE",
"657 510 OFFCURVE",
"652 510 CURVE SMOOTH",
"636 510 LINE SMOOTH",
"631 510 OFFCURVE",
"628 508 OFFCURVE",
"626 501 CURVE SMOOTH",
"488 41 LINE",
"484 41 LINE",
"358 501 LINE SMOOTH",
"356 509 OFFCURVE",
"352 510 OFFCURVE",
"347 510 CURVE SMOOTH",
"333 510 LINE SMOOTH",
"328 510 OFFCURVE",
"324 509 OFFCURVE",
"322 501 CURVE",
"194 41 LINE",
"190 41 LINE",
"52 501 LINE SMOOTH",
"50 508 OFFCURVE",
"47 510 OFFCURVE",
"42 510 CURVE SMOOTH",
"27 510 LINE SMOOTH",
"22 510 OFFCURVE",
"19 508 OFFCURVE",
"21 501 CURVE SMOOTH",
"171 9 LINE SMOOTH",
"173 2 OFFCURVE",
"176 0 OFFCURVE",
"182 0 CURVE SMOOTH"
);
}
);
width = 679;
}
);
unicode = 0077;
},
{
glyphname = x;
layers = (
{
layerId = "B34F63BB-E885-4604-9CD3-F42791F97BAE";
paths = (
{
closed = 1;
nodes = (
"137 0 LINE SMOOTH",
"151 0 OFFCURVE",
"161 4 OFFCURVE",
"167 21 CURVE",
"230 174 LINE",
"234 174 LINE",
"297 21 LINE SMOOTH",
"304 4 OFFCURVE",
"313 0 OFFCURVE",
"327 0 CURVE SMOOTH",
"430 0 LINE SMOOTH",
"444 0 OFFCURVE",
"449 9 OFFCURVE",
"442 21 CURVE SMOOTH",
"313 260 LINE",
"433 489 LINE",
"442 503 OFFCURVE",
"434 510 OFFCURVE",
"420 510 CURVE SMOOTH",
"320 510 LINE SMOOTH",
"306 510 OFFCURVE",
"295 507 OFFCURVE",
"289 489 CURVE SMOOTH",
"234 337 LINE",
"230 337 LINE",
"167 489 LINE",
"161 506 OFFCURVE",
"150 510 OFFCURVE",
"136 510 CURVE SMOOTH",
"34 510 LINE SMOOTH",
"22 510 OFFCURVE",
"14 503 OFFCURVE",
"22 489 CURVE SMOOTH",
"148 260 LINE",
"22 21 LINE SMOOTH",
"14 7 OFFCURVE",
"22 0 OFFCURVE",
"36 0 CURVE SMOOTH"
);
}
);
width = 462;
},
{
layerId = "C14C6A9E-9E56-4950-A507-E7357A5C19D0";
paths = (
{
closed = 1;
nodes = (
"51 0 LINE SMOOTH",
"56 0 OFFCURVE",
"59 2 OFFCURVE",
"64 9 CURVE",
"198 240 LINE",
"202 240 LINE",
"336 9 LINE",
"341 2 OFFCURVE",
"341 0 OFFCURVE",
"346 0 CURVE SMOOTH",
"369 0 LINE SMOOTH",
"374 0 OFFCURVE",
"377 2 OFFCURVE",
"372 9 CURVE",
"221 262 LINE",
"360 501 LINE",
"365 508 OFFCURVE",
"362 510 OFFCURVE",
"357 510 CURVE SMOOTH",
"338 510 LINE SMOOTH",
"333 510 OFFCURVE",
"330 508 OFFCURVE",
"325 501 CURVE",
"202 283 LINE",
"198 283 LINE",
"72 501 LINE",
"67 508 OFFCURVE",
"64 510 OFFCURVE",
"59 510 CURVE SMOOTH",
"40 510 LINE SMOOTH",
"35 510 OFFCURVE",
"32 508 OFFCURVE",
"37 501 CURVE",
"178 260 LINE",
"28 9 LINE",
"23 2 OFFCURVE",
"26 0 OFFCURVE",
"31 0 CURVE SMOOTH"
);
}
);
width = 400;
}
);
unicode = 0078;
},
{
glyphname = y;
layers = (
{
layerId = "B34F63BB-E885-4604-9CD3-F42791F97BAE";
paths = (
{
closed = 1;
nodes = (
"138 -169 LINE SMOOTH",
"248 -169 OFFCURVE",
"303 -106 OFFCURVE",
"331 0 CURVE SMOOTH",
"453 488 LINE SMOOTH",
"456 502 OFFCURVE",
"448 510 OFFCURVE",
"433 510 CURVE SMOOTH",
"349 510 LINE SMOOTH",
"336 510 OFFCURVE",
"327 504 OFFCURVE",
"324 489 CURVE SMOOTH",
"239 120 LINE",
"235 120 LINE",
"149 489 LINE SMOOTH",
"145 505 OFFCURVE",
"137 510 OFFCURVE",
"124 510 CURVE SMOOTH",
"35 510 LINE SMOOTH",
"21 510 OFFCURVE",
"16 503 OFFCURVE",
"20 489 CURVE SMOOTH",
"137 48 LINE SMOOTH",
"141 34 OFFCURVE",
"147 27 OFFCURVE",
"162 27 CURVE SMOOTH",
"215 27 LINE",
"200 -36 OFFCURVE",
"183 -58 OFFCURVE",
"95 -58 CURVE SMOOTH",
"74 -58 LINE SMOOTH",
"59 -58 OFFCURVE",
"54 -66 OFFCURVE",
"54 -80 CURVE SMOOTH",
"54 -147 LINE SMOOTH",
"54 -161 OFFCURVE",
"59 -169 OFFCURVE",
"74 -169 CURVE SMOOTH"
);
}
);
width = 471;
},
{
layerId = "C14C6A9E-9E56-4950-A507-E7357A5C19D0";
paths = (
{
closed = 1;
nodes = (
"88 -147 LINE SMOOTH",
"201 -147 OFFCURVE",
"226 -48 OFFCURVE",
"255 36 CURVE",
"425 501 LINE",
"427 508 OFFCURVE",
"424 510 OFFCURVE",
"419 510 CURVE SMOOTH",
"403 510 LINE SMOOTH",
"398 510 OFFCURVE",
"395 508 OFFCURVE",
"393 501 CURVE",
"230 56 LINE",
"226 56 LINE",
"63 501 LINE",
"61 508 OFFCURVE",
"58 510 OFFCURVE",
"53 510 CURVE SMOOTH",
"37 510 LINE SMOOTH",
"32 510 OFFCURVE",
"29 508 OFFCURVE",
"31 501 CURVE",
"201 36 LINE",
"203 30 OFFCURVE",
"206 27 OFFCURVE",
"212 27 CURVE SMOOTH",
"222 27 LINE",
"196 -39 OFFCURVE",
"176 -119 OFFCURVE",
"88 -119 CURVE SMOOTH",
"59 -119 LINE SMOOTH",
"52 -119 OFFCURVE",
"50 -122 OFFCURVE",
"50 -127 CURVE SMOOTH",
"50 -139 LINE SMOOTH",
"50 -144 OFFCURVE",
"52 -147 OFFCURVE",
"59 -147 CURVE SMOOTH"
);
}
);
width = 456;
}
);
unicode = 0079;
},
{
glyphname = z;
layers = (
{
layerId = "B34F63BB-E885-4604-9CD3-F42791F97BAE";
paths = (
{
closed = 1;
nodes = (
"31 21 LINE SMOOTH",
"31 7 OFFCURVE",
"36 0 OFFCURVE",
"52 0 CURVE SMOOTH",
"398 0 LINE SMOOTH",
"413 0 OFFCURVE",
"419 7 OFFCURVE",
"419 21 CURVE SMOOTH",
"419 87 LINE SMOOTH",
"419 101 OFFCURVE",
"413 109 OFFCURVE",
"398 109 CURVE SMOOTH",
"196 109 LINE",
"196 113 LINE",
"392 377 LINE",
"401 388 OFFCURVE",
"408 396 OFFCURVE",
"408 429 CURVE SMOOTH",
"408 489 LINE SMOOTH",
"408 503 OFFCURVE",
"402 510 OFFCURVE",
"387 510 CURVE SMOOTH",
"61 510 LINE SMOOTH",
"46 510 OFFCURVE",
"40 503 OFFCURVE",
"40 489 CURVE SMOOTH",
"40 423 LINE SMOOTH",
"40 409 OFFCURVE",
"46 401 OFFCURVE",
"61 401 CURVE SMOOTH",
"262 401 LINE",
"262 397 LINE",
"50 112 LINE SMOOTH",
"39 98 OFFCURVE",
"31 87 OFFCURVE",
"31 54 CURVE SMOOTH"
);
}
);
width = 449;
},
{
layerId = "C14C6A9E-9E56-4950-A507-E7357A5C19D0";
paths = (
{
closed = 1;
nodes = (
"35 8 LINE",
"35 3 OFFCURVE",
"37 0 OFFCURVE",
"44 0 CURVE SMOOTH",
"349 0 LINE SMOOTH",
"356 0 OFFCURVE",
"358 3 OFFCURVE",
"358 8 CURVE SMOOTH",
"358 20 LINE SMOOTH",
"358 25 OFFCURVE",
"356 28 OFFCURVE",
"349 28 CURVE SMOOTH",
"76 28 LINE",
"76 32 LINE",
"350 482 LINE SMOOTH",
"352 485 OFFCURVE",
"352 488 OFFCURVE",
"352 490 CURVE",
"352 502 LINE SMOOTH",
"352 507 OFFCURVE",
"350 510 OFFCURVE",
"343 510 CURVE SMOOTH",
"50 510 LINE SMOOTH",
"43 510 OFFCURVE",
"41 507 OFFCURVE",
"41 502 CURVE SMOOTH",
"41 490 LINE SMOOTH",
"41 485 OFFCURVE",
"43 482 OFFCURVE",
"50 482 CURVE SMOOTH",
"312 482 LINE",
"312 478 LINE",
"37 26 LINE SMOOTH",
"35 23 OFFCURVE",
"35 21 OFFCURVE",
"35 17 CURVE SMOOTH"
);
}
);
width = 393;
}
);
unicode = 007A;
},
{
glyphname = braceleft;
layers = (
{
layerId = "B34F63BB-E885-4604-9CD3-F42791F97BAE";
paths = (
{
closed = 1;
nodes = (
"235 643 LINE SMOOTH",
"133 643 OFFCURVE",
"86 585 OFFCURVE",
"86 480 CURVE SMOOTH",
"86 379 LINE SMOOTH",
"86 339 OFFCURVE",
"71 326 OFFCURVE",
"44 326 CURVE SMOOTH",
"28 326 OFFCURVE",
"23 318 OFFCURVE",
"23 304 CURVE SMOOTH",
"23 237 LINE SMOOTH",
"23 222 OFFCURVE",
"28 215 OFFCURVE",
"44 215 CURVE SMOOTH",
"71 215 OFFCURVE",
"86 202 OFFCURVE",
"86 162 CURVE SMOOTH",
"86 61 LINE SMOOTH",
"86 -44 OFFCURVE",
"133 -102 OFFCURVE",
"235 -102 CURVE SMOOTH",
"243 -102 LINE SMOOTH",
"258 -102 OFFCURVE",
"263 -95 OFFCURVE",
"263 -81 CURVE SMOOTH",
"263 -34 LINE SMOOTH",
"263 -20 OFFCURVE",
"258 -13 OFFCURVE",
"243 -13 CURVE SMOOTH",
"240 -13 LINE SMOOTH",
"198 -13 OFFCURVE",
"186 4 OFFCURVE",
"186 46 CURVE SMOOTH",
"186 172 LINE SMOOTH",
"186 225 OFFCURVE",
"168 258 OFFCURVE",
"124 270 CURVE",
"171 285 OFFCURVE",
"186 316 OFFCURVE",
"186 369 CURVE SMOOTH",
"186 495 LINE SMOOTH",
"186 537 OFFCURVE",
"198 554 OFFCURVE",
"240 554 CURVE SMOOTH",
"243 554 LINE SMOOTH",
"258 554 OFFCURVE",
"263 561 OFFCURVE",
"263 575 CURVE SMOOTH",
"263 622 LINE SMOOTH",
"263 636 OFFCURVE",
"258 643 OFFCURVE",
"243 643 CURVE SMOOTH"
);
}
);
width = 315;
},
{
layerId = "C14C6A9E-9E56-4950-A507-E7357A5C19D0";
paths = (
{
closed = 1;
nodes = (
"220 643 LINE",
"149 643 OFFCURVE",
"116 590 OFFCURVE",
"116 507 CURVE SMOOTH",
"116 366 LINE SMOOTH",
"116 305 OFFCURVE",
"92 284 OFFCURVE",
"49 284 CURVE SMOOTH",
"42 284 OFFCURVE",
"40 281 OFFCURVE",
"40 276 CURVE SMOOTH",
"40 264 LINE SMOOTH",
"40 259 OFFCURVE",
"42 256 OFFCURVE",
"49 256 CURVE SMOOTH",
"92 256 OFFCURVE",
"116 235 OFFCURVE",
"116 174 CURVE SMOOTH",
"116 34 LINE SMOOTH",
"116 -49 OFFCURVE",
"149 -102 OFFCURVE",
"220 -102 CURVE SMOOTH",
"224 -102 LINE SMOOTH",
"231 -102 OFFCURVE",
"233 -99 OFFCURVE",
"233 -94 CURVE SMOOTH",
"233 -82 LINE SMOOTH",
"233 -77 OFFCURVE",
"231 -74 OFFCURVE",
"224 -74 CURVE SMOOTH",
"220 -74 LINE SMOOTH",
"163 -74 OFFCURVE",
"146 -33 OFFCURVE",
"146 35 CURVE SMOOTH",
"146 175 LINE SMOOTH",
"146 224 OFFCURVE",
"127 259 OFFCURVE",
"94 270 CURVE",
"127 281 OFFCURVE",
"146 315 OFFCURVE",
"146 365 CURVE SMOOTH",
"146 506 LINE SMOOTH",
"146 574 OFFCURVE",
"163 615 OFFCURVE",
"220 615 CURVE SMOOTH",
"224 615 LINE SMOOTH",
"231 615 OFFCURVE",
"233 618 OFFCURVE",
"233 623 CURVE SMOOTH",
"233 635 LINE SMOOTH",
"233 640 OFFCURVE",
"231 643 OFFCURVE",
"224 643 CURVE SMOOTH"
);
}
);
width = 293;
}
);
unicode = 007B;
},
{
glyphname = bar;
layers = (
{
layerId = "B34F63BB-E885-4604-9CD3-F42791F97BAE";
paths = (
{
closed = 1;
nodes = (
"159 622 LINE SMOOTH",
"159 638 OFFCURVE",
"151 643 OFFCURVE",
"137 643 CURVE SMOOTH",
"94 643 LINE SMOOTH",
"80 643 OFFCURVE",
"73 638 OFFCURVE",
"73 622 CURVE SMOOTH",
"73 21 LINE SMOOTH",
"73 5 OFFCURVE",
"80 0 OFFCURVE",
"94 0 CURVE SMOOTH",
"137 0 LINE SMOOTH",
"151 0 OFFCURVE",
"159 5 OFFCURVE",
"159 21 CURVE SMOOTH"
);
}
);
width = 231;
},
{
layerId = "C14C6A9E-9E56-4950-A507-E7357A5C19D0";
paths = (
{
closed = 1;
nodes = (
"115 634 LINE SMOOTH",
"115 641 OFFCURVE",
"112 643 OFFCURVE",
"107 643 CURVE SMOOTH",
"93 643 LINE SMOOTH",
"88 643 OFFCURVE",
"85 641 OFFCURVE",
"85 634 CURVE SMOOTH",
"85 9 LINE SMOOTH",
"85 2 OFFCURVE",
"88 0 OFFCURVE",
"93 0 CURVE SMOOTH",
"107 0 LINE SMOOTH",
"112 0 OFFCURVE",
"115 2 OFFCURVE",
"115 9 CURVE SMOOTH"
);
}
);
width = 200;
}
);
unicode = 007C;
},
{
glyphname = braceright;
layers = (
{
layerId = "B34F63BB-E885-4604-9CD3-F42791F97BAE";
paths = (
{
closed = 1;
nodes = (
"201 480 LINE SMOOTH",
"201 585 OFFCURVE",
"153 643 OFFCURVE",
"51 643 CURVE SMOOTH",
"44 643 LINE SMOOTH",
"28 643 OFFCURVE",
"23 636 OFFCURVE",
"23 622 CURVE SMOOTH",
"23 575 LINE SMOOTH",
"23 561 OFFCURVE",
"28 554 OFFCURVE",
"44 554 CURVE SMOOTH",
"47 554 LINE SMOOTH",
"88 554 OFFCURVE",
"100 537 OFFCURVE",
"100 495 CURVE SMOOTH",
"100 369 LINE SMOOTH",
"100 316 OFFCURVE",
"116 285 OFFCURVE",
"162 270 CURVE",
"118 258 OFFCURVE",
"100 225 OFFCURVE",
"100 172 CURVE SMOOTH",
"100 46 LINE SMOOTH",
"100 4 OFFCURVE",
"88 -13 OFFCURVE",
"47 -13 CURVE SMOOTH",
"44 -13 LINE SMOOTH",
"28 -13 OFFCURVE",
"23 -20 OFFCURVE",
"23 -34 CURVE SMOOTH",
"23 -81 LINE SMOOTH",
"23 -95 OFFCURVE",
"28 -102 OFFCURVE",
"44 -102 CURVE SMOOTH",
"51 -102 LINE SMOOTH",
"153 -102 OFFCURVE",
"201 -44 OFFCURVE",
"201 61 CURVE SMOOTH",
"201 162 LINE SMOOTH",
"201 202 OFFCURVE",
"215 215 OFFCURVE",
"243 215 CURVE SMOOTH",
"258 215 OFFCURVE",
"263 222 OFFCURVE",
"263 237 CURVE SMOOTH",
"263 304 LINE SMOOTH",
"263 318 OFFCURVE",
"258 326 OFFCURVE",
"243 326 CURVE SMOOTH",
"215 326 OFFCURVE",
"201 339 OFFCURVE",
"201 379 CURVE SMOOTH"
);
}
);
width = 315;
},
{
layerId = "C14C6A9E-9E56-4950-A507-E7357A5C19D0";
paths = (
{
closed = 1;
nodes = (
"157 507 LINE SMOOTH",
"157 590 OFFCURVE",
"124 643 OFFCURVE",
"53 643 CURVE SMOOTH",
"49 643 LINE SMOOTH",
"42 643 OFFCURVE",
"40 640 OFFCURVE",
"40 635 CURVE SMOOTH",
"40 623 LINE SMOOTH",
"40 618 OFFCURVE",
"42 615 OFFCURVE",
"49 615 CURVE SMOOTH",
"53 615 LINE SMOOTH",
"110 615 OFFCURVE",
"127 574 OFFCURVE",
"127 506 CURVE SMOOTH",
"127 365 LINE SMOOTH",
"127 315 OFFCURVE",
"146 281 OFFCURVE",
"179 270 CURVE",
"146 259 OFFCURVE",
"127 224 OFFCURVE",
"127 175 CURVE SMOOTH",
"127 35 LINE SMOOTH",
"127 -33 OFFCURVE",
"110 -74 OFFCURVE",
"53 -74 CURVE SMOOTH",
"49 -74 LINE SMOOTH",
"42 -74 OFFCURVE",
"40 -77 OFFCURVE",
"40 -82 CURVE SMOOTH",
"40 -94 LINE SMOOTH",
"40 -99 OFFCURVE",
"42 -102 OFFCURVE",
"49 -102 CURVE SMOOTH",
"53 -102 LINE SMOOTH",
"124 -102 OFFCURVE",
"157 -49 OFFCURVE",
"157 34 CURVE SMOOTH",
"157 174 LINE SMOOTH",
"157 235 OFFCURVE",
"181 256 OFFCURVE",
"224 256 CURVE SMOOTH",
"231 256 OFFCURVE",
"233 259 OFFCURVE",
"233 264 CURVE SMOOTH",
"233 276 LINE SMOOTH",
"233 281 OFFCURVE",
"231 284 OFFCURVE",
"224 284 CURVE SMOOTH",
"181 284 OFFCURVE",
"157 305 OFFCURVE",
"157 366 CURVE SMOOTH"
);
}
);
width = 293;
}
);
unicode = 007D;
},
{
glyphname = asciitilde;
layers = (
{
layerId = "B34F63BB-E885-4604-9CD3-F42791F97BAE";
paths = (
{
closed = 1;
nodes = (
"243 289 OFFCURVE",
"311 258 OFFCURVE",
"384 258 CURVE SMOOTH",
"419 258 OFFCURVE",
"447 264 OFFCURVE",
"467 273 CURVE SMOOTH",
"487 281 OFFCURVE",
"495 290 OFFCURVE",
"495 310 CURVE SMOOTH",
"495 369 LINE SMOOTH",
"495 377 OFFCURVE",
"489 382 OFFCURVE",
"481 382 CURVE SMOOTH",
"463 382 OFFCURVE",
"435 352 OFFCURVE",
"387 352 CURVE SMOOTH",
"308 352 OFFCURVE",
"248 384 OFFCURVE",
"181 384 CURVE SMOOTH",
"146 384 OFFCURVE",
"118 377 OFFCURVE",
"98 369 CURVE SMOOTH",
"78 360 OFFCURVE",
"70 352 OFFCURVE",
"70 331 CURVE SMOOTH",
"70 273 LINE SMOOTH",
"70 265 OFFCURVE",
"76 259 OFFCURVE",
"84 259 CURVE SMOOTH",
"102 259 OFFCURVE",
"130 289 OFFCURVE",
"178 289 CURVE SMOOTH"
);
}
);
width = 565;
},
{
layerId = "C14C6A9E-9E56-4950-A507-E7357A5C19D0";
paths = (
{
closed = 1;
nodes = (
"214 325 OFFCURVE",
"293 296 OFFCURVE",
"347 296 CURVE SMOOTH",
"373 296 OFFCURVE",
"403 301 OFFCURVE",
"426 311 CURVE SMOOTH",
"438 316 OFFCURVE",
"442 319 OFFCURVE",
"442 325 CURVE SMOOTH",
"442 334 LINE SMOOTH",
"442 340 OFFCURVE",
"439 344 OFFCURVE",
"434 344 CURVE SMOOTH",
"425 344 OFFCURVE",
"390 324 OFFCURVE",
"348 324 CURVE SMOOTH",
"297 324 OFFCURVE",
"223 353 OFFCURVE",
"165 353 CURVE SMOOTH",
"139 353 OFFCURVE",
"109 348 OFFCURVE",
"86 338 CURVE SMOOTH",
"74 333 OFFCURVE",
"70 330 OFFCURVE",
"70 324 CURVE SMOOTH",
"70 315 LINE SMOOTH",
"70 309 OFFCURVE",
"73 305 OFFCURVE",
"78 305 CURVE SMOOTH",
"87 305 OFFCURVE",
"122 325 OFFCURVE",
"164 325 CURVE SMOOTH"
);
}
);
width = 512;
}
);
unicode = 007E;
},
